Catamaran-Black.ufo
<glyph name="quotedbl" format="2">
  <advance width="453"/>
  <unicode hex="0022"/>
  <outline>
    <contour>
      <point x="331" y="742" type="curve" smooth="yes"/>
      <point x="382" y="742"/>
      <point x="423" y="699"/>
      <point x="423" y="635" type="curve" smooth="yes"/>
      <point x="423" y="556"/>
      <point x="354" y="474"/>
      <point x="266" y="441" type="curve"/>
      <point x="230" y="521" type="line"/>
      <point x="249" y="532"/>
      <point x="277" y="555"/>
      <point x="282" y="572" type="curve"/>
      <point x="258" y="587"/>
      <point x="239" y="617"/>
      <point x="239" y="650" type="curve" smooth="yes"/>
      <point x="239" y="695"/>
      <point x="279" y="742"/>
    </contour>
    <contour>
      <point x="121" y="742" type="curve" smooth="yes"/>
      <point x="172" y="742"/>
      <point x="213" y="699"/>
      <point x="213" y="635" type="curve" smooth="yes"/>
      <point x="213" y="556"/>
      <point x="144" y="474"/>
      <point x="56" y="441" type="curve"/>
      <point x="20" y="521" type="line"/>
      <point x="39" y="532"/>
      <point x="67" y="555"/>
      <point x="72" y="572" type="curve"/>
      <point x="48" y="587"/>
      <point x="29" y="617"/>
      <point x="29" y="650" type="curve" smooth="yes"/>
      <point x="29" y="695"/>
      <point x="69" y="742"/>
    </contour>
  </outline>
</glyph>
<glyph name="numbersign" format="2">
  <advance width="647"/>
  <unicode hex="0023"/>
  <outline>
    <contour>
      <point x="433" y="517" type="line"/>
      <point x="582" y="517" type="line"/>
      <point x="560" y="426" type="line"/>
      <point x="607" y="426" type="line"/>
      <point x="617" y="293" type="line"/>
      <point x="528" y="293" type="line"/>
      <point x="510" y="215" type="line"/>
      <point x="607" y="215" type="line"/>
      <point x="617" y="82" type="line"/>
      <point x="478" y="82" type="line"/>
      <point x="455" y="-15" type="line"/>
      <point x="308" y="-10" type="line"/>
      <point x="329" y="82" type="line"/>
      <point x="234" y="82" type="line"/>
      <point x="211" y="-15" type="line"/>
      <point x="64" y="-10" type="line"/>
      <point x="85" y="82" type="line"/>
      <point x="41" y="82" type="line"/>
      <point x="30" y="215" type="line"/>
      <point x="117" y="215" type="line"/>
      <point x="135" y="293" type="line"/>
      <point x="41" y="293" type="line"/>
      <point x="30" y="426" type="line"/>
      <point x="167" y="426" type="line"/>
      <point x="189" y="517" type="line"/>
      <point x="338" y="517" type="line"/>
      <point x="316" y="426" type="line"/>
      <point x="411" y="426" type="line"/>
    </contour>
    <contour>
      <point x="379" y="293" type="line"/>
      <point x="284" y="293" type="line"/>
      <point x="266" y="215" type="line"/>
      <point x="361" y="215" type="line"/>
    </contour>
  </outline>
</glyph>
<glyph name="dollar" format="2">
  <advance width="547"/>
  <unicode hex="0024"/>
  <outline>
    <contour>
      <point x="432" y="799" type="line"/>
      <point x="313" y="789" type="line"/>
      <point x="313" y="691.764" type="line"/>
      <point x="302.845" y="692.584"/>
      <point x="292.808" y="693"/>
      <point x="283" y="693" type="curve" smooth="yes"/>
      <point x="269" y="692.77" type="line"/>
      <point x="269" y="799" type="line"/>
      <point x="151" y="789" type="line"/>
      <point x="151" y="668.315" type="line"/>
      <point x="74.874" y="635.683"/>
      <point x="30.673" y="573.416"/>
      <point x="30" y="498" type="curve" smooth="yes"/>
      <point x="30" y="382"/>
      <point x="146" y="320"/>
      <point x="234" y="268" type="curve" smooth="yes"/>
      <point x="286" y="237"/>
      <point x="339" y="213"/>
      <point x="339" y="189" type="curve" smooth="yes"/>
      <point x="339" y="164"/>
      <point x="308" y="136"/>
      <point x="251" y="136" type="curve" smooth="yes"/>
      <point x="202" y="136"/>
      <point x="128" y="158"/>
      <point x="93" y="179" type="curve"/>
      <point x="33" y="42" type="line"/>
      <point x="56.536" y="27.79"/>
      <point x="89.538" y="15.354"/>
      <point x="125" y="5.919" type="curve"/>
      <point x="125" y="-119" type="line"/>
      <point x="243" y="-119" type="line"/>
      <point x="243" y="-12.745" type="line"/>
      <point x="256" y="-13" type="line" smooth="yes"/>
      <point x="268.003" y="-13"/>
      <point x="279.674" y="-12.566"/>
      <point x="291" y="-11.718" type="curve"/>
      <point x="291" y="-122" type="line"/>
      <point x="410" y="-122" type="line"/>
      <point x="410" y="17.299" type="line"/>
      <point x="484.662" y="51.871"/>
      <point x="527" y="113.27"/>
      <point x="527" y="187" type="curve"/>
      <point x="527" y="298"/>
      <point x="417" y="364"/>
      <point x="321" y="419" type="curve" smooth="yes"/>
      <point x="267" y="450"/>
      <point x="218" y="467"/>
      <point x="218" y="496" type="curve" smooth="yes"/>
      <point x="218" y="521"/>
      <point x="244" y="544"/>
      <point x="285" y="544" type="curve" smooth="yes"/>
      <point x="330" y="544"/>
      <point x="357" y="539"/>
      <point x="429" y="514" type="curve"/>
      <point x="483" y="637" type="line"/>
      <point x="467.839" y="647.298"/>
      <point x="450.55" y="656.287"/>
      <point x="432" y="663.873" type="curve"/>
    </contour>
  </outline>
</glyph>
<glyph name="percent" format="2">
  <advance width="974"/>
  <unicode hex="0025"/>
  <outline>
    <contour>
      <point x="542" y="706" type="line"/>
      <point x="730" y="706" type="line"/>
      <point x="431" y="0" type="line"/>
      <point x="244" y="0" type="line"/>
    </contour>
    <contour>
      <point x="20" y="519" type="curve" smooth="yes"/>
      <point x="20" y="631"/>
      <point x="89" y="702"/>
      <point x="200" y="702" type="curve" smooth="yes"/>
      <point x="316" y="702"/>
      <point x="382" y="629"/>
      <point x="382" y="517" type="curve" smooth="yes"/>
      <point x="382" y="406"/>
      <point x="308" y="337"/>
      <point x="195" y="337" type="curve" smooth="yes"/>
      <point x="84" y="337"/>
      <point x="20" y="407"/>
    </contour>
    <contour>
      <point x="158" y="519" type="curve" smooth="yes"/>
      <point x="158" y="479"/>
      <point x="169" y="458"/>
      <point x="198" y="458" type="curve" smooth="yes"/>
      <point x="230" y="458"/>
      <point x="244" y="477"/>
      <point x="244" y="517" type="curve" smooth="yes"/>
      <point x="244" y="554"/>
      <point x="234" y="578"/>
      <point x="202" y="578" type="curve" smooth="yes"/>
      <point x="175" y="578"/>
      <point x="158" y="560"/>
    </contour>
    <contour>
      <point x="592" y="183" type="curve" smooth="yes"/>
      <point x="592" y="295"/>
      <point x="661" y="366"/>
      <point x="772" y="366" type="curve" smooth="yes"/>
      <point x="888" y="366"/>
      <point x="954" y="293"/>
      <point x="954" y="181" type="curve" smooth="yes"/>
      <point x="954" y="70"/>
      <point x="880" y="1"/>
      <point x="767" y="1" type="curve" smooth="yes"/>
      <point x="656" y="1"/>
      <point x="592" y="71"/>
    </contour>
    <contour>
      <point x="730" y="183" type="curve" smooth="yes"/>
      <point x="730" y="143"/>
      <point x="741" y="122"/>
      <point x="770" y="122" type="curve" smooth="yes"/>
      <point x="802" y="122"/>
      <point x="816" y="141"/>
      <point x="816" y="181" type="curve" smooth="yes"/>
      <point x="816" y="218"/>
      <point x="806" y="242"/>
      <point x="774" y="242" type="curve" smooth="yes"/>
      <point x="747" y="242"/>
      <point x="730" y="224"/>
    </contour>
  </outline>
</glyph>
<glyph name="ampersand" format="2">
  <advance width="689"/>
  <unicode hex="0026"/>
  <outline>
    <contour>
      <point x="511" y="635" type="curve"/>
      <point x="462" y="511" type="line"/>
      <point x="417" y="536"/>
      <point x="374" y="547"/>
      <point x="333" y="547" type="curve" smooth="yes"/>
      <point x="284" y="547"/>
      <point x="261" y="517"/>
      <point x="261" y="490" type="curve" smooth="yes"/>
      <point x="261" y="465"/>
      <point x="282" y="444"/>
      <point x="327" y="403" type="curve" smooth="yes"/>
      <point x="456" y="293" type="line"/>
      <point x="473" y="337"/>
      <point x="484" y="384"/>
      <point x="489" y="421" type="curve"/>
      <point x="649" y="357" type="line"/>
      <point x="642" y="296"/>
      <point x="622" y="233"/>
      <point x="593" y="177" type="curve"/>
      <point x="669" y="113" type="line"/>
      <point x="562" y="-19" type="line"/>
      <point x="488" y="45" type="line"/>
      <point x="436" y="4"/>
      <point x="373" y="-24"/>
      <point x="305" y="-24" type="curve" smooth="yes"/>
      <point x="154" y="-24"/>
      <point x="30" y="53"/>
      <point x="30" y="212" type="curve" smooth="yes"/>
      <point x="30" y="275"/>
      <point x="64" y="342"/>
      <point x="116" y="387" type="curve"/>
      <point x="95" y="419"/>
      <point x="83" y="452"/>
      <point x="83" y="493" type="curve" smooth="yes"/>
      <point x="83" y="601"/>
      <point x="176" y="696"/>
      <point x="309" y="696" type="curve" smooth="yes"/>
      <point x="386" y="696"/>
      <point x="454" y="676"/>
    </contour>
    <contour>
      <point x="368" y="150" type="curve"/>
      <point x="230" y="270" type="line"/>
      <point x="222" y="254"/>
      <point x="218" y="235"/>
      <point x="218" y="218" type="curve" smooth="yes"/>
      <point x="218" y="162"/>
      <point x="250" y="126"/>
      <point x="309" y="126" type="curve" smooth="yes"/>
      <point x="330" y="126"/>
      <point x="349" y="135"/>
    </contour>
  </outline>
</glyph>
<glyph name="quotesingle" format="2">
  <advance width="243"/>
  <unicode hex="0027"/>
  <outline>
    <contour>
      <point x="121" y="742" type="curve" smooth="yes"/>
      <point x="172" y="742"/>
      <point x="213" y="699"/>
      <point x="213" y="635" type="curve" smooth="yes"/>
      <point x="213" y="556"/>
      <point x="144" y="474"/>
      <point x="56" y="441" type="curve"/>
      <point x="20" y="521" type="line"/>
      <point x="39" y="532"/>
      <point x="67" y="555"/>
      <point x="72" y="572" type="curve"/>
      <point x="48" y="587"/>
      <point x="29" y="617"/>
      <point x="29" y="650" type="curve" smooth="yes"/>
      <point x="29" y="695"/>
      <point x="69" y="742"/>
    </contour>
  </outline>
</glyph>
<glyph name="asterisk" format="2">
  <advance width="424"/>
  <unicode hex="002A"/>
  <outline>
    <contour>
      <point x="285" y="782" type="line"/>
      <point x="285" y="686" type="line"/>
      <point x="380" y="714" type="line"/>
      <point x="414" y="585" type="line"/>
      <point x="320" y="568" type="line"/>
      <point x="392" y="477" type="line"/>
      <point x="275" y="403" type="line"/>
      <point x="212" y="496" type="line"/>
      <point x="149" y="403" type="line"/>
      <point x="32" y="477" type="line"/>
      <point x="104" y="568" type="line"/>
      <point x="10" y="585" type="line"/>
      <point x="44" y="714" type="line"/>
      <point x="141" y="686" type="line"/>
      <point x="141" y="782" type="line"/>
    </contour>
  </outline>
</glyph>
<glyph name="plus" format="2">
  <advance width="583"/>
  <unicode hex="002B"/>
  <outline>
    <contour>
      <point x="543" y="345" type="line"/>
      <point x="553" y="202" type="line"/>
      <point x="376" y="202" type="line"/>
      <point x="376" y="0" type="line"/>
      <point x="208" y="8" type="line"/>
      <point x="208" y="202" type="line"/>
      <point x="41" y="202" type="line"/>
      <point x="30" y="345" type="line"/>
      <point x="208" y="345" type="line"/>
      <point x="208" y="530" type="line"/>
      <point x="376" y="530" type="line"/>
      <point x="376" y="345" type="line"/>
    </contour>
  </outline>
</glyph>
<glyph name="hyphen" format="2">
  <advance width="352"/>
  <unicode hex="002D"/>
  <outline>
    <contour>
      <point x="312" y="345" type="line"/>
      <point x="322" y="202" type="line"/>
      <point x="41" y="202" type="line"/>
      <point x="30" y="345" type="line"/>
    </contour>
  </outline>
</glyph>
<glyph name="zero" format="2">
  <advance width="678"/>
  <unicode hex="0030"/>
  <outline>
    <contour>
      <point x="20" y="284" type="curve" smooth="yes"/>
      <point x="20" y="455"/>
      <point x="154" y="579"/>
      <point x="339" y="579" type="curve" smooth="yes"/>
      <point x="524" y="579"/>
      <point x="658" y="456"/>
      <point x="658" y="286" type="curve" smooth="yes"/>
      <point x="658" y="112"/>
      <point x="524" y="-14"/>
      <point x="338" y="-14" type="curve" smooth="yes"/>
      <point x="154" y="-14"/>
      <point x="20" y="111"/>
    </contour>
    <contour>
      <point x="208" y="287" type="curve" smooth="yes"/>
      <point x="208" y="198"/>
      <point x="263" y="134"/>
      <point x="339" y="134" type="curve" smooth="yes"/>
      <point x="415" y="134"/>
      <point x="470" y="197"/>
      <point x="470" y="283" type="curve" smooth="yes"/>
      <point x="470" y="369"/>
      <point x="415" y="431"/>
      <point x="338" y="431" type="curve" smooth="yes"/>
      <point x="263" y="431"/>
      <point x="208" y="371"/>
    </contour>
  </outline>
</glyph>
<glyph name="one" format="2">
  <advance width="439"/>
  <unicode hex="0031"/>
  <outline>
    <contour>
      <point x="379" y="0" type="line"/>
      <point x="197" y="0" type="line"/>
      <point x="197" y="363" type="line"/>
      <point x="81" y="313" type="line"/>
      <point x="10" y="459" type="line"/>
      <point x="258" y="566" type="line"/>
      <point x="379" y="566" type="line"/>
    </contour>
  </outline>
</glyph>
<glyph name="two" format="2">
  <advance width="497"/>
  <unicode hex="0032"/>
  <outline>
    <contour>
      <point x="231" y="579" type="curve" smooth="yes"/>
      <point x="372" y="579"/>
      <point x="470" y="529"/>
      <point x="470" y="403" type="curve" smooth="yes"/>
      <point x="470" y="320"/>
      <point x="416" y="256"/>
      <point x="324" y="178" type="curve" smooth="yes"/>
      <point x="283" y="143" type="line"/>
      <point x="465" y="143" type="line"/>
      <point x="477" y="0" type="line"/>
      <point x="25" y="0" type="line"/>
      <point x="25" y="106" type="line"/>
      <point x="214" y="270" type="line" smooth="yes"/>
      <point x="257" y="308"/>
      <point x="308" y="343"/>
      <point x="308" y="382" type="curve" smooth="yes"/>
      <point x="308" y="415"/>
      <point x="275" y="430"/>
      <point x="225" y="430" type="curve" smooth="yes"/>
      <point x="165" y="430"/>
      <point x="96" y="399"/>
      <point x="61" y="379" type="curve"/>
      <point x="38" y="527" type="line"/>
      <point x="75" y="549"/>
      <point x="142" y="579"/>
    </contour>
  </outline>
</glyph>
<glyph name="three" format="2">
  <advance width="536"/>
  <unicode hex="0033"/>
  <outline>
    <contour>
      <point x="255" y="579" type="curve" smooth="yes"/>
      <point x="402" y="579"/>
      <point x="500" y="507"/>
      <point x="500" y="402" type="curve" smooth="yes"/>
      <point x="500" y="354"/>
      <point x="461" y="291"/>
      <point x="425" y="272" type="curve"/>
      <point x="472" y="244"/>
      <point x="511" y="180"/>
      <point x="511" y="121" type="curve" smooth="yes"/>
      <point x="511" y="4"/>
      <point x="404" y="-78"/>
      <point x="243" y="-78" type="curve" smooth="yes"/>
      <point x="170" y="-78"/>
      <point x="76" y="-51"/>
      <point x="0" y="-2" type="curve"/>
      <point x="97" y="119" type="line"/>
      <point x="154" y="83"/>
      <point x="197" y="69"/>
      <point x="244" y="69" type="curve" smooth="yes"/>
      <point x="289" y="69"/>
      <point x="323" y="91"/>
      <point x="323" y="126" type="curve" smooth="yes"/>
      <point x="323" y="165"/>
      <point x="294" y="187"/>
      <point x="254" y="187" type="curve" smooth="yes"/>
      <point x="151" y="187" type="line"/>
      <point x="136" y="330" type="line"/>
      <point x="218" y="330" type="line" smooth="yes"/>
      <point x="275" y="330"/>
      <point x="312" y="353"/>
      <point x="312" y="386" type="curve" smooth="yes"/>
      <point x="312" y="411"/>
      <point x="289" y="431"/>
      <point x="237" y="431" type="curve" smooth="yes"/>
      <point x="200" y="431"/>
      <point x="155" y="414"/>
      <point x="108" y="382" type="curve"/>
      <point x="21" y="505" type="line"/>
      <point x="92" y="561"/>
      <point x="176" y="579"/>
    </contour>
  </outline>
</glyph>
<glyph name="four" format="2">
  <advance width="611"/>
  <unicode hex="0034"/>
  <outline>
    <contour>
      <point x="591" y="197" type="line"/>
      <point x="582" y="54" type="line"/>
      <point x="491" y="54" type="line"/>
      <point x="491" y="-63" type="line"/>
      <point x="309" y="-63" type="line"/>
      <point x="309" y="54" type="line"/>
      <point x="31" y="54" type="line"/>
      <point x="10" y="187" type="line"/>
      <point x="355" y="571" type="line"/>
      <point x="491" y="571" type="line"/>
      <point x="491" y="197" type="line"/>
    </contour>
    <contour>
      <point x="309" y="297" type="line"/>
      <point x="224" y="197" type="line"/>
      <point x="309" y="197" type="line"/>
    </contour>
  </outline>
</glyph>
<glyph name="five" format="2">
  <advance width="533"/>
  <unicode hex="0035"/>
  <outline>
    <contour>
      <point x="224" y="180" type="curve"/>
      <point x="71" y="180" type="line"/>
      <point x="90" y="566" type="line"/>
      <point x="484" y="566" type="line"/>
      <point x="466" y="423" type="line"/>
      <point x="243" y="423" type="line"/>
      <point x="243" y="358" type="line"/>
      <point x="259" y="367"/>
      <point x="277" y="374"/>
      <point x="305" y="374" type="curve" smooth="yes"/>
      <point x="440" y="374"/>
      <point x="513" y="271"/>
      <point x="513" y="154" type="curve" smooth="yes"/>
      <point x="513" y="18"/>
      <point x="416" y="-79"/>
      <point x="259" y="-79" type="curve" smooth="yes"/>
      <point x="187" y="-79"/>
      <point x="87" y="-50"/>
      <point x="20" y="-3" type="curve"/>
      <point x="111" y="126" type="line"/>
      <point x="171" y="93"/>
      <point x="213" y="76"/>
      <point x="262" y="76" type="curve" smooth="yes"/>
      <point x="311" y="76"/>
      <point x="349" y="106"/>
      <point x="349" y="154" type="curve" smooth="yes"/>
      <point x="349" y="197"/>
      <point x="322" y="223"/>
      <point x="285" y="223" type="curve" smooth="yes"/>
      <point x="254" y="223"/>
      <point x="232" y="200"/>
    </contour>
  </outline>
</glyph>
<glyph name="six" format="2">
  <advance width="585"/>
  <unicode hex="0036"/>
  <outline>
    <contour>
      <point x="114" y="294" type="line"/>
      <point x="172" y="350"/>
      <point x="248" y="398"/>
      <point x="319" y="398" type="curve" smooth="yes"/>
      <point x="463" y="398"/>
      <point x="565" y="315"/>
      <point x="565" y="195" type="curve" smooth="yes"/>
      <point x="565" y="74"/>
      <point x="469" y="-13"/>
      <point x="312" y="-13" type="curve" smooth="yes"/>
      <point x="139" y="-13"/>
      <point x="20" y="98"/>
      <point x="20" y="252" type="curve" smooth="yes"/>
      <point x="20" y="557"/>
      <point x="319" y="623"/>
      <point x="480" y="634" type="curve"/>
      <point x="498" y="467" type="line"/>
      <point x="398" y="452"/>
      <point x="211" y="451"/>
      <point x="211" y="261" type="curve" smooth="yes"/>
      <point x="211" y="187"/>
      <point x="247" y="134"/>
      <point x="307" y="134" type="curve" smooth="yes"/>
      <point x="343" y="134"/>
      <point x="377" y="166"/>
      <point x="377" y="209" type="curve" smooth="yes"/>
      <point x="377" y="250"/>
      <point x="342" y="280"/>
      <point x="295" y="280" type="curve" smooth="yes"/>
      <point x="239" y="280"/>
      <point x="186" y="232"/>
      <point x="139" y="181" type="curve"/>
    </contour>
  </outline>
</glyph>
<glyph name="seven" format="2">
  <advance width="518"/>
  <unicode hex="0037"/>
  <outline>
    <contour>
      <point x="289" y="-77" type="line"/>
      <point x="108" y="-30" type="line"/>
      <point x="299" y="423" type="line"/>
      <point x="27" y="423" type="line"/>
      <point x="10" y="566" type="line"/>
      <point x="464" y="566" type="line"/>
      <point x="498" y="494" type="line"/>
    </contour>
  </outline>
</glyph>
<glyph name="eight" format="2">
  <advance width="572"/>
  <unicode hex="0038"/>
  <outline>
    <contour>
      <point x="287" y="643" type="curve" smooth="yes"/>
      <point x="419" y="643"/>
      <point x="530" y="570"/>
      <point x="530" y="457" type="curve" smooth="yes"/>
      <point x="530" y="412"/>
      <point x="503" y="368"/>
      <point x="470" y="340" type="curve"/>
      <point x="515" y="308"/>
      <point x="552" y="254"/>
      <point x="552" y="197" type="curve" smooth="yes"/>
      <point x="552" y="73"/>
      <point x="454" y="-13"/>
      <point x="287" y="-13" type="curve" smooth="yes"/>
      <point x="126" y="-13"/>
      <point x="20" y="65"/>
      <point x="20" y="197" type="curve" smooth="yes"/>
      <point x="20" y="254"/>
      <point x="58" y="309"/>
      <point x="103" y="341" type="curve"/>
      <point x="71" y="369"/>
      <point x="42" y="412"/>
      <point x="42" y="457" type="curve" smooth="yes"/>
      <point x="42" y="570"/>
      <point x="152" y="643"/>
    </contour>
    <contour>
      <point x="285" y="494" type="curve" smooth="yes"/>
      <point x="248" y="494"/>
      <point x="231" y="465"/>
      <point x="231" y="446" type="curve" smooth="yes"/>
      <point x="231" y="422"/>
      <point x="250" y="394"/>
      <point x="287" y="389" type="curve"/>
      <point x="322" y="394"/>
      <point x="341" y="422"/>
      <point x="341" y="447" type="curve" smooth="yes"/>
      <point x="341" y="466"/>
      <point x="325" y="494"/>
    </contour>
    <contour>
      <point x="287" y="283" type="curve"/>
      <point x="234" y="274"/>
      <point x="208" y="234"/>
      <point x="208" y="205" type="curve" smooth="yes"/>
      <point x="208" y="169"/>
      <point x="246" y="135"/>
      <point x="286" y="135" type="curve" smooth="yes"/>
      <point x="325" y="135"/>
      <point x="365" y="169"/>
      <point x="365" y="205" type="curve" smooth="yes"/>
      <point x="365" y="234"/>
      <point x="336" y="274"/>
    </contour>
  </outline>
</glyph>
<glyph name="nine" format="2">
  <advance width="585"/>
  <unicode hex="0039"/>
  <outline>
    <contour>
      <point x="471" y="272" type="line"/>
      <point x="413" y="216"/>
      <point x="337" y="168"/>
      <point x="266" y="168" type="curve" smooth="yes"/>
      <point x="122" y="168"/>
      <point x="20" y="251"/>
      <point x="20" y="371" type="curve" smooth="yes"/>
      <point x="20" y="492"/>
      <point x="116" y="579"/>
      <point x="273" y="579" type="curve" smooth="yes"/>
      <point x="446" y="579"/>
      <point x="565" y="468"/>
      <point x="565" y="314" type="curve" smooth="yes"/>
      <point x="565" y="9"/>
      <point x="266" y="-57"/>
      <point x="105" y="-68" type="curve"/>
      <point x="87" y="99" type="line"/>
      <point x="187" y="114"/>
      <point x="374" y="115"/>
      <point x="374" y="305" type="curve" smooth="yes"/>
      <point x="374" y="379"/>
      <point x="338" y="432"/>
      <point x="278" y="432" type="curve" smooth="yes"/>
      <point x="242" y="432"/>
      <point x="208" y="400"/>
      <point x="208" y="357" type="curve" smooth="yes"/>
      <point x="208" y="316"/>
      <point x="243" y="286"/>
      <point x="290" y="286" type="curve" smooth="yes"/>
      <point x="346" y="286"/>
      <point x="399" y="334"/>
      <point x="446" y="385" type="curve"/>
    </contour>
  </outline>
</glyph>
<glyph name="colon" format="2">
  <advance width="243"/>
  <unicode hex="003A"/>
  <outline>
    <contour>
      <point x="122" y="293" type="curve" smooth="yes"/>
      <point x="70" y="293"/>
      <point x="30" y="332"/>
      <point x="30" y="384" type="curve" smooth="yes"/>
      <point x="30" y="436"/>
      <point x="70" y="476"/>
      <point x="122" y="476" type="curve" smooth="yes"/>
      <point x="173" y="476"/>
      <point x="213" y="436"/>
      <point x="213" y="384" type="curve" smooth="yes"/>
      <point x="213" y="332"/>
      <point x="173" y="293"/>
    </contour>
    <contour>
      <point x="122" y="0" type="curve" smooth="yes"/>
      <point x="70" y="0"/>
      <point x="30" y="39"/>
      <point x="30" y="91" type="curve" smooth="yes"/>
      <point x="30" y="143"/>
      <point x="70" y="183"/>
      <point x="122" y="183" type="curve" smooth="yes"/>
      <point x="173" y="183"/>
      <point x="213" y="143"/>
      <point x="213" y="91" type="curve" smooth="yes"/>
      <point x="213" y="39"/>
      <point x="173" y="0"/>
    </contour>
  </outline>
</glyph>
<glyph name="semicolon" format="2">
  <advance width="244"/>
  <unicode hex="003B"/>
  <outline>
    <contour>
      <point x="123" y="476" type="curve" smooth="yes"/>
      <point x="174" y="476"/>
      <point x="214" y="436"/>
      <point x="214" y="384" type="curve" smooth="yes"/>
      <point x="214" y="332"/>
      <point x="174" y="293"/>
      <point x="123" y="293" type="curve" smooth="yes"/>
      <point x="71" y="293"/>
      <point x="31" y="332"/>
      <point x="31" y="384" type="curve" smooth="yes"/>
      <point x="31" y="436"/>
      <point x="71" y="476"/>
    </contour>
    <contour>
      <point x="121" y="183" type="curve" smooth="yes"/>
      <point x="172" y="183"/>
      <point x="213" y="140"/>
      <point x="213" y="76" type="curve" smooth="yes"/>
      <point x="213" y="-3"/>
      <point x="144" y="-85"/>
      <point x="56" y="-118" type="curve"/>
      <point x="20" y="-38" type="line"/>
      <point x="39" y="-27"/>
      <point x="67" y="-4"/>
      <point x="72" y="13" type="curve"/>
      <point x="48" y="28"/>
      <point x="29" y="58"/>
      <point x="29" y="91" type="curve" smooth="yes"/>
      <point x="29" y="136"/>
      <point x="69" y="183"/>
    </contour>
  </outline>
</glyph>
<glyph name="less" format="2">
  <advance width="382"/>
  <unicode hex="003C"/>
  <outline>
    <contour>
      <point x="362" y="157" type="line"/>
      <point x="329" y="-2" type="line"/>
      <point x="30" y="212" type="line"/>
      <point x="30" y="293" type="line"/>
      <point x="329" y="505" type="line"/>
      <point x="362" y="348" type="line"/>
      <point x="227" y="253" type="line"/>
    </contour>
  </outline>
</glyph>
<glyph name="equal" format="2">
  <advance width="543"/>
  <unicode hex="003D"/>
  <outline>
    <contour>
      <point x="503" y="426" type="line"/>
      <point x="513" y="293" type="line"/>
      <point x="41" y="293" type="line"/>
      <point x="30" y="426" type="line"/>
    </contour>
    <contour>
      <point x="503" y="215" type="line"/>
      <point x="513" y="82" type="line"/>
      <point x="41" y="82" type="line"/>
      <point x="30" y="215" type="line"/>
    </contour>
  </outline>
</glyph>
<glyph name="greater" format="2">
  <advance width="382"/>
  <unicode hex="003E"/>
  <outline>
    <contour>
      <point x="352" y="291" type="line"/>
      <point x="352" y="210" type="line"/>
      <point x="53" y="-2" type="line"/>
      <point x="20" y="155" type="line"/>
      <point x="155" y="250" type="line"/>
      <point x="20" y="346" type="line"/>
      <point x="53" y="505" type="line"/>
    </contour>
  </outline>
</glyph>
<glyph name="question" format="2">
  <advance width="467"/>
  <unicode hex="003F"/>
  <outline>
    <contour>
      <point x="201" y="701" type="curve" smooth="yes"/>
      <point x="341" y="701"/>
      <point x="437" y="624"/>
      <point x="437" y="509" type="curve" smooth="yes"/>
      <point x="437" y="428"/>
      <point x="387" y="364"/>
      <point x="260" y="319" type="curve"/>
      <point x="248" y="204" type="line"/>
      <point x="105" y="243" type="line"/>
      <point x="98" y="402" type="line"/>
      <point x="186" y="430"/>
      <point x="249" y="476"/>
      <point x="249" y="512" type="curve" smooth="yes"/>
      <point x="249" y="537"/>
      <point x="227" y="553"/>
      <point x="198" y="553" type="curve" smooth="yes"/>
      <point x="165" y="553"/>
      <point x="113" y="545"/>
      <point x="33" y="500" type="curve"/>
      <point x="10" y="649" type="line"/>
      <point x="78" y="688"/>
      <point x="142" y="701"/>
    </contour>
    <contour>
      <point x="167" y="183" type="curve" smooth="yes"/>
      <point x="218" y="183"/>
      <point x="258" y="143"/>
      <point x="258" y="91" type="curve" smooth="yes"/>
      <point x="258" y="39"/>
      <point x="218" y="0"/>
      <point x="167" y="0" type="curve" smooth="yes"/>
      <point x="115" y="0"/>
      <point x="75" y="39"/>
      <point x="75" y="91" type="curve" smooth="yes"/>
      <point x="75" y="143"/>
      <point x="115" y="183"/>
    </contour>
  </outline>
</glyph>
<glyph name="at" format="2">
  <advance width="812"/>
  <unicode hex="0040"/>
  <outline>
    <contour>
      <point x="589" y="383" type="line"/>
      <point x="566" y="200" type="line" smooth="yes"/>
      <point x="565" y="193"/>
      <point x="567" y="191"/>
      <point x="571" y="191" type="curve" smooth="yes"/>
      <point x="589" y="191"/>
      <point x="643" y="233"/>
      <point x="643" y="304" type="curve" smooth="yes"/>
      <point x="643" y="400"/>
      <point x="583" y="494"/>
      <point x="439" y="494" type="curve" smooth="yes"/>
      <point x="288" y="494"/>
      <point x="179" y="390"/>
      <point x="179" y="231" type="curve" smooth="yes"/>
      <point x="179" y="88"/>
      <point x="295" y="16"/>
      <point x="423" y="16" type="curve" smooth="yes"/>
      <point x="455" y="16"/>
      <point x="545" y="22"/>
      <point x="590" y="39" type="curve"/>
      <point x="634" y="-62" type="line"/>
      <point x="550" y="-106"/>
      <point x="479" y="-111"/>
      <point x="414" y="-111" type="curve" smooth="yes"/>
      <point x="206" y="-111"/>
      <point x="20" y="9"/>
      <point x="20" y="238" type="curve" smooth="yes"/>
      <point x="20" y="441"/>
      <point x="170" y="630"/>
      <point x="433" y="630" type="curve" smooth="yes"/>
      <point x="638" y="630"/>
      <point x="792" y="482"/>
      <point x="792" y="309" type="curve" smooth="yes"/>
      <point x="792" y="145"/>
      <point x="665" y="54"/>
      <point x="557" y="54" type="curve" smooth="yes"/>
      <point x="532" y="54"/>
      <point x="506" y="60"/>
      <point x="487" y="76" type="curve"/>
      <point x="463" y="64"/>
      <point x="437" y="57"/>
      <point x="408" y="57" type="curve" smooth="yes"/>
      <point x="280" y="57"/>
      <point x="221" y="128"/>
      <point x="221" y="229" type="curve" smooth="yes"/>
      <point x="221" y="399"/>
      <point x="355" y="444"/>
      <point x="459" y="444" type="curve" smooth="yes"/>
      <point x="548" y="444" type="line"/>
    </contour>
    <contour>
      <point x="440" y="325" type="line"/>
      <point x="389" y="325"/>
      <point x="367" y="286"/>
      <point x="367" y="237" type="curve" smooth="yes"/>
      <point x="367" y="220"/>
      <point x="378" y="199"/>
      <point x="406" y="199" type="curve" smooth="yes"/>
      <point x="418" y="199"/>
      <point x="426" y="212"/>
      <point x="427" y="225" type="curve" smooth="yes"/>
    </contour>
  </outline>
</glyph>
<glyph name="A" format="2">
  <advance width="711"/>
  <unicode hex="0041"/>
  <anchor x="627" y="4" name="bottom"/>
  <anchor x="360" y="680" name="topU"/>
  <outline>
    <contour>
      <point x="421" y="277" type="line"/>
      <point x="353" y="462" type="line"/>
      <point x="288" y="277" type="line"/>
    </contour>
    <contour>
      <point x="265" y="680" type="line"/>
      <point x="447" y="680" type="line"/>
      <point x="701" y="8" type="line"/>
      <point x="522" y="-10" type="line"/>
      <point x="473" y="134" type="line"/>
      <point x="238" y="134" type="line"/>
      <point x="191" y="0" type="line"/>
      <point x="10" y="0" type="line"/>
    </contour>
  </outline>
</glyph>
<glyph name="B" format="2">
  <advance width="645"/>
  <unicode hex="0042"/>
  <outline>
    <contour>
      <point x="337" y="0" type="curve" smooth="yes"/>
      <point x="80" y="0" type="line"/>
      <point x="80" y="680" type="line"/>
      <point x="317" y="680" type="line" smooth="yes"/>
      <point x="466" y="680"/>
      <point x="597" y="623"/>
      <point x="597" y="484" type="curve" smooth="yes"/>
      <point x="597" y="431"/>
      <point x="565" y="392"/>
      <point x="534" y="361" type="curve"/>
      <point x="587" y="324"/>
      <point x="625" y="268"/>
      <point x="625" y="203" type="curve" smooth="yes"/>
      <point x="625" y="47"/>
      <point x="484" y="0"/>
    </contour>
    <contour>
      <point x="311" y="537" type="curve" smooth="yes"/>
      <point x="262" y="537" type="line"/>
      <point x="262" y="422" type="line"/>
      <point x="303" y="422" type="line" smooth="yes"/>
      <point x="359" y="422"/>
      <point x="409" y="439"/>
      <point x="409" y="475" type="curve" smooth="yes"/>
      <point x="409" y="516"/>
      <point x="372" y="537"/>
    </contour>
    <contour>
      <point x="339" y="279" type="curve" smooth="yes"/>
      <point x="262" y="279" type="line"/>
      <point x="262" y="143" type="line"/>
      <point x="341" y="143" type="line" smooth="yes"/>
      <point x="397" y="143"/>
      <point x="437" y="164"/>
      <point x="437" y="207" type="curve" smooth="yes"/>
      <point x="437" y="252"/>
      <point x="400" y="279"/>
    </contour>
  </outline>
</glyph>
<glyph name="C" format="2">
  <advance width="596"/>
  <unicode hex="0043"/>
  <anchor x="383" y="0" name="bottom"/>
  <anchor x="380" y="680" name="topU"/>
  <outline>
    <contour>
      <point x="579" y="637" type="curve"/>
      <point x="525" y="514" type="line"/>
      <point x="453" y="539"/>
      <point x="426" y="544"/>
      <point x="381" y="544" type="curve" smooth="yes"/>
      <point x="300" y="544"/>
      <point x="218" y="462"/>
      <point x="218" y="338" type="curve" smooth="yes"/>
      <point x="218" y="210"/>
      <point x="303" y="136"/>
      <point x="388" y="136" type="curve" smooth="yes"/>
      <point x="437" y="136"/>
      <point x="482" y="152"/>
      <point x="517" y="173" type="curve"/>
      <point x="586" y="37" type="line"/>
      <point x="533" y="5"/>
      <point x="452" y="-13"/>
      <point x="383" y="-13" type="curve" smooth="yes"/>
      <point x="162" y="-13"/>
      <point x="30" y="132"/>
      <point x="30" y="337" type="curve" smooth="yes"/>
      <point x="30" y="546"/>
      <point x="178" y="693"/>
      <point x="379" y="693" type="curve" smooth="yes"/>
      <point x="447" y="693"/>
      <point x="526" y="673"/>
    </contour>
  </outline>
</glyph>
<glyph name="E" format="2">
  <advance width="598"/>
  <unicode hex="0045"/>
  <anchor x="416" y="0" name="bottom"/>
  <anchor x="336" y="680" name="topU"/>
  <outline>
    <contour>
      <point x="578" y="0" type="line"/>
      <point x="80" y="0" type="line"/>
      <point x="80" y="680" type="line"/>
      <point x="531" y="680" type="line"/>
      <point x="548" y="537" type="line"/>
      <point x="262" y="537" type="line"/>
      <point x="262" y="413" type="line"/>
      <point x="471" y="413" type="line"/>
      <point x="488" y="270" type="line"/>
      <point x="262" y="270" type="line"/>
      <point x="262" y="143" type="line"/>
      <point x="561" y="143" type="line"/>
    </contour>
  </outline>
</glyph>
<glyph name="F" format="2">
  <advance width="558"/>
  <unicode hex="0046"/>
  <outline>
    <contour>
      <point x="471" y="400" type="line"/>
      <point x="488" y="257" type="line"/>
      <point x="262" y="257" type="line"/>
      <point x="262" y="0" type="line"/>
      <point x="80" y="0" type="line"/>
      <point x="80" y="679" type="line"/>
      <point x="521" y="679" type="line"/>
      <point x="538" y="536" type="line"/>
      <point x="262" y="536" type="line"/>
      <point x="262" y="400" type="line"/>
    </contour>
  </outline>
</glyph>
<glyph name="G" format="2">
  <advance width="666"/>
  <unicode hex="0047"/>
  <anchor x="393" y="0" name="bottom"/>
  <anchor x="398" y="680" name="topU"/>
  <outline>
    <contour>
      <point x="345" y="259" type="line"/>
      <point x="361" y="392" type="line"/>
      <point x="626" y="392" type="line"/>
      <point x="626" y="37" type="line"/>
      <point x="573" y="5"/>
      <point x="462" y="-13"/>
      <point x="393" y="-13" type="curve" smooth="yes"/>
      <point x="172" y="-13"/>
      <point x="30" y="116"/>
      <point x="30" y="337" type="curve" smooth="yes"/>
      <point x="30" y="560"/>
      <point x="198" y="693"/>
      <point x="399" y="693" type="curve" smooth="yes"/>
      <point x="467" y="693"/>
      <point x="566" y="673"/>
      <point x="619" y="637" type="curve"/>
      <point x="565" y="514" type="line"/>
      <point x="493" y="539"/>
      <point x="446" y="544"/>
      <point x="401" y="544" type="curve" smooth="yes"/>
      <point x="320" y="544"/>
      <point x="218" y="477"/>
      <point x="218" y="338" type="curve" smooth="yes"/>
      <point x="218" y="191"/>
      <point x="313" y="136"/>
      <point x="398" y="136" type="curve" smooth="yes"/>
      <point x="417" y="136"/>
      <point x="439" y="138"/>
      <point x="462" y="142" type="curve"/>
      <point x="462" y="259" type="line"/>
    </contour>
  </outline>
</glyph>
<glyph name="H" format="2">
  <advance width="762"/>
  <unicode hex="0048"/>
  <outline>
    <contour>
      <point x="682" y="0" type="line"/>
      <point x="500" y="0" type="line"/>
      <point x="500" y="266" type="line"/>
      <point x="262" y="266" type="line"/>
      <point x="262" y="0" type="line"/>
      <point x="80" y="0" type="line"/>
      <point x="80" y="680" type="line"/>
      <point x="262" y="686" type="line"/>
      <point x="262" y="409" type="line"/>
      <point x="500" y="409" type="line"/>
      <point x="500" y="680" type="line"/>
      <point x="682" y="680" type="line"/>
    </contour>
  </outline>
</glyph>
<glyph name="I" format="2">
  <advance width="342"/>
  <unicode hex="0049"/>
  <anchor x="157" y="0" name="bottom"/>
  <anchor x="175" y="680" name="topU"/>
  <outline>
    <contour>
      <point x="262" y="0" type="line"/>
      <point x="80" y="0" type="line"/>
      <point x="80" y="680" type="line"/>
      <point x="262" y="680" type="line"/>
    </contour>
  </outline>
</glyph>
<glyph name="J" format="2">
  <advance width="345"/>
  <unicode hex="004A"/>
  <outline>
    <contour>
      <point x="93" y="137" type="curve" smooth="yes"/>
      <point x="93" y="680" type="line"/>
      <point x="275" y="680" type="line"/>
      <point x="275" y="84" type="line" smooth="yes"/>
      <point x="275" y="-17"/>
      <point x="225" y="-61"/>
      <point x="84" y="-106" type="curve"/>
      <point x="10" y="38" type="line"/>
      <point x="83" y="67"/>
      <point x="93" y="101"/>
    </contour>
  </outline>
</glyph>
<glyph name="K" format="2">
  <advance width="730"/>
  <unicode hex="004B"/>
  <anchor x="376" y="0" name="bottom"/>
  <outline>
    <contour>
      <point x="489" y="0" type="line"/>
      <point x="720" y="0" type="line"/>
      <point x="445" y="377" type="line"/>
      <point x="676" y="593" type="line"/>
      <point x="535" y="695" type="line"/>
      <point x="262" y="444" type="line"/>
      <point x="262" y="680" type="line"/>
      <point x="80" y="680" type="line"/>
      <point x="80" y="0" type="line"/>
      <point x="262" y="0" type="line"/>
      <point x="262" y="204" type="line"/>
      <point x="315" y="254" type="line"/>
    </contour>
  </outline>
</glyph>
<glyph name="L" format="2">
  <advance width="578"/>
  <unicode hex="004C"/>
  <anchor x="333" y="0" name="bottom"/>
  <anchor x="262" y="680" name="topU"/>
  <outline>
    <contour>
      <point x="551" y="143" type="line"/>
      <point x="568" y="0" type="line"/>
      <point x="80" y="0" type="line"/>
      <point x="80" y="680" type="line"/>
      <point x="262" y="680" type="line"/>
      <point x="262" y="143" type="line"/>
    </contour>
  </outline>
</glyph>
<glyph name="M" format="2">
  <advance width="799"/>
  <unicode hex="004D"/>
  <outline>
    <contour>
      <point x="445" y="205" type="line"/>
      <point x="372" y="195" type="line"/>
      <point x="262" y="329" type="line"/>
      <point x="262" y="0" type="line"/>
      <point x="80" y="0" type="line"/>
      <point x="80" y="680" type="line"/>
      <point x="205" y="680" type="line"/>
      <point x="410" y="421" type="line"/>
      <point x="598" y="680" type="line"/>
      <point x="719" y="680" type="line"/>
      <point x="719" y="0" type="line"/>
      <point x="537" y="0" type="line"/>
      <point x="537" y="329" type="line"/>
    </contour>
  </outline>
</glyph>
<glyph name="N" format="2">
  <advance width="773"/>
  <unicode hex="004E"/>
  <anchor x="394" y="0" name="bottom"/>
  <anchor x="382" y="680" name="topU"/>
  <outline>
    <contour>
      <point x="262" y="0" type="line"/>
      <point x="80" y="0" type="line"/>
      <point x="80" y="680" type="line"/>
      <point x="249" y="680" type="line"/>
      <point x="462" y="380" type="line"/>
      <point x="514" y="311" type="line"/>
      <point x="511" y="680" type="line"/>
      <point x="693" y="680" type="line"/>
      <point x="693" y="0" type="line"/>
      <point x="523" y="0" type="line"/>
      <point x="313" y="288" type="line"/>
      <point x="262" y="358" type="line"/>
    </contour>
  </outline>
</glyph>
<glyph name="O" format="2">
  <advance width="763"/>
  <unicode hex="004F"/>
  <anchor x="381" y="680" name="topU"/>
  <outline>
    <contour>
      <point x="381" y="694" type="curve" smooth="yes"/>
      <point x="602" y="694"/>
      <point x="733" y="539"/>
      <point x="733" y="344" type="curve" smooth="yes"/>
      <point x="733" y="133"/>
      <point x="589" y="-14"/>
      <point x="381" y="-14" type="curve" smooth="yes"/>
      <point x="164" y="-14"/>
      <point x="30" y="142"/>
      <point x="30" y="337" type="curve" smooth="yes"/>
      <point x="30" y="546"/>
      <point x="177" y="694"/>
    </contour>
    <contour>
      <point x="217" y="338" type="curve" smooth="yes"/>
      <point x="217" y="223"/>
      <point x="277" y="138"/>
      <point x="380" y="138" type="curve" smooth="yes"/>
      <point x="473" y="138"/>
      <point x="546" y="207"/>
      <point x="546" y="344" type="curve" smooth="yes"/>
      <point x="546" y="457"/>
      <point x="484" y="542"/>
      <point x="383" y="542" type="curve" smooth="yes"/>
      <point x="292" y="542"/>
      <point x="217" y="461"/>
    </contour>
  </outline>
</glyph>
<glyph name="P" format="2">
  <advance width="666"/>
  <unicode hex="0050"/>
  <outline>
    <contour>
      <point x="262" y="0" type="line"/>
      <point x="80" y="0" type="line"/>
      <point x="80" y="680" type="line"/>
      <point x="366" y="680" type="line" smooth="yes"/>
      <point x="517" y="680"/>
      <point x="646" y="599"/>
      <point x="646" y="435" type="curve" smooth="yes"/>
      <point x="646" y="272"/>
      <point x="505" y="198"/>
      <point x="358" y="198" type="curve" smooth="yes"/>
      <point x="262" y="198" type="line"/>
    </contour>
    <contour>
      <point x="360" y="537" type="curve" smooth="yes"/>
      <point x="262" y="537" type="line"/>
      <point x="262" y="341" type="line"/>
      <point x="362" y="341" type="line" smooth="yes"/>
      <point x="418" y="341"/>
      <point x="458" y="382"/>
      <point x="458" y="435" type="curve" smooth="yes"/>
      <point x="458" y="495"/>
      <point x="421" y="537"/>
    </contour>
  </outline>
</glyph>
<glyph name="Q" format="2">
  <advance width="763"/>
  <unicode hex="0051"/>
  <outline>
    <contour>
      <point x="456" y="331" type="line"/>
      <point x="717" y="45" type="line"/>
      <point x="605" y="-52" type="line"/>
      <point x="336" y="229" type="line"/>
    </contour>
    <contour>
      <point x="381" y="694" type="curve" smooth="yes"/>
      <point x="602" y="694"/>
      <point x="733" y="539"/>
      <point x="733" y="344" type="curve" smooth="yes"/>
      <point x="733" y="133"/>
      <point x="589" y="-14"/>
      <point x="381" y="-14" type="curve" smooth="yes"/>
      <point x="164" y="-14"/>
      <point x="30" y="142"/>
      <point x="30" y="337" type="curve" smooth="yes"/>
      <point x="30" y="546"/>
      <point x="177" y="694"/>
    </contour>
    <contour>
      <point x="217" y="338" type="curve" smooth="yes"/>
      <point x="217" y="223"/>
      <point x="277" y="138"/>
      <point x="380" y="138" type="curve" smooth="yes"/>
      <point x="473" y="138"/>
      <point x="546" y="207"/>
      <point x="546" y="344" type="curve" smooth="yes"/>
      <point x="546" y="457"/>
      <point x="484" y="542"/>
      <point x="383" y="542" type="curve" smooth="yes"/>
      <point x="292" y="542"/>
      <point x="217" y="461"/>
    </contour>
  </outline>
</glyph>
<glyph name="R" format="2">
  <advance width="714"/>
  <unicode hex="0052"/>
  <anchor x="381" y="0" name="bottom"/>
  <anchor x="360" y="680" name="topU"/>
  <outline>
    <contour>
      <point x="360" y="537" type="curve" smooth="yes"/>
      <point x="262" y="537" type="line"/>
      <point x="262" y="357" type="line"/>
      <point x="362" y="357" type="line" smooth="yes"/>
      <point x="418" y="357"/>
      <point x="458" y="395"/>
      <point x="458" y="448" type="curve" smooth="yes"/>
      <point x="458" y="508"/>
      <point x="421" y="537"/>
    </contour>
    <contour>
      <point x="80" y="680" type="line"/>
      <point x="366" y="680" type="line" smooth="yes"/>
      <point x="517" y="680"/>
      <point x="646" y="612"/>
      <point x="646" y="448" type="curve" smooth="yes"/>
      <point x="646" y="365"/>
      <point x="609" y="305"/>
      <point x="554" y="268" type="curve"/>
      <point x="704" y="0" type="line"/>
      <point x="493" y="0" type="line"/>
      <point x="383" y="214" type="line"/>
      <point x="363" y="214.0"/>
      <point x="343.0" y="214.0"/>
      <point x="323" y="214" type="curve" smooth="yes"/>
      <point x="262" y="214" type="line"/>
      <point x="262" y="0" type="line"/>
      <point x="80" y="0" type="line"/>
    </contour>
  </outline>
</glyph>
<glyph name="S" format="2">
  <advance width="547"/>
  <unicode hex="0053"/>
  <anchor x="256" y="0" name="bottom"/>
  <anchor x="284" y="680" name="topU"/>
  <outline>
    <contour>
      <point x="33" y="42" type="curve"/>
      <point x="93" y="179" type="line"/>
      <point x="128" y="158"/>
      <point x="202" y="136"/>
      <point x="251" y="136" type="curve" smooth="yes"/>
      <point x="308" y="136"/>
      <point x="339" y="164"/>
      <point x="339" y="189" type="curve" smooth="yes"/>
      <point x="339" y="213"/>
      <point x="286" y="237"/>
      <point x="234" y="268" type="curve" smooth="yes"/>
      <point x="146" y="320"/>
      <point x="30" y="382"/>
      <point x="30" y="498" type="curve" smooth="yes"/>
      <point x="31" y="610"/>
      <point x="128" y="693"/>
      <point x="283" y="693" type="curve" smooth="yes"/>
      <point x="351" y="693"/>
      <point x="430" y="673"/>
      <point x="483" y="637" type="curve"/>
      <point x="429" y="514" type="line"/>
      <point x="357" y="539"/>
      <point x="330" y="544"/>
      <point x="285" y="544" type="curve" smooth="yes"/>
      <point x="244" y="544"/>
      <point x="218" y="521"/>
      <point x="218" y="496" type="curve" smooth="yes"/>
      <point x="218" y="467"/>
      <point x="267" y="450"/>
      <point x="321" y="419" type="curve" smooth="yes"/>
      <point x="417" y="364"/>
      <point x="527" y="298"/>
      <point x="527" y="187" type="curve" smooth="yes"/>
      <point x="527" y="72"/>
      <point x="424" y="-13"/>
      <point x="256" y="-13" type="curve" smooth="yes"/>
      <point x="187" y="-13"/>
      <point x="86" y="10"/>
    </contour>
  </outline>
</glyph>
<glyph name="T" format="2">
  <advance width="619"/>
  <unicode hex="0054"/>
  <anchor x="306" y="0" name="bottom"/>
  <anchor x="308" y="680" name="topU"/>
  <outline>
    <contour>
      <point x="592" y="680" type="line"/>
      <point x="609" y="537" type="line"/>
      <point x="392" y="537" type="line"/>
      <point x="392" y="0" type="line"/>
      <point x="210" y="0" type="line"/>
      <point x="210" y="537" type="line"/>
      <point x="10" y="537" type="line"/>
      <point x="10" y="680" type="line"/>
    </contour>
  </outline>
</glyph>
<glyph name="U" format="2">
  <advance width="750"/>
  <unicode hex="0055"/>
  <anchor x="374" y="0" name="bottom"/>
  <anchor x="375" y="680" name="topU"/>
  <outline>
    <contour>
      <point x="252" y="680" type="line"/>
      <point x="252" y="269" type="line" smooth="yes"/>
      <point x="252" y="184"/>
      <point x="303" y="138"/>
      <point x="375" y="138" type="curve" smooth="yes"/>
      <point x="447" y="138"/>
      <point x="498" y="184"/>
      <point x="498" y="269" type="curve" smooth="yes"/>
      <point x="498" y="680" type="line"/>
      <point x="680" y="680" type="line"/>
      <point x="680" y="260" type="line" smooth="yes"/>
      <point x="680" y="83"/>
      <point x="556" y="-14"/>
      <point x="375" y="-14" type="curve" smooth="yes"/>
      <point x="194" y="-14"/>
      <point x="70" y="83"/>
      <point x="70" y="260" type="curve" smooth="yes"/>
      <point x="70" y="680" type="line"/>
    </contour>
  </outline>
</glyph>
<glyph name="V" format="2">
  <advance width="711"/>
  <unicode hex="0056"/>
  <outline>
    <contour>
      <point x="189" y="690" type="line"/>
      <point x="358" y="218" type="line"/>
      <point x="520" y="680" type="line"/>
      <point x="701" y="680" type="line"/>
      <point x="446" y="0" type="line"/>
      <point x="264" y="0" type="line"/>
      <point x="10" y="672" type="line"/>
    </contour>
  </outline>
</glyph>
<glyph name="W" format="2">
  <advance width="1000"/>
  <unicode hex="0057"/>
  <outline>
    <contour>
      <point x="990" y="680" type="line"/>
      <point x="809" y="680" type="line"/>
      <point x="707" y="218" type="line"/>
      <point x="591" y="680" type="line"/>
      <point x="410" y="680" type="line"/>
      <point x="308" y="218" type="line"/>
      <point x="189" y="690" type="line"/>
      <point x="10" y="672" type="line"/>
      <point x="214" y="0" type="line"/>
      <point x="396" y="0" type="line"/>
      <point x="501" y="427" type="line"/>
      <point x="613" y="0" type="line"/>
      <point x="795" y="0" type="line"/>
    </contour>
  </outline>
</glyph>
<glyph name="X" format="2">
  <advance width="715"/>
  <unicode hex="0058"/>
  <outline>
    <contour>
      <point x="225" y="0" type="line"/>
      <point x="10" y="0" type="line"/>
      <point x="247" y="338" type="line"/>
      <point x="29" y="648" type="line"/>
      <point x="225" y="705" type="line"/>
      <point x="362" y="498" type="line"/>
      <point x="478" y="680" type="line"/>
      <point x="704" y="680" type="line"/>
      <point x="477" y="345" type="line"/>
      <point x="705" y="0" type="line"/>
      <point x="472" y="0" type="line"/>
      <point x="362" y="186" type="line"/>
    </contour>
  </outline>
</glyph>
<glyph name="Y" format="2">
  <advance width="654"/>
  <unicode hex="0059"/>
  <anchor x="316" y="680" name="topU"/>
  <outline>
    <contour>
      <point x="408" y="0" type="line"/>
      <point x="226" y="0" type="line"/>
      <point x="226" y="268" type="line"/>
      <point x="10" y="646" type="line"/>
      <point x="184" y="694" type="line"/>
      <point x="316" y="435" type="line"/>
      <point x="457" y="680" type="line"/>
      <point x="644" y="680" type="line"/>
      <point x="408" y="266" type="line"/>
    </contour>
  </outline>
</glyph>
<glyph name="Z" format="2">
  <advance width="584"/>
  <unicode hex="005A"/>
  <anchor x="292" y="680" name="topU"/>
  <outline>
    <contour>
      <point x="554" y="143" type="line"/>
      <point x="571" y="0" type="line"/>
      <point x="30" y="0" type="line"/>
      <point x="10" y="128" type="line"/>
      <point x="357" y="537" type="line"/>
      <point x="56" y="537" type="line"/>
      <point x="39" y="680" type="line"/>
      <point x="555" y="680" type="line"/>
      <point x="574" y="551" type="line"/>
      <point x="220" y="143" type="line"/>
    </contour>
  </outline>
</glyph>
<glyph name="bracketleft" format="2">
  <advance width="478"/>
  <unicode hex="005B"/>
  <outline>
    <contour>
      <point x="100" y="-87" type="line"/>
      <point x="100" y="696" type="line"/>
      <point x="468" y="696" type="line"/>
      <point x="452" y="553" type="line"/>
      <point x="282" y="553" type="line"/>
      <point x="282" y="56" type="line"/>
      <point x="451" y="56" type="line"/>
      <point x="468" y="-87" type="line"/>
    </contour>
  </outline>
</glyph>
<glyph name="backslash" format="2">
  <advance width="506"/>
  <unicode hex="005C"/>
  <outline>
    <contour>
      <point x="496" y="0" type="line"/>
      <point x="309" y="0" type="line"/>
      <point x="10" y="710" type="line"/>
      <point x="198" y="710" type="line"/>
    </contour>
  </outline>
</glyph>
<glyph name="bracketright" format="2">
  <advance width="478"/>
  <unicode hex="005D"/>
  <outline>
    <contour>
      <point x="378" y="696" type="line"/>
      <point x="378" y="-87" type="line"/>
      <point x="10" y="-87" type="line"/>
      <point x="27" y="56" type="line"/>
      <point x="196" y="56" type="line"/>
      <point x="196" y="553" type="line"/>
      <point x="26" y="553" type="line"/>
      <point x="10" y="696" type="line"/>
    </contour>
  </outline>
</glyph>
<glyph name="asciicircum" format="2">
  <advance width="475"/>
  <unicode hex="005E"/>
  <outline>
    <contour>
      <point x="240" y="253" type="line"/>
      <point x="187" y="141" type="line"/>
      <point x="10" y="141" type="line"/>
      <point x="166" y="424" type="line"/>
      <point x="310" y="424" type="line"/>
      <point x="465" y="141" type="line"/>
      <point x="292" y="141" type="line"/>
    </contour>
  </outline>
</glyph>
<glyph name="underscore" format="2">
  <advance width="456"/>
  <unicode hex="005F"/>
  <outline>
    <contour>
      <point x="416" y="143" type="line"/>
      <point x="426" y="0" type="line"/>
      <point x="41" y="0" type="line"/>
      <point x="30" y="143" type="line"/>
    </contour>
  </outline>
</glyph>
<glyph name="grave" format="2">
  <advance width="266"/>
  <unicode hex="0060"/>
  <outline>
    <contour>
      <point x="124" y="588" type="line"/>
      <point x="10" y="787" type="line"/>
      <point x="190" y="787" type="line"/>
      <point x="256" y="610" type="line"/>
    </contour>
  </outline>
</glyph>
<glyph name="b" format="2">
  <advance width="583"/>
  <unicode hex="0062"/>
  <outline>
    <contour>
      <point x="152" y="0" type="line"/>
      <point x="60" y="0" type="line"/>
      <point x="60" y="695" type="line"/>
      <point x="242" y="706" type="line"/>
      <point x="242" y="91" type="line"/>
    </contour>
    <contour>
      <point x="183" y="296" type="curve"/>
      <point x="132" y="413" type="line"/>
      <point x="168" y="457"/>
      <point x="239" y="502"/>
      <point x="314" y="502" type="curve" smooth="yes"/>
      <point x="457" y="502"/>
      <point x="563" y="422"/>
      <point x="563" y="249" type="curve" smooth="yes"/>
      <point x="563" y="76"/>
      <point x="459" y="-11"/>
      <point x="306" y="-11" type="curve" smooth="yes"/>
      <point x="246" y="-11"/>
      <point x="188" y="14"/>
      <point x="132" y="78" type="curve"/>
      <point x="183" y="185" type="line"/>
      <point x="222" y="149"/>
      <point x="259" y="129"/>
      <point x="294" y="129" type="curve" smooth="yes"/>
      <point x="339" y="129"/>
      <point x="375" y="173"/>
      <point x="375" y="248" type="curve" smooth="yes"/>
      <point x="375" y="322"/>
      <point x="343" y="362"/>
      <point x="286" y="362" type="curve" smooth="yes"/>
      <point x="254" y="362"/>
      <point x="222" y="336"/>
    </contour>
  </outline>
</glyph>
<glyph name="c" format="2">
  <advance width="457"/>
  <unicode hex="0063"/>
  <anchor x="283" y="0" name="bottom"/>
  <anchor x="261" y="485" name="top"/>
  <outline>
    <contour>
      <point x="451" y="453" type="curve"/>
      <point x="400" y="328" type="line"/>
      <point x="361" y="348"/>
      <point x="338" y="354"/>
      <point x="303" y="354" type="curve" smooth="yes"/>
      <point x="254" y="354"/>
      <point x="208" y="311"/>
      <point x="208" y="242" type="curve" smooth="yes"/>
      <point x="208" y="174"/>
      <point x="254" y="137"/>
      <point x="303" y="137" type="curve" smooth="yes"/>
      <point x="335" y="137"/>
      <point x="361" y="143"/>
      <point x="400" y="163" type="curve"/>
      <point x="451" y="38" type="line"/>
      <point x="395" y="-6"/>
      <point x="325" y="-11"/>
      <point x="285" y="-11" type="curve" smooth="yes"/>
      <point x="128" y="-11"/>
      <point x="20" y="79"/>
      <point x="20" y="242" type="curve" smooth="yes"/>
      <point x="20" y="405"/>
      <point x="128" y="502"/>
      <point x="285" y="502" type="curve" smooth="yes"/>
      <point x="325" y="502"/>
      <point x="395" y="497"/>
    </contour>
  </outline>
</glyph>
<glyph name="d" format="2">
  <advance width="583"/>
  <unicode hex="0064"/>
  <outline>
    <contour>
      <point x="341" y="117" type="line"/>
      <point x="341" y="695" type="line"/>
      <point x="523" y="706" type="line"/>
      <point x="523" y="0" type="line"/>
      <point x="431" y="0" type="line"/>
    </contour>
    <contour>
      <point x="400" y="195" type="curve"/>
      <point x="451" y="78" type="line"/>
      <point x="415" y="34"/>
      <point x="344" y="-11"/>
      <point x="269" y="-11" type="curve" smooth="yes"/>
      <point x="126" y="-11"/>
      <point x="20" y="69"/>
      <point x="20" y="242" type="curve" smooth="yes"/>
      <point x="20" y="415"/>
      <point x="124" y="502"/>
      <point x="277" y="502" type="curve" smooth="yes"/>
      <point x="337" y="502"/>
      <point x="395" y="477"/>
      <point x="451" y="413" type="curve"/>
      <point x="400" y="306" type="line"/>
      <point x="361" y="342"/>
      <point x="324" y="362"/>
      <point x="289" y="362" type="curve" smooth="yes"/>
      <point x="244" y="362"/>
      <point x="208" y="318"/>
      <point x="208" y="243" type="curve" smooth="yes"/>
      <point x="208" y="169"/>
      <point x="240" y="129"/>
      <point x="297" y="129" type="curve" smooth="yes"/>
      <point x="329" y="129"/>
      <point x="361" y="155"/>
    </contour>
  </outline>
</glyph>
<glyph name="e" format="2">
  <advance width="533"/>
  <unicode hex="0065"/>
  <anchor x="353" y="0" name="bottom"/>
  <anchor x="282" y="485" name="top"/>
  <outline>
    <contour>
      <point x="513" y="197" type="line"/>
      <point x="218" y="197" type="line"/>
      <point x="231" y="157"/>
      <point x="266" y="131"/>
      <point x="328" y="131" type="curve" smooth="yes"/>
      <point x="386" y="131"/>
      <point x="432" y="149"/>
      <point x="461" y="164" type="curve"/>
      <point x="512" y="41" type="line"/>
      <point x="473" y="13"/>
      <point x="391" y="-11"/>
      <point x="310" y="-11" type="curve" smooth="yes"/>
      <point x="143" y="-11"/>
      <point x="20" y="77"/>
      <point x="20" y="242" type="curve" smooth="yes"/>
      <point x="20" y="405"/>
      <point x="134" y="502"/>
      <point x="281" y="502" type="curve" smooth="yes"/>
      <point x="436" y="502"/>
      <point x="513" y="386"/>
      <point x="513" y="250" type="curve" smooth="yes"/>
    </contour>
    <contour>
      <point x="213" y="287" type="curve"/>
      <point x="339" y="287" type="line"/>
      <point x="339" y="315"/>
      <point x="321" y="356"/>
      <point x="276" y="356" type="curve" smooth="yes"/>
      <point x="243" y="356"/>
      <point x="212" y="324"/>
    </contour>
  </outline>
</glyph>
<glyph name="f" format="2">
  <advance width="451"/>
  <unicode hex="0066"/>
  <outline>
    <contour>
      <point x="10" y="322" type="line"/>
      <point x="10" y="465" type="line"/>
      <point x="90" y="465" type="line"/>
      <point x="90" y="510" type="line" smooth="yes"/>
      <point x="90" y="639"/>
      <point x="201" y="703"/>
      <point x="317" y="703" type="curve" smooth="yes"/>
      <point x="364" y="703"/>
      <point x="427" y="681"/>
      <point x="451" y="660" type="curve"/>
      <point x="399" y="536" type="line"/>
      <point x="376" y="549"/>
      <point x="349" y="555"/>
      <point x="329" y="555" type="curve" smooth="yes"/>
      <point x="294" y="555"/>
      <point x="272" y="530"/>
      <point x="272" y="490" type="curve" smooth="yes"/>
      <point x="272" y="465" type="line"/>
      <point x="406" y="465" type="line"/>
      <point x="423" y="322" type="line"/>
      <point x="272" y="322" type="line"/>
      <point x="272" y="0" type="line"/>
      <point x="90" y="0" type="line"/>
      <point x="90" y="322" type="line"/>
    </contour>
  </outline>
</glyph>
<glyph name="h" format="2">
  <advance width="620"/>
  <unicode hex="0068"/>
  <outline>
    <contour>
      <point x="242" y="326" type="curve"/>
      <point x="200" y="435" type="line"/>
      <point x="248" y="465"/>
      <point x="320" y="501"/>
      <point x="398" y="501" type="curve" smooth="yes"/>
      <point x="521" y="501"/>
      <point x="574" y="421"/>
      <point x="574" y="313" type="curve" smooth="yes"/>
      <point x="574" y="0" type="line"/>
      <point x="392" y="0" type="line"/>
      <point x="392" y="296" type="line" smooth="yes"/>
      <point x="392" y="326"/>
      <point x="381" y="354"/>
      <point x="340" y="354" type="curve" smooth="yes"/>
      <point x="317" y="354"/>
      <point x="271" y="339"/>
    </contour>
    <contour>
      <point x="242" y="0" type="line"/>
      <point x="60" y="0" type="line"/>
      <point x="60" y="695" type="line"/>
      <point x="242" y="706" type="line"/>
    </contour>
  </outline>
</glyph>
<glyph name="i" format="2">
  <advance width="282"/>
  <unicode hex="0069"/>
  <anchor x="154" y="0" name="bottom"/>
  <outline>
    <contour>
      <point x="232" y="0" type="line"/>
      <point x="50" y="0" type="line"/>
      <point x="50" y="485" type="line"/>
      <point x="232" y="485" type="line"/>
    </contour>
    <contour>
      <point x="140" y="551" type="curve" smooth="yes"/>
      <point x="87" y="551"/>
      <point x="42" y="596"/>
      <point x="42" y="649" type="curve" smooth="yes"/>
      <point x="42" y="704"/>
      <point x="87" y="749"/>
      <point x="140" y="749" type="curve" smooth="yes"/>
      <point x="195" y="749"/>
      <point x="240" y="704"/>
      <point x="240" y="649" type="curve" smooth="yes"/>
      <point x="240" y="596"/>
      <point x="195" y="551"/>
    </contour>
  </outline>
</glyph>
<glyph name="j" format="2">
  <advance width="302"/>
  <unicode hex="006A"/>
  <outline>
    <contour>
      <point x="156" y="551" type="curve" smooth="yes"/>
      <point x="211" y="551"/>
      <point x="256" y="596"/>
      <point x="256" y="649" type="curve" smooth="yes"/>
      <point x="256" y="704"/>
      <point x="211" y="749"/>
      <point x="156" y="749" type="curve" smooth="yes"/>
      <point x="103" y="749"/>
      <point x="58" y="704"/>
      <point x="58" y="649" type="curve" smooth="yes"/>
      <point x="58" y="596"/>
      <point x="107" y="551"/>
    </contour>
    <contour>
      <point x="248" y="485" type="line"/>
      <point x="66" y="485" type="line"/>
      <point x="66" y="29" type="line" smooth="yes"/>
      <point x="66" y="-10"/>
      <point x="62" y="-38"/>
      <point x="-10" y="-63" type="curve"/>
      <point x="62" y="-194" type="line"/>
      <point x="203" y="-149"/>
      <point x="248" y="-102"/>
      <point x="248" y="2" type="curve" smooth="yes"/>
    </contour>
  </outline>
</glyph>
<glyph name="k" format="2">
  <advance width="567"/>
  <unicode hex="006B"/>
  <anchor x="307" y="0" name="bottom"/>
  <outline>
    <contour>
      <point x="242" y="0" type="line"/>
      <point x="60" y="0" type="line"/>
      <point x="60" y="695" type="line"/>
      <point x="242" y="706" type="line"/>
      <point x="242" y="346" type="line"/>
      <point x="423" y="499" type="line"/>
      <point x="532" y="374" type="line"/>
      <point x="402.812" y="276.886" type="line"/>
      <point x="567" y="0" type="line"/>
      <point x="371" y="0" type="line"/>
      <point x="275.199" y="180.957" type="line"/>
      <point x="242" y="156" type="line"/>
    </contour>
  </outline>
</glyph>
<glyph name="l" format="2">
  <advance width="302"/>
  <unicode hex="006C"/>
  <anchor x="158" y="0" name="bottom"/>
  <outline>
    <contour>
      <point x="242" y="0" type="line"/>
      <point x="60" y="0" type="line"/>
      <point x="60" y="695" type="line"/>
      <point x="242" y="706" type="line"/>
    </contour>
  </outline>
</glyph>
<glyph name="m" format="2">
  <advance width="921"/>
  <unicode hex="006D"/>
  <outline>
    <contour>
      <point x="232" y="0" type="line"/>
      <point x="50" y="0" type="line"/>
      <point x="50" y="485" type="line"/>
      <point x="158" y="485" type="line"/>
      <point x="190" y="435" type="line"/>
      <point x="238" y="465"/>
      <point x="310" y="501"/>
      <point x="383" y="501" type="curve" smooth="yes"/>
      <point x="511" y="501"/>
      <point x="554" y="421"/>
      <point x="554" y="313" type="curve" smooth="yes"/>
      <point x="554" y="0" type="line"/>
      <point x="372" y="0" type="line"/>
      <point x="372" y="296" type="line" smooth="yes"/>
      <point x="372" y="326"/>
      <point x="369" y="354"/>
      <point x="325" y="354" type="curve" smooth="yes"/>
      <point x="307" y="354"/>
      <point x="261" y="339"/>
      <point x="232" y="326" type="curve"/>
    </contour>
    <contour>
      <point x="553" y="326" type="curve"/>
      <point x="511" y="435" type="line"/>
      <point x="559" y="465"/>
      <point x="631" y="501"/>
      <point x="704" y="501" type="curve" smooth="yes"/>
      <point x="832" y="501"/>
      <point x="875" y="421"/>
      <point x="875" y="313" type="curve" smooth="yes"/>
      <point x="875" y="0" type="line"/>
      <point x="693" y="0" type="line"/>
      <point x="693" y="296" type="line" smooth="yes"/>
      <point x="693" y="326"/>
      <point x="690" y="354"/>
      <point x="646" y="354" type="curve" smooth="yes"/>
      <point x="628" y="354"/>
      <point x="582" y="339"/>
    </contour>
  </outline>
</glyph>
<glyph name="n" format="2">
  <advance width="610"/>
  <unicode hex="006E"/>
  <anchor x="302" y="0" name="bottom"/>
  <anchor x="356" y="485" name="top"/>
  <outline>
    <contour>
      <point x="232" y="0" type="line"/>
      <point x="50" y="0" type="line"/>
      <point x="50" y="485" type="line"/>
      <point x="158" y="485" type="line"/>
      <point x="190" y="435" type="line"/>
      <point x="238" y="465"/>
      <point x="310" y="501"/>
      <point x="388" y="501" type="curve" smooth="yes"/>
      <point x="511" y="501"/>
      <point x="564" y="421"/>
      <point x="564" y="313" type="curve" smooth="yes"/>
      <point x="564" y="0" type="line"/>
      <point x="382" y="0" type="line"/>
      <point x="382" y="296" type="line" smooth="yes"/>
      <point x="382" y="326"/>
      <point x="370" y="354"/>
      <point x="330" y="354" type="curve" smooth="yes"/>
      <point x="307" y="354"/>
      <point x="261" y="339"/>
      <point x="232" y="326" type="curve"/>
    </contour>
  </outline>
</glyph>
<glyph name="o" format="2">
  <advance width="590"/>
  <unicode hex="006F"/>
  <anchor x="295" y="485" name="top"/>
  <outline>
    <contour>
      <point x="570" y="240" type="curve" smooth="yes"/>
      <point x="570" y="413"/>
      <point x="455" y="502"/>
      <point x="295" y="502" type="curve" smooth="yes"/>
      <point x="143" y="502"/>
      <point x="20" y="408"/>
      <point x="20" y="245" type="curve" smooth="yes"/>
      <point x="20" y="72"/>
      <point x="135" y="-11"/>
      <point x="291" y="-11" type="curve" smooth="yes"/>
      <point x="447" y="-11"/>
      <point x="570" y="77"/>
    </contour>
    <contour>
      <point x="293" y="137" type="curve" smooth="yes"/>
      <point x="238" y="137"/>
      <point x="208" y="180"/>
      <point x="208" y="245" type="curve" smooth="yes"/>
      <point x="208" y="313"/>
      <point x="240" y="354"/>
      <point x="297" y="354" type="curve" smooth="yes"/>
      <point x="352" y="354"/>
      <point x="382" y="305"/>
      <point x="382" y="240" type="curve" smooth="yes"/>
      <point x="382" y="172"/>
      <point x="350" y="137"/>
    </contour>
  </outline>
</glyph>
<glyph name="p" format="2">
  <advance width="579"/>
  <unicode hex="0070"/>
  <outline>
    <contour>
      <point x="238" y="-209" type="line"/>
      <point x="56" y="-219" type="line"/>
      <point x="56" y="484" type="line"/>
      <point x="147" y="484" type="line"/>
      <point x="238" y="393" type="line"/>
    </contour>
    <contour>
      <point x="179" y="296" type="curve"/>
      <point x="128" y="413" type="line"/>
      <point x="164" y="457"/>
      <point x="235" y="502"/>
      <point x="310" y="502" type="curve" smooth="yes"/>
      <point x="453" y="502"/>
      <point x="559" y="422"/>
      <point x="559" y="249" type="curve" smooth="yes"/>
      <point x="559" y="76"/>
      <point x="455" y="-11"/>
      <point x="302" y="-11" type="curve" smooth="yes"/>
      <point x="242" y="-11"/>
      <point x="184" y="14"/>
      <point x="128" y="78" type="curve"/>
      <point x="179" y="185" type="line"/>
      <point x="218" y="149"/>
      <point x="255" y="129"/>
      <point x="290" y="129" type="curve" smooth="yes"/>
      <point x="335" y="129"/>
      <point x="371" y="173"/>
      <point x="371" y="248" type="curve" smooth="yes"/>
      <point x="371" y="322"/>
      <point x="339" y="362"/>
      <point x="282" y="362" type="curve" smooth="yes"/>
      <point x="250" y="362"/>
      <point x="218" y="336"/>
    </contour>
  </outline>
</glyph>
<glyph name="q" format="2">
  <advance width="579"/>
  <unicode hex="0071"/>
  <outline>
    <contour>
      <point x="432" y="484" type="line"/>
      <point x="523" y="484" type="line"/>
      <point x="523" y="-208" type="line"/>
      <point x="341" y="-219" type="line"/>
      <point x="341" y="389" type="line"/>
    </contour>
    <contour>
      <point x="400" y="195" type="curve"/>
      <point x="451" y="78" type="line"/>
      <point x="415" y="34"/>
      <point x="344" y="-11"/>
      <point x="269" y="-11" type="curve" smooth="yes"/>
      <point x="126" y="-11"/>
      <point x="20" y="69"/>
      <point x="20" y="242" type="curve" smooth="yes"/>
      <point x="20" y="415"/>
      <point x="124" y="502"/>
      <point x="277" y="502" type="curve" smooth="yes"/>
      <point x="337" y="502"/>
      <point x="395" y="477"/>
      <point x="451" y="413" type="curve"/>
      <point x="400" y="306" type="line"/>
      <point x="361" y="342"/>
      <point x="324" y="362"/>
      <point x="289" y="362" type="curve" smooth="yes"/>
      <point x="244" y="362"/>
      <point x="208" y="318"/>
      <point x="208" y="243" type="curve" smooth="yes"/>
      <point x="208" y="169"/>
      <point x="240" y="129"/>
      <point x="297" y="129" type="curve" smooth="yes"/>
      <point x="329" y="129"/>
      <point x="361" y="155"/>
    </contour>
  </outline>
</glyph>
<glyph name="r" format="2">
  <advance width="395"/>
  <unicode hex="0072"/>
  <anchor x="139" y="0" name="bottom"/>
  <anchor x="205" y="485" name="top"/>
  <outline>
    <contour>
      <point x="232" y="0" type="line"/>
      <point x="50" y="0" type="line"/>
      <point x="50" y="484" type="line"/>
      <point x="141" y="484" type="line"/>
      <point x="185" y="425" type="line"/>
      <point x="225" y="452"/>
      <point x="293" y="485"/>
      <point x="348" y="485" type="curve"/>
      <point x="385" y="339" type="line"/>
      <point x="337" y="339"/>
      <point x="273" y="317"/>
      <point x="232" y="285" type="curve"/>
    </contour>
  </outline>
</glyph>
<glyph name="s" format="2">
  <advance width="451"/>
  <unicode hex="0073"/>
  <anchor x="229" y="0" name="bottom"/>
  <anchor x="247" y="485" name="top"/>
  <outline>
    <contour>
      <point x="22" y="46" type="curve"/>
      <point x="73" y="161" type="line"/>
      <point x="112" y="143"/>
      <point x="176" y="127"/>
      <point x="211" y="127" type="curve" smooth="yes"/>
      <point x="235" y="127"/>
      <point x="253" y="136"/>
      <point x="253" y="149" type="curve" smooth="yes"/>
      <point x="253" y="157"/>
      <point x="233" y="170"/>
      <point x="205" y="179" type="curve" smooth="yes"/>
      <point x="125" y="207"/>
      <point x="32" y="251"/>
      <point x="32" y="340" type="curve" smooth="yes"/>
      <point x="32" y="441"/>
      <point x="112" y="502"/>
      <point x="247" y="502" type="curve" smooth="yes"/>
      <point x="287" y="502"/>
      <point x="374" y="494"/>
      <point x="430" y="450" type="curve"/>
      <point x="379" y="335" type="line"/>
      <point x="340" y="352"/>
      <point x="295" y="364"/>
      <point x="260" y="364" type="curve" smooth="yes"/>
      <point x="231" y="364"/>
      <point x="210" y="355"/>
      <point x="210" y="342" type="curve" smooth="yes"/>
      <point x="210" y="334"/>
      <point x="231" y="322"/>
      <point x="261" y="312" type="curve" smooth="yes"/>
      <point x="341" y="284"/>
      <point x="431" y="240"/>
      <point x="431" y="151" type="curve" smooth="yes"/>
      <point x="431" y="50"/>
      <point x="364" y="-11"/>
      <point x="229" y="-11" type="curve" smooth="yes"/>
      <point x="189" y="-11"/>
      <point x="78" y="2"/>
    </contour>
  </outline>
</glyph>
<glyph name="t" format="2">
  <advance width="456"/>
  <unicode hex="0074"/>
  <anchor x="269" y="0" name="bottom"/>
  <outline>
    <contour>
      <point x="394" y="465" type="line"/>
      <point x="411" y="322" type="line"/>
      <point x="267" y="322" type="line"/>
      <point x="267" y="202" type="line" smooth="yes"/>
      <point x="267" y="162"/>
      <point x="289" y="137"/>
      <point x="324" y="137" type="curve" smooth="yes"/>
      <point x="344" y="137"/>
      <point x="371" y="143"/>
      <point x="394" y="156" type="curve"/>
      <point x="446" y="32" type="line"/>
      <point x="422" y="11"/>
      <point x="359" y="-11"/>
      <point x="312" y="-11" type="curve" smooth="yes"/>
      <point x="196" y="-11"/>
      <point x="85" y="53"/>
      <point x="85" y="182" type="curve" smooth="yes"/>
      <point x="85" y="322" type="line"/>
      <point x="10" y="322" type="line"/>
      <point x="10" y="465" type="line"/>
      <point x="85" y="465" type="line"/>
      <point x="85" y="596" type="line"/>
      <point x="267" y="621" type="line"/>
      <point x="267" y="465" type="line"/>
    </contour>
  </outline>
</glyph>
<glyph name="u" format="2">
  <advance width="610"/>
  <unicode hex="0075"/>
  <anchor x="508" y="0" name="bottom"/>
  <anchor x="305" y="485" name="top"/>
  <outline>
    <contour>
      <point x="378" y="484" type="line"/>
      <point x="560" y="484" type="line"/>
      <point x="560" y="-1" type="line"/>
      <point x="472" y="-1" type="line"/>
      <point x="420" y="49" type="line"/>
      <point x="372" y="19"/>
      <point x="300" y="-17"/>
      <point x="222" y="-17" type="curve" smooth="yes"/>
      <point x="99" y="-17"/>
      <point x="46" y="63"/>
      <point x="46" y="171" type="curve" smooth="yes"/>
      <point x="46" y="484" type="line"/>
      <point x="228" y="484" type="line"/>
      <point x="228" y="188" type="line" smooth="yes"/>
      <point x="228" y="158"/>
      <point x="240" y="130"/>
      <point x="280" y="130" type="curve" smooth="yes"/>
      <point x="303" y="130"/>
      <point x="349" y="145"/>
      <point x="378" y="158" type="curve"/>
    </contour>
  </outline>
</glyph>
<glyph name="v" format="2">
  <advance width="569"/>
  <unicode hex="0076"/>
  <outline>
    <contour>
      <point x="368" y="0" type="line"/>
      <point x="196" y="0" type="line"/>
      <point x="20" y="455" type="line"/>
      <point x="188" y="503" type="line"/>
      <point x="285" y="211" type="line"/>
      <point x="378" y="485" type="line"/>
      <point x="559" y="485" type="line"/>
    </contour>
  </outline>
</glyph>
<glyph name="w" format="2">
  <advance width="812"/>
  <unicode hex="0077"/>
  <outline>
    <contour>
      <point x="641" y="0" type="line"/>
      <point x="475" y="0" type="line"/>
      <point x="399" y="251" type="line"/>
      <point x="324" y="0" type="line"/>
      <point x="158" y="0" type="line"/>
      <point x="10" y="455" type="line"/>
      <point x="178" y="503" type="line"/>
      <point x="248" y="210" type="line"/>
      <point x="315" y="485" type="line"/>
      <point x="486" y="485" type="line"/>
      <point x="558" y="210" type="line"/>
      <point x="621" y="485" type="line"/>
      <point x="802" y="485" type="line"/>
    </contour>
  </outline>
</glyph>
<glyph name="x" format="2">
  <advance width="557"/>
  <unicode hex="0078"/>
  <outline>
    <contour>
      <point x="215" y="0" type="line"/>
      <point x="10" y="0" type="line"/>
      <point x="168" y="241" type="line"/>
      <point x="11" y="458" type="line"/>
      <point x="187" y="500" type="line"/>
      <point x="272" y="368" type="line"/>
      <point x="346" y="485" type="line"/>
      <point x="547" y="485" type="line"/>
      <point x="382" y="231" type="line"/>
      <point x="547" y="0" type="line"/>
      <point x="343" y="0" type="line"/>
      <point x="278" y="104" type="line"/>
    </contour>
  </outline>
</glyph>
<glyph name="y" format="2">
  <advance width="561"/>
  <unicode hex="0079"/>
  <anchor x="277" y="485" name="top"/>
  <outline>
    <contour>
      <point x="180" y="-2" type="curve" smooth="yes"/>
      <point x="184" y="9" type="line"/>
      <point x="10" y="455" type="line"/>
      <point x="178" y="503" type="line"/>
      <point x="277" y="211" type="line"/>
      <point x="370" y="485" type="line"/>
      <point x="551" y="485" type="line"/>
      <point x="338" y="-57" type="line" smooth="yes"/>
      <point x="307" y="-136"/>
      <point x="213" y="-198"/>
      <point x="117" y="-219" type="curve"/>
      <point x="56" y="-78" type="line"/>
      <point x="104" y="-58"/>
      <point x="169" y="-31"/>
    </contour>
  </outline>
</glyph>
<glyph name="z" format="2">
  <advance width="452"/>
  <unicode hex="007A"/>
  <anchor x="224" y="485" name="top"/>
  <outline>
    <contour>
      <point x="417" y="485" type="line"/>
      <point x="426" y="384" type="line"/>
      <point x="230" y="143" type="line"/>
      <point x="427" y="143" type="line"/>
      <point x="444" y="0" type="line"/>
      <point x="30" y="0" type="line"/>
      <point x="8" y="94" type="line"/>
      <point x="207" y="342" type="line"/>
      <point x="47" y="342" type="line"/>
      <point x="30" y="485" type="line"/>
    </contour>
  </outline>
</glyph>
<glyph name="braceleft" format="2">
  <advance width="349"/>
  <unicode hex="007B"/>
  <outline>
    <contour>
      <point x="252" y="310" type="curve"/>
      <point x="265" y="301"/>
      <point x="286" y="285"/>
      <point x="286" y="248" type="curve" smooth="yes"/>
      <point x="286" y="193"/>
      <point x="251" y="191"/>
      <point x="251" y="138" type="curve" smooth="yes"/>
      <point x="251" y="119"/>
      <point x="260" y="103"/>
      <point x="289" y="103" type="curve" smooth="yes"/>
      <point x="326" y="103" type="line"/>
      <point x="339" y="-39" type="line"/>
      <point x="226" y="-39" type="line" smooth="yes"/>
      <point x="127" y="-39"/>
      <point x="84" y="11"/>
      <point x="84" y="87" type="curve" smooth="yes"/>
      <point x="84" y="134"/>
      <point x="117" y="177"/>
      <point x="117" y="209" type="curve" smooth="yes"/>
      <point x="117" y="232"/>
      <point x="96" y="247"/>
      <point x="75" y="247" type="curve" smooth="yes"/>
      <point x="30" y="247" type="line"/>
      <point x="30" y="373" type="line"/>
      <point x="75" y="373" type="line" smooth="yes"/>
      <point x="96" y="373"/>
      <point x="117" y="388"/>
      <point x="117" y="411" type="curve" smooth="yes"/>
      <point x="117" y="440"/>
      <point x="84" y="486"/>
      <point x="84" y="533" type="curve" smooth="yes"/>
      <point x="84" y="609"/>
      <point x="127" y="659"/>
      <point x="226" y="659" type="curve" smooth="yes"/>
      <point x="339" y="659" type="line"/>
      <point x="326" y="517" type="line"/>
      <point x="289" y="517" type="line" smooth="yes"/>
      <point x="260" y="517"/>
      <point x="251" y="501"/>
      <point x="251" y="482" type="curve" smooth="yes"/>
      <point x="251" y="430"/>
      <point x="286" y="431"/>
      <point x="286" y="372" type="curve" smooth="yes"/>
      <point x="286" y="333"/>
      <point x="265" y="319"/>
    </contour>
  </outline>
</glyph>
<glyph name="bar" format="2">
  <advance width="342"/>
  <unicode hex="007C"/>
  <outline>
    <contour>
      <point x="80" y="713" type="line"/>
      <point x="262" y="697" type="line"/>
      <point x="262" y="-16" type="line"/>
      <point x="80" y="0" type="line"/>
    </contour>
  </outline>
</glyph>
<glyph name="braceright" format="2">
  <advance width="349"/>
  <unicode hex="007D"/>
  <outline>
    <contour>
      <point x="97" y="310" type="curve"/>
      <point x="84" y="319"/>
      <point x="63" y="335"/>
      <point x="63" y="372" type="curve" smooth="yes"/>
      <point x="63" y="401"/>
      <point x="73" y="415"/>
      <point x="82" y="430" type="curve" smooth="yes"/>
      <point x="90" y="443"/>
      <point x="98" y="457"/>
      <point x="98" y="482" type="curve" smooth="yes"/>
      <point x="98" y="501"/>
      <point x="89" y="517"/>
      <point x="60" y="517" type="curve" smooth="yes"/>
      <point x="23" y="517" type="line"/>
      <point x="10" y="659" type="line"/>
      <point x="123" y="659" type="line" smooth="yes"/>
      <point x="222" y="659"/>
      <point x="265" y="609"/>
      <point x="265" y="533" type="curve" smooth="yes"/>
      <point x="265" y="513"/>
      <point x="259" y="493"/>
      <point x="252" y="474" type="curve" smooth="yes"/>
      <point x="242" y="450"/>
      <point x="232" y="428"/>
      <point x="232" y="411" type="curve" smooth="yes"/>
      <point x="232" y="388"/>
      <point x="253" y="373"/>
      <point x="274" y="373" type="curve" smooth="yes"/>
      <point x="319" y="373" type="line"/>
      <point x="319" y="247" type="line"/>
      <point x="274" y="247" type="line" smooth="yes"/>
      <point x="253" y="247"/>
      <point x="232" y="232"/>
      <point x="232" y="209" type="curve" smooth="yes"/>
      <point x="232" y="196"/>
      <point x="240" y="178"/>
      <point x="248" y="158" type="curve" smooth="yes"/>
      <point x="256" y="135"/>
      <point x="265" y="110"/>
      <point x="265" y="87" type="curve" smooth="yes"/>
      <point x="265" y="11"/>
      <point x="222" y="-39"/>
      <point x="123" y="-39" type="curve" smooth="yes"/>
      <point x="10" y="-39" type="line"/>
      <point x="23" y="103" type="line"/>
      <point x="60" y="103" type="line" smooth="yes"/>
      <point x="89" y="103"/>
      <point x="98" y="119"/>
      <point x="98" y="138" type="curve" smooth="yes"/>
      <point x="98" y="166"/>
      <point x="89" y="180"/>
      <point x="80" y="194" type="curve" smooth="yes"/>
      <point x="71" y="207"/>
      <point x="63" y="221"/>
      <point x="63" y="248" type="curve" smooth="yes"/>
      <point x="63" y="287"/>
      <point x="84" y="301"/>
    </contour>
  </outline>
</glyph>
<glyph name="asciitilde" format="2">
  <advance width="565"/>
  <unicode hex="007E"/>
  <outline>
    <contour>
      <point x="30" y="175" type="line"/>
      <point x="30" y="295"/>
      <point x="85" y="385"/>
      <point x="190" y="385" type="curve" smooth="yes"/>
      <point x="251" y="385"/>
      <point x="309" y="351"/>
      <point x="367" y="351" type="curve" smooth="yes"/>
      <point x="392" y="351"/>
      <point x="409" y="379"/>
      <point x="409" y="400" type="curve"/>
      <point x="535" y="400" type="line"/>
      <point x="535" y="280"/>
      <point x="500" y="190"/>
      <point x="399" y="190" type="curve" smooth="yes"/>
      <point x="330" y="190"/>
      <point x="287" y="224"/>
      <point x="218" y="224" type="curve" smooth="yes"/>
      <point x="193" y="224"/>
      <point x="173" y="196"/>
      <point x="173" y="175" type="curve"/>
    </contour>
  </outline>
</glyph>
<glyph name="exclamdown" format="2">
  <advance width="243"/>
  <unicode hex="00A1"/>
  <outline>
    <contour>
      <point x="121" y="531" type="curve" smooth="yes"/>
      <point x="70" y="531"/>
      <point x="30" y="571"/>
      <point x="30" y="623" type="curve" smooth="yes"/>
      <point x="30" y="675"/>
      <point x="70" y="714"/>
      <point x="121" y="714" type="curve" smooth="yes"/>
      <point x="173" y="714"/>
      <point x="213" y="675"/>
      <point x="213" y="623" type="curve" smooth="yes"/>
      <point x="213" y="571"/>
      <point x="173" y="531"/>
    </contour>
    <contour>
      <point x="192" y="466" type="line"/>
      <point x="212" y="0" type="line"/>
      <point x="30" y="0" type="line"/>
      <point x="50" y="506" type="line"/>
    </contour>
  </outline>
</glyph>
<glyph name="cent" format="2">
  <advance width="457"/>
  <unicode hex="00A2"/>
  <outline>
    <contour>
      <point x="362" y="460" type="line"/>
      <point x="212" y="456" type="line"/>
      <point x="212" y="618" type="line"/>
      <point x="362" y="631" type="line"/>
    </contour>
    <contour>
      <point x="362" y="51" type="line"/>
      <point x="362" y="-125" type="line"/>
      <point x="212" y="-125" type="line"/>
      <point x="212" y="54" type="line"/>
    </contour>
    <contour>
      <point x="400" y="163" type="curve"/>
      <point x="451" y="38" type="line"/>
      <point x="395" y="-6"/>
      <point x="325" y="-11"/>
      <point x="285" y="-11" type="curve" smooth="yes"/>
      <point x="128" y="-11"/>
      <point x="20" y="79"/>
      <point x="20" y="242" type="curve" smooth="yes"/>
      <point x="20" y="405"/>
      <point x="128" y="502"/>
      <point x="285" y="502" type="curve" smooth="yes"/>
      <point x="325" y="502"/>
      <point x="395" y="497"/>
      <point x="451" y="453" type="curve"/>
      <point x="400" y="328" type="line"/>
      <point x="361" y="348"/>
      <point x="338" y="354"/>
      <point x="303" y="354" type="curve" smooth="yes"/>
      <point x="254" y="354"/>
      <point x="208" y="311"/>
      <point x="208" y="242" type="curve" smooth="yes"/>
      <point x="208" y="174"/>
      <point x="254" y="137"/>
      <point x="303" y="137" type="curve" smooth="yes"/>
      <point x="335" y="137"/>
      <point x="361" y="143"/>
    </contour>
  </outline>
</glyph>
<glyph name="sterling" format="2">
  <advance width="522"/>
  <unicode hex="00A3"/>
  <outline>
    <contour>
      <point x="49" y="0" type="line"/>
      <point x="39" y="143" type="line"/>
      <point x="101" y="144"/>
      <point x="121" y="169"/>
      <point x="121" y="208" type="curve" smooth="yes"/>
      <point x="121" y="268" type="line"/>
      <point x="40" y="268" type="line"/>
      <point x="40" y="411" type="line"/>
      <point x="121" y="411" type="line"/>
      <point x="121" y="491" type="line" smooth="yes"/>
      <point x="121" y="620"/>
      <point x="234" y="684"/>
      <point x="358" y="684" type="curve" smooth="yes"/>
      <point x="405" y="684"/>
      <point x="468" y="662"/>
      <point x="492" y="641" type="curve"/>
      <point x="440" y="517" type="line"/>
      <point x="417" y="530"/>
      <point x="387" y="536"/>
      <point x="370" y="536" type="curve" smooth="yes"/>
      <point x="327" y="536"/>
      <point x="303" y="511"/>
      <point x="303" y="471" type="curve" smooth="yes"/>
      <point x="303" y="411" type="line"/>
      <point x="436" y="411" type="line"/>
      <point x="453" y="268" type="line"/>
      <point x="303" y="268" type="line"/>
      <point x="303" y="188" type="line" smooth="yes"/>
      <point x="303" y="172"/>
      <point x="301" y="156"/>
      <point x="298" y="143" type="curve"/>
      <point x="495" y="143" type="line"/>
      <point x="512" y="0" type="line"/>
    </contour>
  </outline>
</glyph>
<glyph name="currency" format="2">
  <advance width="813"/>
  <unicode hex="00A4"/>
  <outline>
    <contour>
      <point x="783" y="20" type="line"/>
      <point x="641" y="-98" type="line"/>
      <point x="534" y="16" type="line"/>
      <point x="498" y="-1"/>
      <point x="451" y="-11"/>
      <point x="407" y="-12" type="curve"/>
      <point x="363" y="-11"/>
      <point x="315" y="-2"/>
      <point x="279" y="15" type="curve"/>
      <point x="167" y="-103" type="line"/>
      <point x="42" y="21" type="line"/>
      <point x="158" y="135" type="line"/>
      <point x="143" y="168"/>
      <point x="133" y="208"/>
      <point x="133" y="249" type="curve" smooth="yes"/>
      <point x="133" y="290"/>
      <point x="143" y="332"/>
      <point x="159" y="365" type="curve"/>
      <point x="30" y="481" type="line"/>
      <point x="172" y="599" type="line"/>
      <point x="279" y="485" type="line"/>
      <point x="315" y="502"/>
      <point x="362" y="512"/>
      <point x="406" y="512" type="curve" smooth="yes"/>
      <point x="450" y="512"/>
      <point x="498" y="503"/>
      <point x="534" y="486" type="curve"/>
      <point x="646" y="604" type="line"/>
      <point x="771" y="480" type="line"/>
      <point x="655" y="366" type="line"/>
      <point x="670" y="333"/>
      <point x="680" y="293"/>
      <point x="680" y="252" type="curve" smooth="yes"/>
      <point x="680" y="211"/>
      <point x="670" y="169"/>
      <point x="654" y="136" type="curve"/>
    </contour>
    <contour>
      <point x="501" y="251" type="curve" smooth="yes"/>
      <point x="501" y="303"/>
      <point x="459" y="342"/>
      <point x="406" y="342" type="curve" smooth="yes"/>
      <point x="350" y="342"/>
      <point x="313" y="301"/>
      <point x="312" y="250" type="curve"/>
      <point x="313" y="198"/>
      <point x="354" y="159"/>
      <point x="407" y="159" type="curve" smooth="yes"/>
      <point x="463" y="159"/>
      <point x="501" y="200"/>
    </contour>
  </outline>
</glyph>
<glyph name="yen" format="2">
  <advance width="654"/>
  <unicode hex="00A5"/>
  <outline>
    <contour>
      <point x="98" y="316" type="line"/>
      <point x="546" y="316" type="line"/>
      <point x="556" y="200" type="line"/>
      <point x="108" y="200" type="line"/>
    </contour>
    <contour>
      <point x="98" y="162" type="line"/>
      <point x="546" y="162" type="line"/>
      <point x="556" y="46" type="line"/>
      <point x="108" y="46" type="line"/>
    </contour>
    <contour>
      <point x="408" y="0" type="line"/>
      <point x="226" y="0" type="line"/>
      <point x="226" y="268" type="line"/>
      <point x="10" y="646" type="line"/>
      <point x="184" y="694" type="line"/>
      <point x="316" y="435" type="line"/>
      <point x="457" y="680" type="line"/>
      <point x="644" y="680" type="line"/>
      <point x="408" y="266" type="line"/>
    </contour>
  </outline>
</glyph>
<glyph name="brokenbar" format="2">
  <advance width="342"/>
  <unicode hex="00A6"/>
  <outline>
    <contour>
      <point x="80" y="713" type="line"/>
      <point x="262" y="697" type="line"/>
      <point x="262" y="394" type="line"/>
      <point x="80" y="410" type="line"/>
    </contour>
    <contour>
      <point x="80" y="303" type="line"/>
      <point x="262" y="287" type="line"/>
      <point x="262" y="-16" type="line"/>
      <point x="80" y="0" type="line"/>
    </contour>
  </outline>
</glyph>
<glyph name="section" format="2">
  <advance width="710"/>
  <unicode hex="00A7"/>
  <outline>
    <contour>
      <point x="419" y="74" type="curve"/>
      <point x="414" y="223" type="line"/>
      <point x="471" y="223"/>
      <point x="502" y="251"/>
      <point x="502" y="276" type="curve" smooth="yes"/>
      <point x="502" y="300"/>
      <point x="449" y="324"/>
      <point x="397" y="355" type="curve" smooth="yes"/>
      <point x="309" y="407"/>
      <point x="193" y="469"/>
      <point x="193" y="585" type="curve" smooth="yes"/>
      <point x="194" y="697"/>
      <point x="291" y="780"/>
      <point x="446" y="780" type="curve" smooth="yes"/>
      <point x="514" y="780"/>
      <point x="593" y="760"/>
      <point x="646" y="724" type="curve"/>
      <point x="592" y="601" type="line"/>
      <point x="520" y="626"/>
      <point x="493" y="631"/>
      <point x="448" y="631" type="curve" smooth="yes"/>
      <point x="407" y="631"/>
      <point x="381" y="608"/>
      <point x="381" y="583" type="curve" smooth="yes"/>
      <point x="381" y="554"/>
      <point x="430" y="537"/>
      <point x="484" y="506" type="curve" smooth="yes"/>
      <point x="580" y="451"/>
      <point x="690" y="385"/>
      <point x="690" y="274" type="curve" smooth="yes"/>
      <point x="690" y="159"/>
      <point x="587" y="74"/>
    </contour>
    <contour>
      <point x="33" y="-64" type="curve"/>
      <point x="93" y="73" type="line"/>
      <point x="128" y="52"/>
      <point x="202" y="30"/>
      <point x="251" y="30" type="curve" smooth="yes"/>
      <point x="308" y="30"/>
      <point x="339" y="58"/>
      <point x="339" y="83" type="curve" smooth="yes"/>
      <point x="339" y="107"/>
      <point x="286" y="131"/>
      <point x="234" y="162" type="curve" smooth="yes"/>
      <point x="146" y="214"/>
      <point x="30" y="276"/>
      <point x="30" y="392" type="curve" smooth="yes"/>
      <point x="31" y="504"/>
      <point x="128" y="587"/>
      <point x="283" y="587" type="curve"/>
      <point x="285" y="438" type="line"/>
      <point x="244" y="438"/>
      <point x="218" y="415"/>
      <point x="218" y="390" type="curve" smooth="yes"/>
      <point x="218" y="361"/>
      <point x="267" y="344"/>
      <point x="321" y="313" type="curve" smooth="yes"/>
      <point x="417" y="258"/>
      <point x="527" y="192"/>
      <point x="527" y="81" type="curve" smooth="yes"/>
      <point x="527" y="-34"/>
      <point x="424" y="-119"/>
      <point x="256" y="-119" type="curve" smooth="yes"/>
      <point x="187" y="-119"/>
      <point x="86" y="-96"/>
    </contour>
  </outline>
</glyph>
<glyph name="dieresis" format="2">
  <advance width="398"/>
  <unicode hex="00A8"/>
  <outline>
    <contour>
      <point x="93" y="603" type="curve" smooth="yes"/>
      <point x="49" y="603"/>
      <point x="10" y="639"/>
      <point x="10" y="686" type="curve" smooth="yes"/>
      <point x="10" y="731"/>
      <point x="49" y="769"/>
      <point x="93" y="769" type="curve" smooth="yes"/>
      <point x="141" y="769"/>
      <point x="177" y="731"/>
      <point x="177" y="686" type="curve" smooth="yes"/>
      <point x="177" y="639"/>
      <point x="141" y="603"/>
    </contour>
    <contour>
      <point x="304" y="603" type="curve" smooth="yes"/>
      <point x="260" y="603"/>
      <point x="221" y="639"/>
      <point x="221" y="686" type="curve" smooth="yes"/>
      <point x="221" y="731"/>
      <point x="260" y="769"/>
      <point x="304" y="769" type="curve" smooth="yes"/>
      <point x="352" y="769"/>
      <point x="388" y="731"/>
      <point x="388" y="686" type="curve" smooth="yes"/>
      <point x="388" y="639"/>
      <point x="352" y="603"/>
    </contour>
  </outline>
</glyph>
<glyph name="copyright" format="2">
  <advance width="825"/>
  <unicode hex="00A9"/>
  <outline>
    <contour>
      <point x="805" y="336" type="curve" smooth="yes"/>
      <point x="805" y="127"/>
      <point x="648" y="-42"/>
      <point x="412" y="-42" type="curve" smooth="yes"/>
      <point x="179" y="-42"/>
      <point x="20" y="127"/>
      <point x="20" y="336" type="curve" smooth="yes"/>
      <point x="20" y="549"/>
      <point x="179" y="716"/>
      <point x="412" y="716" type="curve" smooth="yes"/>
      <point x="648" y="716"/>
      <point x="805" y="549"/>
    </contour>
    <contour>
      <point x="155" y="337" type="curve" smooth="yes"/>
      <point x="155" y="193"/>
      <point x="257" y="82"/>
      <point x="412" y="82" type="curve" smooth="yes"/>
      <point x="568" y="82"/>
      <point x="668" y="193"/>
      <point x="668" y="337" type="curve" smooth="yes"/>
      <point x="668" y="482"/>
      <point x="583" y="593"/>
      <point x="412" y="593" type="curve" smooth="yes"/>
      <point x="257" y="593"/>
      <point x="155" y="482"/>
    </contour>
    <contour>
      <point x="424" y="115" type="curve" smooth="yes"/>
      <point x="287" y="115"/>
      <point x="193" y="195"/>
      <point x="193" y="336" type="curve" smooth="yes"/>
      <point x="193" y="477"/>
      <point x="287" y="563"/>
      <point x="424" y="563" type="curve" smooth="yes"/>
      <point x="459" y="563"/>
      <point x="520" y="559"/>
      <point x="569" y="520" type="curve"/>
      <point x="525" y="411" type="line"/>
      <point x="492" y="428"/>
      <point x="471" y="434"/>
      <point x="440" y="434" type="curve" smooth="yes"/>
      <point x="397" y="434"/>
      <point x="357" y="397"/>
      <point x="357" y="336" type="curve" smooth="yes"/>
      <point x="357" y="276"/>
      <point x="397" y="244"/>
      <point x="440" y="244" type="curve" smooth="yes"/>
      <point x="468" y="244"/>
      <point x="492" y="250"/>
      <point x="525" y="267" type="curve"/>
      <point x="569" y="158" type="line"/>
      <point x="520" y="119"/>
      <point x="459" y="115"/>
    </contour>
  </outline>
</glyph>
<glyph name="ordfeminine" format="2">
  <advance width="347"/>
  <unicode hex="00AA"/>
  <outline>
    <contour>
      <point x="138" y="461" type="curve" smooth="yes"/>
      <point x="138" y="456"/>
      <point x="146" y="451"/>
      <point x="158" y="451" type="curve" smooth="yes"/>
      <point x="173" y="451"/>
      <point x="188" y="458"/>
      <point x="197" y="470" type="curve"/>
      <point x="197" y="475" type="line"/>
      <point x="161" y="475" type="line" smooth="yes"/>
      <point x="148" y="475"/>
      <point x="138" y="470"/>
    </contour>
    <contour>
      <point x="66" y="559" type="curve"/>
      <point x="31" y="669" type="line"/>
      <point x="68" y="686"/>
      <point x="127" y="702"/>
      <point x="184" y="702" type="curve" smooth="yes"/>
      <point x="277" y="702"/>
      <point x="327" y="646"/>
      <point x="327" y="558" type="curve" smooth="yes"/>
      <point x="327" y="344" type="line"/>
      <point x="269" y="344" type="line"/>
      <point x="246" y="371" type="line"/>
      <point x="225" y="350"/>
      <point x="189" y="337"/>
      <point x="150" y="337" type="curve" smooth="yes"/>
      <point x="62" y="337"/>
      <point x="20" y="384"/>
      <point x="20" y="456" type="curve" smooth="yes"/>
      <point x="20" y="531"/>
      <point x="75" y="564"/>
      <point x="155" y="564" type="curve" smooth="yes"/>
      <point x="189" y="564" type="line"/>
      <point x="188" y="566" type="line" smooth="yes"/>
      <point x="183" y="576"/>
      <point x="168" y="580"/>
      <point x="152" y="580" type="curve" smooth="yes"/>
      <point x="128" y="580"/>
      <point x="91" y="570"/>
    </contour>
  </outline>
</glyph>
<glyph name="guillemotleft" format="2">
  <advance width="421"/>
  <unicode hex="00AB"/>
  <outline>
    <contour>
      <point x="211" y="224" type="line"/>
      <point x="211" y="269" type="line"/>
      <point x="368" y="421" type="line"/>
      <point x="401" y="314" type="line"/>
      <point x="335" y="247" type="line"/>
      <point x="401" y="179" type="line"/>
      <point x="368" y="73" type="line"/>
    </contour>
    <contour>
      <point x="30" y="224" type="line"/>
      <point x="30" y="269" type="line"/>
      <point x="187" y="421" type="line"/>
      <point x="220" y="314" type="line"/>
      <point x="154" y="247" type="line"/>
      <point x="220" y="179" type="line"/>
      <point x="187" y="73" type="line"/>
    </contour>
  </outline>
</glyph>
<glyph name="logicalnot" format="2">
  <advance width="554"/>
  <unicode hex="00AC"/>
  <outline>
    <contour>
      <point x="506" y="424" type="line"/>
      <point x="524" y="357" type="line"/>
      <point x="524" y="110" type="line"/>
      <point x="356" y="117" type="line"/>
      <point x="356" y="281" type="line"/>
      <point x="23" y="281" type="line"/>
      <point x="10" y="424" type="line"/>
    </contour>
  </outline>
</glyph>
<glyph name="registered" format="2">
  <advance width="723"/>
  <unicode hex="00AE"/>
  <outline>
    <contour>
      <point x="703" y="475" type="curve" smooth="yes"/>
      <point x="703" y="287"/>
      <point x="572" y="138"/>
      <point x="361" y="138" type="curve" smooth="yes"/>
      <point x="152" y="138"/>
      <point x="20" y="287"/>
      <point x="20" y="475" type="curve" smooth="yes"/>
      <point x="20" y="666"/>
      <point x="152" y="815"/>
      <point x="361" y="815" type="curve" smooth="yes"/>
      <point x="572" y="815"/>
      <point x="703" y="666"/>
    </contour>
    <contour>
      <point x="131" y="476" type="curve" smooth="yes"/>
      <point x="131" y="343"/>
      <point x="217" y="243"/>
      <point x="361" y="242" type="curve" smooth="yes"/>
      <point x="504" y="243"/>
      <point x="592" y="343"/>
      <point x="592" y="476" type="curve" smooth="yes"/>
      <point x="592" y="611"/>
      <point x="504" y="710"/>
      <point x="361" y="710" type="curve" smooth="yes"/>
      <point x="217" y="710"/>
      <point x="131" y="611"/>
    </contour>
    <contour>
      <point x="350" y="574" type="curve" smooth="yes"/>
      <point x="319" y="574" type="line"/>
      <point x="319" y="492" type="line"/>
      <point x="350" y="492" type="line" smooth="yes"/>
      <point x="379" y="492"/>
      <point x="401" y="506"/>
      <point x="401" y="534" type="curve" smooth="yes"/>
      <point x="401" y="566"/>
      <point x="382" y="574"/>
    </contour>
    <contour>
      <point x="517" y="300" type="line"/>
      <point x="398" y="300" type="line"/>
      <point x="355" y="412" type="line"/>
      <point x="319" y="412" type="line"/>
      <point x="319" y="300" type="line"/>
      <point x="214" y="300" type="line"/>
      <point x="214" y="656" type="line"/>
      <point x="363" y="656" type="line" smooth="yes"/>
      <point x="440" y="656"/>
      <point x="517" y="619"/>
      <point x="517" y="534" type="curve" smooth="yes"/>
      <point x="517" y="489"/>
      <point x="492" y="456"/>
      <point x="459" y="436" type="curve"/>
    </contour>
  </outline>
</glyph>
<glyph name="macron" format="2">
  <advance width="310"/>
  <unicode hex="00AF"/>
  <anchor x="162" y="485" name="_top"/>
  <outline>
    <contour>
      <point x="10" y="613" type="line"/>
      <point x="10" y="756" type="line"/>
      <point x="290" y="756" type="line"/>
      <point x="300" y="613" type="line"/>
    </contour>
  </outline>
</glyph>
<glyph name="degree" format="2">
  <advance width="295"/>
  <unicode hex="00B0"/>
  <outline>
    <contour>
      <point x="148" y="720" type="curve" smooth="yes"/>
      <point x="220" y="720"/>
      <point x="285" y="661"/>
      <point x="285" y="588" type="curve" smooth="yes"/>
      <point x="285" y="513"/>
      <point x="220" y="457"/>
      <point x="148" y="457" type="curve" smooth="yes"/>
      <point x="72" y="457"/>
      <point x="10" y="513"/>
      <point x="10" y="588" type="curve" smooth="yes"/>
      <point x="10" y="661"/>
      <point x="72" y="720"/>
    </contour>
    <contour>
      <point x="175" y="586" type="curve" smooth="yes"/>
      <point x="175" y="601"/>
      <point x="164" y="614"/>
      <point x="149" y="614" type="curve" smooth="yes"/>
      <point x="136" y="614"/>
      <point x="123" y="601"/>
      <point x="123" y="588" type="curve" smooth="yes"/>
      <point x="123" y="575"/>
      <point x="136" y="560"/>
      <point x="149" y="560" type="curve" smooth="yes"/>
      <point x="164" y="560"/>
      <point x="175" y="573"/>
    </contour>
  </outline>
</glyph>
<glyph name="plusminus" format="2">
  <advance width="545"/>
  <unicode hex="00B1"/>
  <outline>
    <contour>
      <point x="505" y="415" type="line"/>
      <point x="515" y="292" type="line"/>
      <point x="348" y="292" type="line"/>
      <point x="348" y="149" type="line"/>
      <point x="200" y="157" type="line"/>
      <point x="200" y="292" type="line"/>
      <point x="43" y="292" type="line"/>
      <point x="32" y="415" type="line"/>
      <point x="200" y="415" type="line"/>
      <point x="200" y="570" type="line"/>
      <point x="348" y="570" type="line"/>
      <point x="348" y="415" type="line"/>
    </contour>
    <contour>
      <point x="503" y="123" type="line"/>
      <point x="513" y="0" type="line"/>
      <point x="41" y="0" type="line"/>
      <point x="30" y="123" type="line"/>
    </contour>
  </outline>
</glyph>
<glyph name="twosuperior" format="2">
  <advance width="384"/>
  <unicode hex="00B2"/>
  <outline>
    <contour>
      <point x="180" y="771" type="curve" smooth="yes"/>
      <point x="301" y="771"/>
      <point x="347" y="704"/>
      <point x="347" y="643" type="curve" smooth="yes"/>
      <point x="347" y="578"/>
      <point x="320" y="526"/>
      <point x="252" y="465" type="curve" smooth="yes"/>
      <point x="229" y="444" type="line"/>
      <point x="352" y="444" type="line"/>
      <point x="364" y="337" type="line"/>
      <point x="35" y="337" type="line"/>
      <point x="35" y="427" type="line"/>
      <point x="163" y="540" type="line" smooth="yes"/>
      <point x="208" y="579"/>
      <point x="225" y="609"/>
      <point x="226" y="630" type="curve"/>
      <point x="226" y="647"/>
      <point x="209" y="660"/>
      <point x="174" y="660" type="curve" smooth="yes"/>
      <point x="139" y="660"/>
      <point x="110" y="645"/>
      <point x="73" y="626" type="curve"/>
      <point x="15" y="716" type="line"/>
      <point x="58" y="744"/>
      <point x="109" y="771"/>
    </contour>
  </outline>
</glyph>
<glyph name="threesuperior" format="2">
  <advance width="408"/>
  <unicode hex="00B3"/>
  <outline>
    <contour>
      <point x="191" y="771" type="curve" smooth="yes"/>
      <point x="302" y="771"/>
      <point x="374" y="718"/>
      <point x="374" y="638" type="curve" smooth="yes"/>
      <point x="374" y="603"/>
      <point x="345" y="554"/>
      <point x="318" y="541" type="curve"/>
      <point x="353" y="520"/>
      <point x="383" y="472"/>
      <point x="383" y="428" type="curve" smooth="yes"/>
      <point x="383" y="340"/>
      <point x="302" y="279"/>
      <point x="182" y="279" type="curve" smooth="yes"/>
      <point x="127" y="279"/>
      <point x="57" y="299"/>
      <point x="0" y="336" type="curve"/>
      <point x="73" y="427" type="line"/>
      <point x="116" y="400"/>
      <point x="148" y="389"/>
      <point x="183" y="389" type="curve" smooth="yes"/>
      <point x="216" y="389"/>
      <point x="242" y="407"/>
      <point x="242" y="432" type="curve" smooth="yes"/>
      <point x="242" y="461"/>
      <point x="219" y="477"/>
      <point x="190" y="477" type="curve" smooth="yes"/>
      <point x="113" y="477" type="line"/>
      <point x="102" y="585" type="line"/>
      <point x="163" y="585" type="line" smooth="yes"/>
      <point x="207" y="585"/>
      <point x="234" y="601"/>
      <point x="234" y="626" type="curve" smooth="yes"/>
      <point x="234" y="645"/>
      <point x="216" y="660"/>
      <point x="177" y="660" type="curve" smooth="yes"/>
      <point x="149" y="660"/>
      <point x="116" y="647"/>
      <point x="81" y="623" type="curve"/>
      <point x="16" y="716" type="line"/>
      <point x="69" y="757"/>
      <point x="132" y="771"/>
    </contour>
  </outline>
</glyph>
<glyph name="acute" format="2">
  <advance width="266"/>
  <unicode hex="00B4"/>
  <anchor x="102" y="485" name="_top"/>
  <outline>
    <contour>
      <point x="142" y="588" type="line"/>
      <point x="10" y="610" type="line"/>
      <point x="76" y="787" type="line"/>
      <point x="256" y="787" type="line"/>
    </contour>
  </outline>
</glyph>
<glyph name="mu" format="2">
  <advance width="620"/>
  <unicode hex="00B5"/>
  <outline>
    <contour>
      <point x="238" y="-209" type="line"/>
      <point x="56" y="-219" type="line"/>
      <point x="56" y="389" type="line"/>
      <point x="238" y="393" type="line"/>
    </contour>
    <contour>
      <point x="388" y="484" type="line"/>
      <point x="570" y="484" type="line"/>
      <point x="570" y="-1" type="line"/>
      <point x="462" y="-1" type="line"/>
      <point x="430" y="49" type="line"/>
      <point x="382" y="19"/>
      <point x="310" y="-17"/>
      <point x="232" y="-17" type="curve" smooth="yes"/>
      <point x="109" y="-17"/>
      <point x="56" y="63"/>
      <point x="56" y="171" type="curve" smooth="yes"/>
      <point x="56" y="484" type="line"/>
      <point x="238" y="484" type="line"/>
      <point x="238" y="188" type="line" smooth="yes"/>
      <point x="238" y="158"/>
      <point x="250" y="130"/>
      <point x="290" y="130" type="curve" smooth="yes"/>
      <point x="313" y="130"/>
      <point x="359" y="145"/>
      <point x="388" y="158" type="curve"/>
    </contour>
  </outline>
</glyph>
<glyph name="paragraph" format="2">
  <advance width="1053"/>
  <unicode hex="00B6"/>
  <outline>
    <contour>
      <point x="534" y="0" type="line"/>
      <point x="353" y="0" type="line"/>
      <point x="353" y="191" type="line"/>
      <point x="328" y="191" type="line" smooth="yes"/>
      <point x="165" y="191"/>
      <point x="20" y="268"/>
      <point x="20" y="439" type="curve" smooth="yes"/>
      <point x="20" y="612"/>
      <point x="152" y="680"/>
      <point x="315" y="680" type="curve" smooth="yes"/>
      <point x="1033" y="680" type="line"/>
      <point x="1033" y="537" type="line"/>
      <point x="895" y="537" type="line"/>
      <point x="895" y="0" type="line"/>
      <point x="713" y="0" type="line"/>
      <point x="713" y="537" type="line"/>
      <point x="534" y="537" type="line"/>
    </contour>
  </outline>
</glyph>
<glyph name="periodcentered" format="2">
  <advance width="243"/>
  <unicode hex="00B7"/>
  <outline>
    <contour>
      <point x="122" y="172" type="curve" smooth="yes"/>
      <point x="70" y="172"/>
      <point x="30" y="211"/>
      <point x="30" y="263" type="curve" smooth="yes"/>
      <point x="30" y="315"/>
      <point x="70" y="355"/>
      <point x="122" y="355" type="curve" smooth="yes"/>
      <point x="173" y="355"/>
      <point x="213" y="315"/>
      <point x="213" y="263" type="curve" smooth="yes"/>
      <point x="213" y="211"/>
      <point x="173" y="172"/>
    </contour>
  </outline>
</glyph>
<glyph name="cedilla" format="2">
  <advance width="277"/>
  <unicode hex="00B8"/>
  <anchor x="148" y="0" name="_bottom"/>
  <outline>
    <contour>
      <point x="50" y="-94" type="curve"/>
      <point x="93" y="13" type="line"/>
      <point x="219" y="13" type="line"/>
      <point x="199" y="-39" type="line"/>
      <point x="248" y="-55"/>
      <point x="267" y="-107"/>
      <point x="267" y="-142" type="curve" smooth="yes"/>
      <point x="267" y="-218"/>
      <point x="198" y="-262"/>
      <point x="126" y="-262" type="curve" smooth="yes"/>
      <point x="87" y="-262"/>
      <point x="43" y="-246"/>
      <point x="10" y="-221" type="curve"/>
      <point x="48" y="-135" type="line"/>
      <point x="61" y="-140"/>
      <point x="85" y="-150"/>
      <point x="104" y="-150" type="curve" smooth="yes"/>
      <point x="121" y="-150"/>
      <point x="135" y="-144"/>
      <point x="135" y="-132" type="curve" smooth="yes"/>
      <point x="135" y="-107"/>
      <point x="89" y="-98"/>
    </contour>
  </outline>
</glyph>
<glyph name="onesuperior" format="2">
  <advance width="336"/>
  <unicode hex="00B9"/>
  <outline>
    <contour>
      <point x="276" y="337" type="line"/>
      <point x="139" y="337" type="line"/>
      <point x="139" y="608" type="line"/>
      <point x="45" y="566" type="line"/>
      <point x="10" y="683" type="line"/>
      <point x="185" y="764" type="line"/>
      <point x="276" y="764" type="line"/>
    </contour>
  </outline>
</glyph>
<glyph name="ordmasculine" format="2">
  <advance width="402"/>
  <unicode hex="00BA"/>
  <outline>
    <contour>
      <point x="200" y="702" type="curve" smooth="yes"/>
      <point x="316" y="702"/>
      <point x="382" y="629"/>
      <point x="382" y="517" type="curve" smooth="yes"/>
      <point x="382" y="406"/>
      <point x="308" y="337"/>
      <point x="195" y="337" type="curve" smooth="yes"/>
      <point x="84" y="337"/>
      <point x="20" y="407"/>
      <point x="20" y="519" type="curve" smooth="yes"/>
      <point x="20" y="631"/>
      <point x="89" y="702"/>
    </contour>
    <contour>
      <point x="202" y="578" type="curve" smooth="yes"/>
      <point x="175" y="578"/>
      <point x="158" y="560"/>
      <point x="158" y="519" type="curve" smooth="yes"/>
      <point x="158" y="479"/>
      <point x="169" y="458"/>
      <point x="198" y="458" type="curve" smooth="yes"/>
      <point x="230" y="458"/>
      <point x="244" y="477"/>
      <point x="244" y="517" type="curve" smooth="yes"/>
      <point x="244" y="554"/>
      <point x="234" y="578"/>
    </contour>
  </outline>
</glyph>
<glyph name="guillemotright" format="2">
  <advance width="421"/>
  <unicode hex="00BB"/>
  <outline>
    <contour>
      <point x="210" y="270" type="line"/>
      <point x="210" y="225" type="line"/>
      <point x="53" y="73" type="line"/>
      <point x="20" y="180" type="line"/>
      <point x="86" y="247" type="line"/>
      <point x="20" y="315" type="line"/>
      <point x="53" y="421" type="line"/>
    </contour>
    <contour>
      <point x="391" y="270" type="line"/>
      <point x="391" y="225" type="line"/>
      <point x="234" y="73" type="line"/>
      <point x="201" y="180" type="line"/>
      <point x="267" y="247" type="line"/>
      <point x="201" y="315" type="line"/>
      <point x="234" y="421" type="line"/>
    </contour>
  </outline>
</glyph>
<glyph name="onequarter" format="2">
  <advance width="987"/>
  <unicode hex="00BC"/>
  <outline>
    <contour>
      <point x="967" y="36" type="line"/>
      <point x="960" y="-75" type="line"/>
      <point x="889" y="-75" type="line"/>
      <point x="889" y="-166" type="line"/>
      <point x="748" y="-166" type="line"/>
      <point x="748" y="-75" type="line"/>
      <point x="532" y="-75" type="line"/>
      <point x="516" y="28" type="line"/>
      <point x="784" y="326" type="line"/>
      <point x="889" y="326" type="line"/>
      <point x="889" y="36" type="line"/>
    </contour>
    <contour>
      <point x="748" y="113" type="line"/>
      <point x="682" y="36" type="line"/>
      <point x="748" y="36" type="line"/>
    </contour>
    <contour>
      <point x="665" y="700" type="line"/>
      <point x="833" y="700" type="line"/>
      <point x="236" y="-134" type="line"/>
      <point x="69" y="-134" type="line"/>
    </contour>
    <contour>
      <point x="276" y="337" type="line"/>
      <point x="139" y="337" type="line"/>
      <point x="139" y="608" type="line"/>
      <point x="45" y="566" type="line"/>
      <point x="10" y="683" type="line"/>
      <point x="185" y="764" type="line"/>
      <point x="276" y="764" type="line"/>
    </contour>
  </outline>
</glyph>
<glyph name="onehalf" format="2">
  <advance width="980"/>
  <unicode hex="00BD"/>
  <outline>
    <contour>
      <point x="665" y="700" type="line"/>
      <point x="833" y="700" type="line"/>
      <point x="236" y="-134" type="line"/>
      <point x="69" y="-134" type="line"/>
    </contour>
    <contour>
      <point x="276" y="337" type="line"/>
      <point x="139" y="337" type="line"/>
      <point x="139" y="608" type="line"/>
      <point x="45" y="566" type="line"/>
      <point x="10" y="683" type="line"/>
      <point x="185" y="764" type="line"/>
      <point x="276" y="764" type="line"/>
    </contour>
    <contour>
      <point x="776" y="325" type="curve" smooth="yes"/>
      <point x="897" y="325"/>
      <point x="943" y="258"/>
      <point x="943" y="197" type="curve" smooth="yes"/>
      <point x="943" y="132"/>
      <point x="916" y="80"/>
      <point x="848" y="19" type="curve" smooth="yes"/>
      <point x="825" y="-2" type="line"/>
      <point x="948" y="-2" type="line"/>
      <point x="960" y="-109" type="line"/>
      <point x="631" y="-109" type="line"/>
      <point x="631" y="-19" type="line"/>
      <point x="759" y="94" type="line" smooth="yes"/>
      <point x="804" y="133"/>
      <point x="821" y="163"/>
      <point x="822" y="184" type="curve"/>
      <point x="822" y="201"/>
      <point x="805" y="214"/>
      <point x="770" y="214" type="curve" smooth="yes"/>
      <point x="735" y="214"/>
      <point x="706" y="199"/>
      <point x="669" y="180" type="curve"/>
      <point x="611" y="270" type="line"/>
      <point x="654" y="298"/>
      <point x="705" y="325"/>
    </contour>
  </outline>
</glyph>
<glyph name="questiondown" format="2">
  <advance width="467"/>
  <unicode hex="00BF"/>
  <outline>
    <contour>
      <point x="300" y="481" type="curve" smooth="yes"/>
      <point x="249" y="481"/>
      <point x="209" y="521"/>
      <point x="209" y="573" type="curve" smooth="yes"/>
      <point x="209" y="625"/>
      <point x="249" y="664"/>
      <point x="300" y="664" type="curve" smooth="yes"/>
      <point x="352" y="664"/>
      <point x="392" y="625"/>
      <point x="392" y="573" type="curve" smooth="yes"/>
      <point x="392" y="521"/>
      <point x="352" y="481"/>
    </contour>
    <contour>
      <point x="266" y="-37" type="curve" smooth="yes"/>
      <point x="126" y="-37"/>
      <point x="30" y="40"/>
      <point x="30" y="155" type="curve" smooth="yes"/>
      <point x="30" y="236"/>
      <point x="80" y="300"/>
      <point x="207" y="345" type="curve"/>
      <point x="219" y="460" type="line"/>
      <point x="362" y="421" type="line"/>
      <point x="369" y="262" type="line"/>
      <point x="281" y="234"/>
      <point x="218" y="188"/>
      <point x="218" y="152" type="curve" smooth="yes"/>
      <point x="218" y="127"/>
      <point x="240" y="111"/>
      <point x="269" y="111" type="curve" smooth="yes"/>
      <point x="302" y="111"/>
      <point x="354" y="119"/>
      <point x="434" y="164" type="curve"/>
      <point x="457" y="15" type="line"/>
      <point x="389" y="-24"/>
      <point x="325" y="-37"/>
    </contour>
  </outline>
</glyph>
<glyph name="AE" format="2">
  <advance width="987"/>
  <unicode hex="00C6"/>
  <outline>
    <contour>
      <point x="185" y="-13" type="line"/>
      <point x="10" y="13" type="line"/>
      <point x="469" y="680" type="line"/>
      <point x="920" y="680" type="line"/>
      <point x="937" y="537" type="line"/>
      <point x="651" y="537" type="line"/>
      <point x="651" y="413" type="line"/>
      <point x="860" y="413" type="line"/>
      <point x="877" y="270" type="line"/>
      <point x="651" y="270" type="line"/>
      <point x="651" y="143" type="line"/>
      <point x="950" y="143" type="line"/>
      <point x="967" y="0" type="line"/>
      <point x="469" y="0" type="line"/>
      <point x="469" y="128" type="line"/>
      <point x="277" y="128" type="line"/>
    </contour>
    <contour>
      <point x="469" y="399" type="line"/>
      <point x="378" y="271" type="line"/>
      <point x="469" y="271" type="line"/>
    </contour>
  </outline>
</glyph>
<glyph name="Eth" format="2">
  <advance width="739"/>
  <unicode hex="00D0"/>
  <outline>
    <contour>
      <point x="386" y="270" type="line"/>
      <point x="17" y="270" type="line"/>
      <point x="0" y="413" type="line"/>
      <point x="369" y="413" type="line"/>
    </contour>
    <contour>
      <point x="384" y="0" type="curve" smooth="yes"/>
      <point x="80" y="0" type="line"/>
      <point x="80" y="680" type="line"/>
      <point x="388" y="680" type="line" smooth="yes"/>
      <point x="597" y="680"/>
      <point x="709" y="537"/>
      <point x="709" y="344" type="curve" smooth="yes"/>
      <point x="709" y="132"/>
      <point x="575" y="0"/>
    </contour>
    <contour>
      <point x="379" y="537" type="curve" smooth="yes"/>
      <point x="262" y="537" type="line"/>
      <point x="262" y="143" type="line"/>
      <point x="372" y="143" type="line" smooth="yes"/>
      <point x="456" y="143"/>
      <point x="521" y="209"/>
      <point x="521" y="344" type="curve" smooth="yes"/>
      <point x="521" y="456"/>
      <point x="471" y="537"/>
    </contour>
  </outline>
</glyph>
<glyph name="multiply" format="2">
  <advance width="607"/>
  <unicode hex="00D7"/>
  <outline>
    <contour>
      <point x="385" y="250" type="line"/>
      <point x="577" y="484" type="line"/>
      <point x="392" y="484" type="line"/>
      <point x="303" y="378" type="line"/>
      <point x="228" y="484" type="line"/>
      <point x="47" y="484" type="line"/>
      <point x="222" y="263" type="line"/>
      <point x="30" y="29" type="line"/>
      <point x="215" y="29" type="line"/>
      <point x="303" y="135" type="line"/>
      <point x="379" y="29" type="line"/>
      <point x="560" y="29" type="line"/>
    </contour>
  </outline>
</glyph>
<glyph name="Oslash" format="2">
  <advance width="763"/>
  <unicode hex="00D8"/>
  <outline>
    <contour>
      <point x="381" y="-14" type="curve" smooth="yes"/>
      <point x="589" y="-14"/>
      <point x="733" y="133"/>
      <point x="733" y="344" type="curve" smooth="yes"/>
      <point x="733" y="539"/>
      <point x="602" y="694"/>
      <point x="381" y="694" type="curve" smooth="yes"/>
      <point x="177" y="694"/>
      <point x="30" y="546"/>
      <point x="30" y="337" type="curve" smooth="yes"/>
      <point x="30" y="142"/>
      <point x="164" y="-14"/>
    </contour>
    <contour>
      <point x="380" y="138" type="curve" smooth="yes"/>
      <point x="277" y="138"/>
      <point x="217" y="223"/>
      <point x="217" y="338" type="curve" smooth="yes"/>
      <point x="217" y="461"/>
      <point x="292" y="542"/>
      <point x="383" y="542" type="curve" smooth="yes"/>
      <point x="484" y="542"/>
      <point x="546" y="457"/>
      <point x="546" y="344" type="curve" smooth="yes"/>
      <point x="546" y="207"/>
      <point x="473" y="138"/>
    </contour>
    <contour>
      <point x="341" y="77" type="line"/>
      <point x="540" y="542" type="line"/>
      <point x="421" y="596" type="line"/>
      <point x="233" y="140" type="line"/>
    </contour>
  </outline>
</glyph>
<glyph name="Thorn" format="2">
  <advance width="666"/>
  <unicode hex="00DE"/>
  <outline>
    <contour>
      <point x="366" y="600" type="curve" smooth="yes"/>
      <point x="262" y="600" type="line"/>
      <point x="262" y="680" type="line"/>
      <point x="80" y="680" type="line"/>
      <point x="80" y="0" type="line"/>
      <point x="262" y="0" type="line"/>
      <point x="262" y="118" type="line"/>
      <point x="358" y="118" type="line" smooth="yes"/>
      <point x="505" y="118"/>
      <point x="646" y="192"/>
      <point x="646" y="355" type="curve" smooth="yes"/>
      <point x="646" y="519"/>
      <point x="517" y="600"/>
    </contour>
    <contour>
      <point x="362" y="261" type="curve" smooth="yes"/>
      <point x="262" y="261" type="line"/>
      <point x="262" y="457" type="line"/>
      <point x="360" y="457" type="line" smooth="yes"/>
      <point x="421" y="457"/>
      <point x="458" y="415"/>
      <point x="458" y="355" type="curve" smooth="yes"/>
      <point x="458" y="302"/>
      <point x="418" y="261"/>
    </contour>
  </outline>
</glyph>
<glyph name="germandbls" format="2">
  <advance width="660"/>
  <unicode hex="00DF"/>
  <outline>
    <contour>
      <point x="60" y="0" type="line"/>
      <point x="60" y="452" type="line" smooth="yes"/>
      <point x="60" y="598"/>
      <point x="163" y="702"/>
      <point x="323" y="702" type="curve" smooth="yes"/>
      <point x="480" y="702"/>
      <point x="596" y="624"/>
      <point x="596" y="503" type="curve" smooth="yes"/>
      <point x="596" y="459"/>
      <point x="579" y="397"/>
      <point x="529" y="364" type="curve"/>
      <point x="586" y="341"/>
      <point x="630" y="269"/>
      <point x="630" y="200" type="curve" smooth="yes"/>
      <point x="630" y="77"/>
      <point x="532" y="0"/>
      <point x="388" y="0" type="curve" smooth="yes"/>
      <point x="295" y="0" type="line"/>
      <point x="295" y="149" type="line"/>
      <point x="371" y="149" type="line" smooth="yes"/>
      <point x="411" y="149"/>
      <point x="445" y="173"/>
      <point x="445" y="214" type="curve" smooth="yes"/>
      <point x="445" y="261"/>
      <point x="414" y="286"/>
      <point x="379" y="286" type="curve" smooth="yes"/>
      <point x="300" y="286" type="line"/>
      <point x="300" y="416" type="line"/>
      <point x="327" y="416" type="line" smooth="yes"/>
      <point x="374" y="416"/>
      <point x="414" y="453"/>
      <point x="414" y="485" type="curve" smooth="yes"/>
      <point x="414" y="518"/>
      <point x="381" y="549"/>
      <point x="329" y="549" type="curve" smooth="yes"/>
      <point x="290" y="549"/>
      <point x="242" y="518"/>
      <point x="242" y="457" type="curve" smooth="yes"/>
      <point x="242" y="0" type="line"/>
    </contour>
  </outline>
</glyph>
<glyph name="ae" format="2">
  <advance width="793"/>
  <unicode hex="00E6"/>
  <outline>
    <contour>
      <point x="773" y="197" type="line"/>
      <point x="773" y="250" type="line" smooth="yes"/>
      <point x="773" y="386"/>
      <point x="696" y="502"/>
      <point x="541" y="502" type="curve" smooth="yes"/>
      <point x="486" y="502"/>
      <point x="436" y="488"/>
      <point x="394" y="463" type="curve"/>
      <point x="362" y="488"/>
      <point x="317" y="502"/>
      <point x="262" y="502" type="curve" smooth="yes"/>
      <point x="182" y="502"/>
      <point x="99" y="479"/>
      <point x="48" y="456" type="curve"/>
      <point x="96" y="325" type="line"/>
      <point x="133" y="341"/>
      <point x="184" y="354"/>
      <point x="217" y="354" type="curve" smooth="yes"/>
      <point x="249" y="354"/>
      <point x="273" y="339"/>
      <point x="279" y="304" type="curve" smooth="yes"/>
      <point x="280" y="298" type="line"/>
      <point x="222" y="298" type="line" smooth="yes"/>
      <point x="110" y="298"/>
      <point x="32" y="261"/>
      <point x="32" y="156" type="curve" smooth="yes"/>
      <point x="32" y="56"/>
      <point x="91" y="-11"/>
      <point x="214" y="-11" type="curve" smooth="yes"/>
      <point x="298" y="-11"/>
      <point x="341" y="20"/>
      <point x="370" y="48" type="curve"/>
      <point x="421" y="9"/>
      <point x="490" y="-11"/>
      <point x="570" y="-11" type="curve" smooth="yes"/>
      <point x="651" y="-11"/>
      <point x="733" y="13"/>
      <point x="772" y="41" type="curve"/>
      <point x="721" y="164" type="line"/>
      <point x="692" y="149"/>
      <point x="646" y="131"/>
      <point x="588" y="131" type="curve" smooth="yes"/>
      <point x="526" y="131"/>
      <point x="491" y="157"/>
      <point x="478" y="197" type="curve"/>
    </contour>
    <contour>
      <point x="473" y="287" type="line"/>
      <point x="472" y="324"/>
      <point x="503" y="356"/>
      <point x="536" y="356" type="curve" smooth="yes"/>
      <point x="581" y="356"/>
      <point x="599" y="315"/>
      <point x="599" y="287" type="curve"/>
    </contour>
    <contour>
      <point x="283" y="198" type="line"/>
      <point x="285" y="182"/>
      <point x="289" y="167"/>
      <point x="294" y="153" type="curve"/>
      <point x="275" y="139"/>
      <point x="252" y="125"/>
      <point x="217" y="125" type="curve" smooth="yes"/>
      <point x="198" y="125"/>
      <point x="184" y="139"/>
      <point x="184" y="159" type="curve" smooth="yes"/>
      <point x="184" y="182"/>
      <point x="201" y="198"/>
      <point x="225" y="198" type="curve" smooth="yes"/>
    </contour>
  </outline>
</glyph>
<glyph name="divide" format="2">
  <advance width="512"/>
  <unicode hex="00F7"/>
  <outline>
    <contour>
      <point x="256" y="368" type="curve" smooth="yes"/>
      <point x="204" y="368"/>
      <point x="164" y="407"/>
      <point x="164" y="459" type="curve" smooth="yes"/>
      <point x="164" y="511"/>
      <point x="204" y="551"/>
      <point x="256" y="551" type="curve" smooth="yes"/>
      <point x="307" y="551"/>
      <point x="347" y="511"/>
      <point x="347" y="459" type="curve" smooth="yes"/>
      <point x="347" y="407"/>
      <point x="307" y="368"/>
    </contour>
    <contour>
      <point x="472" y="340" type="line"/>
      <point x="482" y="207" type="line"/>
      <point x="41" y="207" type="line"/>
      <point x="30" y="340" type="line"/>
    </contour>
    <contour>
      <point x="256" y="0" type="curve" smooth="yes"/>
      <point x="204" y="0"/>
      <point x="164" y="39"/>
      <point x="164" y="91" type="curve" smooth="yes"/>
      <point x="164" y="143"/>
      <point x="204" y="183"/>
      <point x="256" y="183" type="curve" smooth="yes"/>
      <point x="307" y="183"/>
      <point x="347" y="143"/>
      <point x="347" y="91" type="curve" smooth="yes"/>
      <point x="347" y="39"/>
      <point x="307" y="0"/>
    </contour>
  </outline>
</glyph>
<glyph name="thorn" format="2">
  <advance width="579"/>
  <unicode hex="00FE"/>
  <outline>
    <contour>
      <point x="310" y="502" type="curve" smooth="yes"/>
      <point x="289.445" y="502"/>
      <point x="263.861" y="495.714"/>
      <point x="238" y="485.545" type="curve"/>
      <point x="238" y="706" type="line"/>
      <point x="56" y="695" type="line"/>
      <point x="56" y="-219" type="line"/>
      <point x="238" y="-209" type="line"/>
      <point x="238" y="2.487" type="line"/>
      <point x="262.951" y="-6.823"/>
      <point x="285.65" y="-11"/>
      <point x="302" y="-11" type="curve" smooth="yes"/>
      <point x="455" y="-11"/>
      <point x="559" y="76"/>
      <point x="559" y="249" type="curve" smooth="yes"/>
      <point x="559" y="422"/>
      <point x="453" y="502"/>
    </contour>
    <contour>
      <point x="290" y="129" type="curve" smooth="yes"/>
      <point x="273.131" y="129"/>
      <point x="255.798" y="133.647"/>
      <point x="238" y="142.49" type="curve"/>
      <point x="238" y="347.196" type="line"/>
      <point x="253.097" y="356.697"/>
      <point x="267.548" y="362"/>
      <point x="282" y="362" type="curve" smooth="yes"/>
      <point x="339" y="362"/>
      <point x="371" y="322"/>
      <point x="371" y="248" type="curve" smooth="yes"/>
      <point x="371" y="173"/>
      <point x="335" y="129"/>
    </contour>
  </outline>
</glyph>
<glyph name="Aogonek" format="2">
  <advance width="711"/>
  <unicode hex="0104"/>
  <anchor x="627" y="4" name="_bottom"/>
  <outline>
    <contour>
      <point x="531" y="9" type="curve"/>
      <point x="701" y="9" type="line"/>
      <point x="688" y="-8"/>
      <point x="669" y="-50"/>
      <point x="669" y="-75" type="curve" smooth="yes"/>
      <point x="669" y="-91"/>
      <point x="681" y="-107"/>
      <point x="698" y="-107" type="curve" smooth="yes"/>
      <point x="711" y="-107"/>
      <point x="723" y="-104"/>
      <point x="742" y="-87" type="curve"/>
      <point x="803" y="-189" type="line"/>
      <point x="780" y="-216"/>
      <point x="707" y="-236"/>
      <point x="654" y="-236" type="curve" smooth="yes"/>
      <point x="557" y="-236"/>
      <point x="506" y="-164"/>
      <point x="506" y="-89" type="curve" smooth="yes"/>
      <point x="506" y="-64"/>
      <point x="518" y="-16"/>
    </contour>
    <component base="A"/>
  </outline>
</glyph>
<glyph name="aogonek" format="2">
  <advance width="509"/>
  <unicode hex="0105"/>
  <outline>
    <contour>
      <point x="345" y="54" type="curve"/>
      <point x="463" y="0" type="line"/>
      <point x="450" y="-17"/>
      <point x="431" y="-59"/>
      <point x="431" y="-84" type="curve" smooth="yes"/>
      <point x="431" y="-100"/>
      <point x="443" y="-116"/>
      <point x="460" y="-116" type="curve" smooth="yes"/>
      <point x="473" y="-116"/>
      <point x="485" y="-113"/>
      <point x="504" y="-96" type="curve"/>
      <point x="565" y="-198" type="line"/>
      <point x="542" y="-225"/>
      <point x="495" y="-245"/>
      <point x="442" y="-245" type="curve" smooth="yes"/>
      <point x="345" y="-245"/>
      <point x="294" y="-173"/>
      <point x="294" y="-108" type="curve" smooth="yes"/>
      <point x="294" y="-73"/>
      <point x="295" y="-31"/>
    </contour>
    <component base="a"/>
  </outline>
</glyph>
<glyph name="dcaron" format="2">
  <advance width="796"/>
  <unicode hex="010F"/>
  <outline>
    <contour>
      <point x="674" y="742" type="curve" smooth="yes"/>
      <point x="725" y="742"/>
      <point x="766" y="699"/>
      <point x="766" y="635" type="curve" smooth="yes"/>
      <point x="766" y="556"/>
      <point x="697" y="474"/>
      <point x="609" y="441" type="curve"/>
      <point x="573" y="521" type="line"/>
      <point x="592" y="532"/>
      <point x="620" y="555"/>
      <point x="625" y="572" type="curve"/>
      <point x="601" y="587"/>
      <point x="582" y="617"/>
      <point x="582" y="650" type="curve" smooth="yes"/>
      <point x="582" y="695"/>
      <point x="622" y="742"/>
    </contour>
    <component base="d"/>
  </outline>
</glyph>
<glyph name="dcroat" format="2">
  <advance width="583"/>
  <unicode hex="0111"/>
  <outline>
    <contour>
      <point x="400" y="195" type="line"/>
      <point x="361" y="155"/>
      <point x="329" y="129"/>
      <point x="297" y="129" type="curve" smooth="yes"/>
      <point x="240" y="129"/>
      <point x="208" y="169"/>
      <point x="208" y="243" type="curve" smooth="yes"/>
      <point x="208" y="318"/>
      <point x="244" y="362"/>
      <point x="289" y="362" type="curve" smooth="yes"/>
      <point x="324" y="362"/>
      <point x="361" y="342"/>
      <point x="400" y="306" type="curve"/>
      <point x="451" y="413" type="line"/>
      <point x="395" y="477"/>
      <point x="317" y="502"/>
      <point x="277" y="502" type="curve" smooth="yes"/>
      <point x="124" y="502"/>
      <point x="20" y="415"/>
      <point x="20" y="242" type="curve" smooth="yes"/>
      <point x="20" y="69"/>
      <point x="126" y="-11"/>
      <point x="269" y="-11" type="curve" smooth="yes"/>
      <point x="324" y="-11"/>
      <point x="415" y="34"/>
      <point x="451" y="78" type="curve"/>
    </contour>
    <contour>
      <point x="523" y="550" type="line"/>
      <point x="583" y="550" type="line"/>
      <point x="566" y="663" type="line"/>
      <point x="523" y="663" type="line"/>
      <point x="523" y="706" type="line"/>
      <point x="341" y="695" type="line"/>
      <point x="341" y="663" type="line"/>
      <point x="237" y="663" type="line"/>
      <point x="254" y="550" type="line"/>
      <point x="341" y="550" type="line"/>
      <point x="341" y="117" type="line"/>
      <point x="431" y="0" type="line"/>
      <point x="523" y="0" type="line"/>
    </contour>
  </outline>
</glyph>
<glyph name="gcommaaccent" format="2">
  <advance width="579"/>
  <unicode hex="0123"/>
  <outline>
    <contour>
      <point x="273" y="541" type="curve" smooth="yes"/>
      <point x="222" y="541"/>
      <point x="181" y="584"/>
      <point x="181" y="648" type="curve" smooth="yes"/>
      <point x="181" y="727"/>
      <point x="250" y="809"/>
      <point x="338" y="842" type="curve"/>
      <point x="374" y="762" type="line"/>
      <point x="355" y="751"/>
      <point x="327" y="728"/>
      <point x="322" y="711" type="curve"/>
      <point x="346" y="696"/>
      <point x="365" y="666"/>
      <point x="365" y="633" type="curve" smooth="yes"/>
      <point x="365" y="588"/>
      <point x="325" y="541"/>
    </contour>
    <contour>
      <point x="523" y="484" type="line"/>
      <point x="523" y="-16" type="line" smooth="yes"/>
      <point x="523" y="-140"/>
      <point x="417" y="-230"/>
      <point x="256" y="-230" type="curve" smooth="yes"/>
      <point x="215" y="-230"/>
      <point x="97" y="-215"/>
      <point x="34" y="-174" type="curve"/>
      <point x="89" y="-46" type="line"/>
      <point x="154" y="-78"/>
      <point x="203" y="-83"/>
      <point x="243" y="-83" type="curve" smooth="yes"/>
      <point x="300" y="-83"/>
      <point x="341" y="-54"/>
      <point x="341" y="-15" type="curve" smooth="yes"/>
      <point x="341" y="370" type="line"/>
      <point x="432" y="484" type="line"/>
    </contour>
    <contour>
      <point x="400" y="195" type="curve"/>
      <point x="451" y="78" type="line"/>
      <point x="415" y="34"/>
      <point x="324" y="-11"/>
      <point x="269" y="-11" type="curve" smooth="yes"/>
      <point x="126" y="-11"/>
      <point x="20" y="69"/>
      <point x="20" y="242" type="curve" smooth="yes"/>
      <point x="20" y="415"/>
      <point x="124" y="502"/>
      <point x="277" y="502" type="curve" smooth="yes"/>
      <point x="317" y="502"/>
      <point x="395" y="477"/>
      <point x="451" y="413" type="curve"/>
      <point x="400" y="306" type="line"/>
      <point x="361" y="342"/>
      <point x="324" y="362"/>
      <point x="289" y="362" type="curve" smooth="yes"/>
      <point x="244" y="362"/>
      <point x="208" y="318"/>
      <point x="208" y="243" type="curve" smooth="yes"/>
      <point x="208" y="169"/>
      <point x="240" y="129"/>
      <point x="297" y="129" type="curve" smooth="yes"/>
      <point x="329" y="129"/>
      <point x="361" y="155"/>
    </contour>
  </outline>
</glyph>
<glyph name="Iogonek" format="2">
  <advance width="342"/>
  <unicode hex="012E"/>
  <outline>
    <contour>
      <point x="80" y="0" type="curve"/>
      <point x="262" y="0" type="line"/>
      <point x="249" y="-7"/>
      <point x="202" y="-29"/>
      <point x="202" y="-84" type="curve" smooth="yes"/>
      <point x="202" y="-100"/>
      <point x="214" y="-116"/>
      <point x="231" y="-116" type="curve" smooth="yes"/>
      <point x="244" y="-116"/>
      <point x="256" y="-113"/>
      <point x="275" y="-96" type="curve"/>
      <point x="336" y="-198" type="line"/>
      <point x="313" y="-225"/>
      <point x="266" y="-245"/>
      <point x="213" y="-245" type="curve" smooth="yes"/>
      <point x="116" y="-245"/>
      <point x="65" y="-173"/>
      <point x="65" y="-98" type="curve" smooth="yes"/>
      <point x="65" y="-73"/>
      <point x="70" y="-25"/>
    </contour>
    <component base="I"/>
  </outline>
</glyph>
<glyph name="iogonek" format="2">
  <advance width="282"/>
  <unicode hex="012F"/>
  <outline>
    <contour>
      <point x="50" y="0" type="curve"/>
      <point x="232" y="0" type="line"/>
      <point x="219" y="-7"/>
      <point x="172" y="-29"/>
      <point x="172" y="-84" type="curve" smooth="yes"/>
      <point x="172" y="-100"/>
      <point x="184" y="-116"/>
      <point x="201" y="-116" type="curve" smooth="yes"/>
      <point x="214" y="-116"/>
      <point x="226" y="-113"/>
      <point x="245" y="-96" type="curve"/>
      <point x="306" y="-198" type="line"/>
      <point x="283" y="-225"/>
      <point x="236" y="-245"/>
      <point x="183" y="-245" type="curve" smooth="yes"/>
      <point x="86" y="-245"/>
      <point x="35" y="-173"/>
      <point x="35" y="-98" type="curve" smooth="yes"/>
      <point x="35" y="-73"/>
      <point x="40" y="-25"/>
    </contour>
    <component base="dotlessi"/>
    <component base="dotaccent" xOffset="43"/>
  </outline>
</glyph>
<glyph name="dotlessi" format="2">
  <advance width="282"/>
  <unicode hex="0131"/>
  <anchor x="143" y="485" name="top"/>
  <outline>
    <contour>
      <point x="232" y="0" type="line"/>
      <point x="50" y="0" type="line"/>
      <point x="50" y="485" type="line"/>
      <point x="232" y="485" type="line"/>
    </contour>
  </outline>
</glyph>
<glyph name="lacute" format="2">
  <advance width="302"/>
  <unicode hex="013A"/>
  <outline>
    <contour>
      <point x="242" y="0" type="line"/>
      <point x="60" y="0" type="line"/>
      <point x="60" y="695" type="line"/>
      <point x="242" y="706" type="line"/>
    </contour>
    <contour>
      <point x="216" y="733" type="line"/>
      <point x="84" y="755" type="line"/>
      <point x="150" y="932" type="line"/>
      <point x="330" y="932" type="line"/>
    </contour>
  </outline>
</glyph>
<glyph name="lcaron" format="2">
  <advance width="514"/>
  <unicode hex="013E"/>
  <outline>
    <contour>
      <point x="392" y="742" type="curve" smooth="yes"/>
      <point x="443" y="742"/>
      <point x="484" y="699"/>
      <point x="484" y="635" type="curve" smooth="yes"/>
      <point x="484" y="556"/>
      <point x="415" y="474"/>
      <point x="327" y="441" type="curve"/>
      <point x="291" y="521" type="line"/>
      <point x="310" y="532"/>
      <point x="338" y="555"/>
      <point x="343" y="572" type="curve"/>
      <point x="319" y="587"/>
      <point x="300" y="617"/>
      <point x="300" y="650" type="curve" smooth="yes"/>
      <point x="300" y="695"/>
      <point x="340" y="742"/>
    </contour>
    <component base="l"/>
  </outline>
</glyph>
<glyph name="Lslash" format="2">
  <advance width="578"/>
  <unicode hex="0141"/>
  <outline>
    <contour>
      <point x="80" y="0" type="line"/>
      <point x="568" y="0" type="line"/>
      <point x="551" y="143" type="line"/>
      <point x="262" y="143" type="line"/>
      <point x="262" y="290.8" type="line"/>
      <point x="467" y="414" type="line"/>
      <point x="394" y="547" type="line"/>
      <point x="262" y="466.259" type="line"/>
      <point x="262" y="680" type="line"/>
      <point x="80" y="680" type="line"/>
      <point x="80" y="354.934" type="line"/>
      <point x="0" y="306" type="line"/>
      <point x="56" y="167" type="line"/>
      <point x="80" y="181.423" type="line"/>
    </contour>
  </outline>
</glyph>
<glyph name="lslash" format="2">
  <advance width="386"/>
  <unicode hex="0142"/>
  <outline>
    <contour>
      <point x="345" y="555" type="line"/>
      <point x="386" y="395" type="line"/>
      <point x="280" y="322" type="line"/>
      <point x="280" y="0" type="line"/>
      <point x="98" y="0" type="line"/>
      <point x="98" y="196" type="line"/>
      <point x="40" y="156" type="line"/>
      <point x="0" y="316" type="line"/>
      <point x="98" y="384" type="line"/>
      <point x="98" y="695" type="line"/>
      <point x="280" y="706" type="line"/>
      <point x="280" y="510" type="line"/>
    </contour>
  </outline>
</glyph>
<glyph name="OE" format="2">
  <advance width="1032"/>
  <unicode hex="0152"/>
  <outline>
    <contour>
      <point x="579" y="637" type="curve"/>
      <point x="525" y="514" type="line"/>
      <point x="453" y="539"/>
      <point x="426" y="544"/>
      <point x="381" y="544" type="curve" smooth="yes"/>
      <point x="300" y="544"/>
      <point x="218" y="462"/>
      <point x="218" y="338" type="curve" smooth="yes"/>
      <point x="218" y="210"/>
      <point x="303" y="136"/>
      <point x="388" y="136" type="curve" smooth="yes"/>
      <point x="437" y="136"/>
      <point x="482" y="152"/>
      <point x="517" y="173" type="curve"/>
      <point x="586" y="37" type="line"/>
      <point x="533" y="5"/>
      <point x="452" y="-13"/>
      <point x="383" y="-13" type="curve" smooth="yes"/>
      <point x="162" y="-13"/>
      <point x="30" y="132"/>
      <point x="30" y="337" type="curve" smooth="yes"/>
      <point x="30" y="546"/>
      <point x="178" y="693"/>
      <point x="379" y="693" type="curve" smooth="yes"/>
      <point x="447" y="693"/>
      <point x="526" y="673"/>
    </contour>
    <contour>
      <point x="1012" y="0" type="line"/>
      <point x="514" y="0" type="line"/>
      <point x="514" y="680" type="line"/>
      <point x="965" y="680" type="line"/>
      <point x="982" y="537" type="line"/>
      <point x="696" y="537" type="line"/>
      <point x="696" y="413" type="line"/>
      <point x="905" y="413" type="line"/>
      <point x="922" y="270" type="line"/>
      <point x="696" y="270" type="line"/>
      <point x="696" y="143" type="line"/>
      <point x="995" y="143" type="line"/>
    </contour>
  </outline>
</glyph>
<glyph name="oe" format="2">
  <advance width="856"/>
  <unicode hex="0153"/>
  <outline>
    <contour>
      <point x="836" y="197" type="line"/>
      <point x="836" y="250" type="line" smooth="yes"/>
      <point x="836" y="386"/>
      <point x="759" y="502"/>
      <point x="604" y="502" type="curve" smooth="yes"/>
      <point x="544" y="502"/>
      <point x="490" y="486"/>
      <point x="447" y="456" type="curve"/>
      <point x="392" y="497"/>
      <point x="324" y="502"/>
      <point x="285" y="502" type="curve" smooth="yes"/>
      <point x="128" y="502"/>
      <point x="20" y="405"/>
      <point x="20" y="242" type="curve" smooth="yes"/>
      <point x="20" y="79"/>
      <point x="128" y="-11"/>
      <point x="285" y="-11" type="curve" smooth="yes"/>
      <point x="325" y="-11"/>
      <point x="393" y="-6"/>
      <point x="449" y="36" type="curve"/>
      <point x="498" y="5"/>
      <point x="562" y="-11"/>
      <point x="633" y="-11" type="curve" smooth="yes"/>
      <point x="714" y="-11"/>
      <point x="796" y="13"/>
      <point x="835" y="41" type="curve"/>
      <point x="784" y="164" type="line"/>
      <point x="755" y="149"/>
      <point x="709" y="131"/>
      <point x="651" y="131" type="curve" smooth="yes"/>
      <point x="589" y="131"/>
      <point x="554" y="157"/>
      <point x="541" y="197" type="curve"/>
    </contour>
    <contour>
      <point x="536" y="287" type="line"/>
      <point x="535" y="324"/>
      <point x="566" y="356"/>
      <point x="599" y="356" type="curve" smooth="yes"/>
      <point x="644" y="356"/>
      <point x="662" y="315"/>
      <point x="662" y="287" type="curve"/>
    </contour>
    <contour>
      <point x="208" y="242" type="curve" smooth="yes"/>
      <point x="208" y="311"/>
      <point x="254" y="354"/>
      <point x="303" y="354" type="curve" smooth="yes"/>
      <point x="325" y="354"/>
      <point x="342" y="352"/>
      <point x="361" y="345" type="curve"/>
      <point x="349" y="315"/>
      <point x="343" y="280"/>
      <point x="343" y="242" type="curve" smooth="yes"/>
      <point x="343" y="206"/>
      <point x="349" y="174"/>
      <point x="360" y="146" type="curve"/>
      <point x="340" y="139"/>
      <point x="323" y="137"/>
      <point x="303" y="137" type="curve" smooth="yes"/>
      <point x="254" y="137"/>
      <point x="208" y="174"/>
    </contour>
  </outline>
</glyph>
<glyph name="tcaron" format="2">
  <advance width="641"/>
  <unicode hex="0165"/>
  <outline>
    <contour>
      <point x="519" y="742" type="curve" smooth="yes"/>
      <point x="570" y="742"/>
      <point x="611" y="699"/>
      <point x="611" y="635" type="curve" smooth="yes"/>
      <point x="611" y="556"/>
      <point x="542" y="474"/>
      <point x="454" y="441" type="curve"/>
      <point x="418" y="521" type="line"/>
      <point x="437" y="532"/>
      <point x="465" y="555"/>
      <point x="470" y="572" type="curve"/>
      <point x="446" y="587"/>
      <point x="427" y="617"/>
      <point x="427" y="650" type="curve" smooth="yes"/>
      <point x="427" y="695"/>
      <point x="467" y="742"/>
    </contour>
    <component base="t"/>
  </outline>
</glyph>
<glyph name="uogonek" format="2">
  <advance width="610"/>
  <unicode hex="0173"/>
  <outline>
    <contour>
      <point x="442" y="53" type="curve"/>
      <point x="560" y="-1" type="line"/>
      <point x="547" y="-18"/>
      <point x="528" y="-60"/>
      <point x="528" y="-85" type="curve" smooth="yes"/>
      <point x="528" y="-101"/>
      <point x="540" y="-117"/>
      <point x="557" y="-117" type="curve" smooth="yes"/>
      <point x="570" y="-117"/>
      <point x="582" y="-114"/>
      <point x="601" y="-97" type="curve"/>
      <point x="662" y="-199" type="line"/>
      <point x="639" y="-226"/>
      <point x="592" y="-246"/>
      <point x="539" y="-246" type="curve" smooth="yes"/>
      <point x="442" y="-246"/>
      <point x="391" y="-174"/>
      <point x="391" y="-109" type="curve" smooth="yes"/>
      <point x="391" y="-74"/>
      <point x="392" y="-32"/>
    </contour>
    <component base="u"/>
  </outline>
</glyph>
<glyph name="florin" format="2">
  <advance width="560"/>
  <unicode hex="0192"/>
  <outline>
    <contour>
      <point x="109" y="451" type="line"/>
      <point x="189" y="451" type="line"/>
      <point x="189" y="510" type="line" smooth="yes"/>
      <point x="189" y="639"/>
      <point x="302" y="703"/>
      <point x="426" y="703" type="curve" smooth="yes"/>
      <point x="473" y="703"/>
      <point x="536" y="681"/>
      <point x="560" y="660" type="curve"/>
      <point x="508" y="536" type="line"/>
      <point x="485" y="549"/>
      <point x="455" y="555"/>
      <point x="438" y="555" type="curve" smooth="yes"/>
      <point x="395" y="555"/>
      <point x="371" y="530"/>
      <point x="371" y="490" type="curve" smooth="yes"/>
      <point x="371" y="451" type="line"/>
      <point x="505" y="451" type="line"/>
      <point x="522" y="308" type="line"/>
      <point x="371" y="308" type="line"/>
      <point x="371" y="70" type="line" smooth="yes"/>
      <point x="371" y="-59"/>
      <point x="258" y="-123"/>
      <point x="134" y="-123" type="curve" smooth="yes"/>
      <point x="87" y="-123"/>
      <point x="24" y="-101"/>
      <point x="0" y="-80" type="curve"/>
      <point x="52" y="44" type="line"/>
      <point x="75" y="31"/>
      <point x="105" y="25"/>
      <point x="122" y="25" type="curve" smooth="yes"/>
      <point x="165" y="25"/>
      <point x="189" y="50"/>
      <point x="189" y="90" type="curve" smooth="yes"/>
      <point x="189" y="308" type="line"/>
      <point x="109" y="308" type="line"/>
    </contour>
  </outline>
</glyph>
<glyph name="circumflex" format="2">
  <advance width="475"/>
  <unicode hex="02C6"/>
  <anchor x="240" y="485" name="_top"/>
  <outline>
    <contour>
      <point x="240" y="650" type="line"/>
      <point x="187" y="588" type="line"/>
      <point x="10" y="608" type="line"/>
      <point x="184" y="787" type="line"/>
      <point x="291" y="787" type="line"/>
      <point x="465" y="608" type="line"/>
      <point x="292" y="588" type="line"/>
    </contour>
  </outline>
</glyph>
<glyph name="caron" format="2">
  <advance width="475"/>
  <unicode hex="02C7"/>
  <outline>
    <contour>
      <point x="240" y="725" type="line"/>
      <point x="292" y="787" type="line"/>
      <point x="465" y="767" type="line"/>
      <point x="291" y="588" type="line"/>
      <point x="184" y="588" type="line"/>
      <point x="10" y="767" type="line"/>
      <point x="187" y="787" type="line"/>
    </contour>
  </outline>
</glyph>
<glyph name="uni02C9" format="2">
  <advance width="310"/>
  <unicode hex="02C9"/>
  <outline>
    <contour>
      <point x="10" y="613" type="line"/>
      <point x="10" y="756" type="line"/>
      <point x="290" y="756" type="line"/>
      <point x="300" y="613" type="line"/>
    </contour>
  </outline>
</glyph>
<glyph name="breve" format="2">
  <advance width="380"/>
  <unicode hex="02D8"/>
  <anchor x="191" y="485" name="_top"/>
  <outline>
    <contour>
      <point x="241" y="777" type="curve"/>
      <point x="370" y="777" type="line"/>
      <point x="370" y="662"/>
      <point x="299" y="589"/>
      <point x="190" y="588" type="curve" smooth="yes"/>
      <point x="81" y="589"/>
      <point x="10" y="662"/>
      <point x="10" y="777" type="curve"/>
      <point x="139" y="777" type="line"/>
      <point x="139" y="744"/>
      <point x="158" y="721"/>
      <point x="190" y="721" type="curve" smooth="yes"/>
      <point x="222" y="721"/>
      <point x="241" y="744"/>
    </contour>
  </outline>
</glyph>
<glyph name="dotaccent" format="2">
  <advance width="202"/>
  <unicode hex="02D9"/>
  <anchor x="100" y="485" name="_top"/>
  <outline>
    <contour>
      <point x="102" y="594" type="curve" smooth="yes"/>
      <point x="51" y="594"/>
      <point x="10" y="633"/>
      <point x="10" y="686" type="curve" smooth="yes"/>
      <point x="10" y="737"/>
      <point x="51" y="778"/>
      <point x="102" y="778" type="curve" smooth="yes"/>
      <point x="155" y="778"/>
      <point x="192" y="737"/>
      <point x="192" y="686" type="curve" smooth="yes"/>
      <point x="192" y="633"/>
      <point x="155" y="594"/>
    </contour>
  </outline>
</glyph>
<glyph name="ring" format="2">
  <advance width="266"/>
  <unicode hex="02DA"/>
  <outline>
    <contour>
      <point x="133" y="826" type="curve" smooth="yes"/>
      <point x="198" y="826"/>
      <point x="256" y="774"/>
      <point x="256" y="709" type="curve" smooth="yes"/>
      <point x="256" y="641"/>
      <point x="198" y="594"/>
      <point x="133" y="594" type="curve" smooth="yes"/>
      <point x="66" y="594"/>
      <point x="10" y="641"/>
      <point x="10" y="709" type="curve" smooth="yes"/>
      <point x="10" y="774"/>
      <point x="66" y="826"/>
    </contour>
    <contour>
      <point x="135" y="679" type="curve" smooth="yes"/>
      <point x="151" y="679"/>
      <point x="163" y="693"/>
      <point x="163" y="709" type="curve" smooth="yes"/>
      <point x="163" y="725"/>
      <point x="151" y="737"/>
      <point x="135" y="737" type="curve" smooth="yes"/>
      <point x="119" y="737"/>
      <point x="105" y="725"/>
      <point x="105" y="709" type="curve" smooth="yes"/>
      <point x="105" y="693"/>
      <point x="119" y="679"/>
    </contour>
  </outline>
</glyph>
<glyph name="ogonek" format="2">
  <advance width="291"/>
  <unicode hex="02DB"/>
  <anchor x="105" y="0" name="_bottom"/>
  <outline>
    <contour>
      <point x="35" y="5" type="curve"/>
      <point x="179" y="5" type="line"/>
      <point x="166" y="-12"/>
      <point x="147" y="-54"/>
      <point x="147" y="-79" type="curve" smooth="yes"/>
      <point x="147" y="-95"/>
      <point x="159" y="-111"/>
      <point x="176" y="-111" type="curve" smooth="yes"/>
      <point x="189" y="-111"/>
      <point x="201" y="-108"/>
      <point x="220" y="-91" type="curve"/>
      <point x="281" y="-193" type="line"/>
      <point x="258" y="-220"/>
      <point x="211" y="-240"/>
      <point x="158" y="-240" type="curve" smooth="yes"/>
      <point x="61" y="-240"/>
      <point x="10" y="-168"/>
      <point x="10" y="-93" type="curve" smooth="yes"/>
      <point x="10" y="-68"/>
      <point x="22" y="-20"/>
    </contour>
  </outline>
</glyph>
<glyph name="tilde" format="2">
  <advance width="391"/>
  <unicode hex="02DC"/>
  <anchor x="207" y="485" name="_top"/>
  <outline>
    <contour>
      <point x="259" y="755" type="curve"/>
      <point x="381" y="755" type="line"/>
      <point x="381" y="635"/>
      <point x="319" y="595"/>
      <point x="258" y="595" type="curve" smooth="yes"/>
      <point x="209" y="595"/>
      <point x="201" y="629"/>
      <point x="158" y="629" type="curve" smooth="yes"/>
      <point x="147" y="629"/>
      <point x="136" y="612"/>
      <point x="136" y="600" type="curve"/>
      <point x="10" y="600" type="line"/>
      <point x="10" y="720"/>
      <point x="76" y="760"/>
      <point x="137" y="760" type="curve" smooth="yes"/>
      <point x="183" y="760"/>
      <point x="196" y="726"/>
      <point x="237" y="726" type="curve" smooth="yes"/>
      <point x="248" y="726"/>
      <point x="259" y="743"/>
    </contour>
  </outline>
</glyph>
<glyph name="hungarumlaut" format="2">
  <advance width="513"/>
  <unicode hex="02DD"/>
  <outline>
    <contour>
      <point x="142" y="588" type="line"/>
      <point x="10" y="610" type="line"/>
      <point x="76" y="787" type="line"/>
      <point x="256" y="787" type="line"/>
    </contour>
    <contour>
      <point x="389" y="588" type="line"/>
      <point x="257" y="610" type="line"/>
      <point x="323" y="787" type="line"/>
      <point x="503" y="787" type="line"/>
    </contour>
  </outline>
</glyph>
<glyph name="pi" format="2">
  <advance width="722"/>
  <unicode hex="03C0"/>
  <outline>
    <contour>
      <point x="292" y="0" type="line"/>
      <point x="110" y="0" type="line"/>
      <point x="110" y="342" type="line"/>
      <point x="10" y="342" type="line"/>
      <point x="10" y="485" type="line"/>
      <point x="712" y="485" type="line"/>
      <point x="712" y="342" type="line"/>
      <point x="612" y="342" type="line"/>
      <point x="612" y="0" type="line"/>
      <point x="430" y="0" type="line"/>
      <point x="430" y="342" type="line"/>
      <point x="292" y="342" type="line"/>
    </contour>
  </outline>
</glyph>
<glyph name="tm_Anusvara" format="2">
  <unicode hex="0B82"/>
  <outline>
    <contour>
      <point x="0" y="622" type="curve" smooth="yes"/>
      <point x="-86" y="622"/>
      <point x="-149" y="682"/>
      <point x="-149" y="765" type="curve" smooth="yes"/>
      <point x="-149" y="849"/>
      <point x="-86" y="910"/>
      <point x="0" y="910" type="curve" smooth="yes"/>
      <point x="87" y="910"/>
      <point x="150" y="849"/>
      <point x="150" y="765" type="curve" smooth="yes"/>
      <point x="150" y="682"/>
      <point x="87" y="622"/>
    </contour>
    <contour>
      <point x="0" y="727" type="curve" smooth="yes"/>
      <point x="23" y="727"/>
      <point x="41" y="743"/>
      <point x="41" y="765" type="curve" smooth="yes"/>
      <point x="41" y="789"/>
      <point x="23" y="805"/>
      <point x="0" y="805" type="curve" smooth="yes"/>
      <point x="-22" y="805"/>
      <point x="-38" y="789"/>
      <point x="-38" y="765" type="curve" smooth="yes"/>
      <point x="-38" y="743"/>
      <point x="-22" y="727"/>
    </contour>
  </outline>
</glyph>
<glyph name="tm_Visarga" format="2">
  <advance width="757"/>
  <unicode hex="0B83"/>
  <outline>
    <contour>
      <point x="378" y="266" type="curve" smooth="yes"/>
      <point x="291" y="266"/>
      <point x="229" y="326"/>
      <point x="229" y="409" type="curve" smooth="yes"/>
      <point x="229" y="492"/>
      <point x="291" y="554"/>
      <point x="378" y="554" type="curve" smooth="yes"/>
      <point x="465" y="554"/>
      <point x="528" y="492"/>
      <point x="528" y="409" type="curve" smooth="yes"/>
      <point x="528" y="326"/>
      <point x="465" y="266"/>
    </contour>
    <contour>
      <point x="378" y="370" type="curve" smooth="yes"/>
      <point x="401" y="370"/>
      <point x="418" y="386"/>
      <point x="418" y="409" type="curve" smooth="yes"/>
      <point x="418" y="432"/>
      <point x="401" y="448"/>
      <point x="378" y="448" type="curve" smooth="yes"/>
      <point x="356" y="448"/>
      <point x="340" y="432"/>
      <point x="340" y="409" type="curve" smooth="yes"/>
      <point x="340" y="386"/>
      <point x="356" y="370"/>
    </contour>
    <contour>
      <point x="189" y="-14" type="curve" smooth="yes"/>
      <point x="102" y="-14"/>
      <point x="40" y="47"/>
      <point x="40" y="130" type="curve" smooth="yes"/>
      <point x="40" y="213"/>
      <point x="102" y="275"/>
      <point x="189" y="275" type="curve" smooth="yes"/>
      <point x="276" y="275"/>
      <point x="339" y="213"/>
      <point x="339" y="130" type="curve" smooth="yes"/>
      <point x="339" y="47"/>
      <point x="276" y="-14"/>
    </contour>
    <contour>
      <point x="189" y="91" type="curve" smooth="yes"/>
      <point x="212" y="91"/>
      <point x="229" y="107"/>
      <point x="229" y="130" type="curve" smooth="yes"/>
      <point x="229" y="153"/>
      <point x="212" y="169"/>
      <point x="189" y="169" type="curve" smooth="yes"/>
      <point x="167" y="169"/>
      <point x="151" y="153"/>
      <point x="151" y="130" type="curve" smooth="yes"/>
      <point x="151" y="107"/>
      <point x="167" y="91"/>
    </contour>
    <contour>
      <point x="567" y="-14" type="curve" smooth="yes"/>
      <point x="480" y="-14"/>
      <point x="418" y="47"/>
      <point x="418" y="130" type="curve" smooth="yes"/>
      <point x="418" y="213"/>
      <point x="480" y="275"/>
      <point x="567" y="275" type="curve" smooth="yes"/>
      <point x="654" y="275"/>
      <point x="717" y="213"/>
      <point x="717" y="130" type="curve" smooth="yes"/>
      <point x="717" y="47"/>
      <point x="654" y="-14"/>
    </contour>
    <contour>
      <point x="567" y="91" type="curve" smooth="yes"/>
      <point x="590" y="91"/>
      <point x="607" y="107"/>
      <point x="607" y="130" type="curve" smooth="yes"/>
      <point x="607" y="153"/>
      <point x="590" y="169"/>
      <point x="567" y="169" type="curve" smooth="yes"/>
      <point x="545" y="169"/>
      <point x="529" y="153"/>
      <point x="529" y="130" type="curve" smooth="yes"/>
      <point x="529" y="107"/>
      <point x="545" y="91"/>
    </contour>
  </outline>
</glyph>
<glyph name="tm_A" format="2">
  <advance width="1136"/>
  <unicode hex="0B85"/>
  <outline>
    <contour>
      <point x="1051" y="-126" type="line"/>
      <point x="887" y="-126" type="line"/>
      <point x="887" y="513" type="line"/>
      <point x="1051" y="513" type="line"/>
    </contour>
    <contour>
      <point x="438" y="531" type="curve" smooth="yes"/>
      <point x="615" y="531"/>
      <point x="752" y="402"/>
      <point x="752" y="224" type="curve" smooth="yes"/>
      <point x="752" y="20"/>
      <point x="581" y="-144"/>
      <point x="303" y="-144" type="curve" smooth="yes"/>
      <point x="127" y="-144"/>
      <point x="25" y="-70"/>
      <point x="25" y="29" type="curve" smooth="yes"/>
      <point x="25" y="112"/>
      <point x="84" y="169"/>
      <point x="192" y="169" type="curve" smooth="yes"/>
      <point x="887" y="169" type="line"/>
      <point x="887" y="41" type="line"/>
      <point x="212" y="41" type="line" smooth="yes"/>
      <point x="190" y="41"/>
      <point x="182" y="36"/>
      <point x="182" y="23" type="curve" smooth="yes"/>
      <point x="182" y="8"/>
      <point x="218" y="-6"/>
      <point x="303" y="-6" type="curve" smooth="yes"/>
      <point x="500" y="-6"/>
      <point x="580" y="73"/>
      <point x="580" y="224" type="curve" smooth="yes"/>
      <point x="580" y="333"/>
      <point x="521" y="397"/>
      <point x="440" y="397" type="curve" smooth="yes"/>
      <point x="359" y="397"/>
      <point x="300" y="374"/>
      <point x="300" y="329" type="curve" smooth="yes"/>
      <point x="300" y="311"/>
      <point x="313" y="297"/>
      <point x="332" y="297" type="curve" smooth="yes"/>
      <point x="351" y="297"/>
      <point x="364" y="311"/>
      <point x="364" y="329" type="curve" smooth="yes"/>
      <point x="364" y="347"/>
      <point x="351" y="359"/>
      <point x="333" y="359" type="curve" smooth="yes"/>
      <point x="314" y="359"/>
      <point x="300" y="347"/>
      <point x="300" y="329" type="curve"/>
      <point x="220" y="329" type="line"/>
      <point x="219" y="403"/>
      <point x="269" y="456"/>
      <point x="337" y="456" type="curve" smooth="yes"/>
      <point x="418" y="456"/>
      <point x="477" y="404"/>
      <point x="476" y="331" type="curve" smooth="yes"/>
      <point x="475" y="249"/>
      <point x="415" y="190"/>
      <point x="332" y="191" type="curve" smooth="yes"/>
      <point x="244" y="192"/>
      <point x="180" y="252"/>
      <point x="180" y="335" type="curve" smooth="yes"/>
      <point x="180" y="448"/>
      <point x="289" y="531"/>
    </contour>
  </outline>
</glyph>
<glyph name="tm_Aa" format="2">
  <advance width="1341"/>
  <unicode hex="0B86"/>
  <outline>
    <contour>
      <point x="887" y="41" type="line"/>
      <point x="212" y="41" type="line" smooth="yes"/>
      <point x="190" y="41"/>
      <point x="182" y="36"/>
      <point x="182" y="23" type="curve" smooth="yes"/>
      <point x="182" y="8"/>
      <point x="218" y="-6"/>
      <point x="303" y="-6" type="curve" smooth="yes"/>
      <point x="500" y="-6"/>
      <point x="580" y="73"/>
      <point x="580" y="224" type="curve" smooth="yes"/>
      <point x="580" y="333"/>
      <point x="521" y="397"/>
      <point x="440" y="397" type="curve" smooth="yes"/>
      <point x="359" y="397"/>
      <point x="300" y="374"/>
      <point x="300" y="329" type="curve" smooth="yes"/>
      <point x="300" y="311"/>
      <point x="313" y="297"/>
      <point x="332" y="297" type="curve" smooth="yes"/>
      <point x="351" y="297"/>
      <point x="364" y="311"/>
      <point x="364" y="329" type="curve" smooth="yes"/>
      <point x="364" y="347"/>
      <point x="351" y="359"/>
      <point x="333" y="359" type="curve" smooth="yes"/>
      <point x="314" y="359"/>
      <point x="300" y="347"/>
      <point x="300" y="329" type="curve"/>
      <point x="220" y="329" type="line"/>
      <point x="219" y="403"/>
      <point x="269" y="456"/>
      <point x="337" y="456" type="curve" smooth="yes"/>
      <point x="418" y="456"/>
      <point x="477" y="404"/>
      <point x="476" y="331" type="curve" smooth="yes"/>
      <point x="475" y="249"/>
      <point x="415" y="190"/>
      <point x="332" y="191" type="curve" smooth="yes"/>
      <point x="244" y="192"/>
      <point x="180" y="252"/>
      <point x="180" y="335" type="curve" smooth="yes"/>
      <point x="180" y="448"/>
      <point x="289" y="531"/>
      <point x="438" y="531" type="curve" smooth="yes"/>
      <point x="615" y="531"/>
      <point x="752" y="402"/>
      <point x="752" y="224" type="curve" smooth="yes"/>
      <point x="752" y="20"/>
      <point x="581" y="-144"/>
      <point x="303" y="-144" type="curve" smooth="yes"/>
      <point x="127" y="-144"/>
      <point x="25" y="-70"/>
      <point x="25" y="29" type="curve" smooth="yes"/>
      <point x="25" y="112"/>
      <point x="84" y="169"/>
      <point x="192" y="169" type="curve" smooth="yes"/>
      <point x="887" y="169" type="line"/>
    </contour>
    <contour>
      <point x="1140" y="120" type="curve" smooth="yes"/>
      <point x="1107" y="120"/>
      <point x="1077" y="112"/>
      <point x="1051" y="99" type="curve"/>
      <point x="1051" y="513" type="line"/>
      <point x="887" y="513" type="line"/>
      <point x="887" y="-126" type="line"/>
      <point x="1051" y="-126" type="line"/>
      <point x="1051" y="-80" type="line" smooth="yes"/>
      <point x="1051" y="-44"/>
      <point x="1073" y="-18"/>
      <point x="1109" y="-18" type="curve" smooth="yes"/>
      <point x="1137" y="-18"/>
      <point x="1159" y="-42"/>
      <point x="1159" y="-77" type="curve" smooth="yes"/>
      <point x="1159" y="-186"/>
      <point x="1062" y="-239"/>
      <point x="869" y="-239" type="curve" smooth="yes"/>
      <point x="789" y="-239"/>
      <point x="762" y="-220"/>
      <point x="762" y="-199" type="curve" smooth="yes"/>
      <point x="762" y="-181"/>
      <point x="777" y="-173"/>
      <point x="795" y="-173" type="curve" smooth="yes"/>
      <point x="816" y="-173" type="line"/>
      <point x="816" y="-44" type="line"/>
      <point x="795" y="-44" type="line" smooth="yes"/>
      <point x="677" y="-44"/>
      <point x="606" y="-110"/>
      <point x="606" y="-194" type="curve" smooth="yes"/>
      <point x="606" y="-297"/>
      <point x="698" y="-377"/>
      <point x="878" y="-377" type="curve" smooth="yes"/>
      <point x="1149" y="-377"/>
      <point x="1331" y="-248"/>
      <point x="1331" y="-71" type="curve" smooth="yes"/>
      <point x="1331" y="29"/>
      <point x="1267" y="120"/>
    </contour>
  </outline>
</glyph>
<glyph name="tm_I" format="2">
  <advance width="1161"/>
  <unicode hex="0B87"/>
  <outline>
    <contour>
      <point x="564" y="531" type="curve" smooth="yes"/>
      <point x="721" y="531"/>
      <point x="826" y="435"/>
      <point x="826" y="302" type="curve" smooth="yes"/>
      <point x="826" y="12"/>
      <point x="536" y="-198"/>
      <point x="204" y="-198" type="curve" smooth="yes"/>
      <point x="92" y="-198"/>
      <point x="20" y="-146"/>
      <point x="20" y="-62" type="curve" smooth="yes"/>
      <point x="20" y="71"/>
      <point x="220" y="170"/>
      <point x="483" y="170" type="curve" smooth="yes"/>
      <point x="725" y="170"/>
      <point x="899" y="71"/>
      <point x="899" y="-62" type="curve" smooth="yes"/>
      <point x="899" y="-146"/>
      <point x="827" y="-198"/>
      <point x="716" y="-198" type="curve" smooth="yes"/>
      <point x="373" y="-198"/>
      <point x="85" y="21"/>
      <point x="85" y="322" type="curve" smooth="yes"/>
      <point x="85" y="548"/>
      <point x="278" y="711"/>
      <point x="587" y="711" type="curve" smooth="yes"/>
      <point x="882" y="711"/>
      <point x="1081" y="552"/>
      <point x="1081" y="332" type="curve" smooth="yes"/>
      <point x="1081" y="-147" type="line"/>
      <point x="917" y="-148" type="line"/>
      <point x="917" y="329" type="line" smooth="yes"/>
      <point x="917" y="476"/>
      <point x="788" y="573"/>
      <point x="587" y="573" type="curve" smooth="yes"/>
      <point x="368" y="573"/>
      <point x="259" y="473"/>
      <point x="259" y="322" type="curve" smooth="yes"/>
      <point x="259" y="98"/>
      <point x="477" y="-78"/>
      <point x="696" y="-78" type="curve" smooth="yes"/>
      <point x="719" y="-78"/>
      <point x="735" y="-68"/>
      <point x="735" y="-55" type="curve" smooth="yes"/>
      <point x="735" y="1"/>
      <point x="624" y="50"/>
      <point x="485" y="50" type="curve" smooth="yes"/>
      <point x="322" y="50"/>
      <point x="185" y="1"/>
      <point x="185" y="-55" type="curve" smooth="yes"/>
      <point x="185" y="-68"/>
      <point x="200" y="-78"/>
      <point x="222" y="-78" type="curve" smooth="yes"/>
      <point x="437" y="-78"/>
      <point x="661" y="78"/>
      <point x="661" y="302" type="curve" smooth="yes"/>
      <point x="661" y="362"/>
      <point x="627" y="397"/>
      <point x="566" y="397" type="curve" smooth="yes"/>
      <point x="478" y="397"/>
      <point x="415" y="368"/>
      <point x="415" y="329" type="curve" smooth="yes"/>
      <point x="415" y="305"/>
      <point x="433" y="287"/>
      <point x="458" y="287" type="curve" smooth="yes"/>
      <point x="482" y="287"/>
      <point x="500" y="305"/>
      <point x="500" y="329" type="curve" smooth="yes"/>
      <point x="500" y="352"/>
      <point x="482" y="369"/>
      <point x="458" y="369" type="curve" smooth="yes"/>
      <point x="433" y="369"/>
      <point x="415" y="352"/>
      <point x="415" y="329" type="curve"/>
      <point x="346" y="329" type="line"/>
      <point x="345" y="403"/>
      <point x="395" y="456"/>
      <point x="463" y="456" type="curve" smooth="yes"/>
      <point x="544" y="456"/>
      <point x="602" y="404"/>
      <point x="602" y="331" type="curve" smooth="yes"/>
      <point x="601" y="249"/>
      <point x="540" y="190"/>
      <point x="458" y="191" type="curve" smooth="yes"/>
      <point x="369" y="192"/>
      <point x="305" y="252"/>
      <point x="305" y="335" type="curve" smooth="yes"/>
      <point x="305" y="448"/>
      <point x="414" y="531"/>
    </contour>
  </outline>
</glyph>
<glyph name="tm_Ii" format="2">
  <advance width="941"/>
  <unicode hex="0B88"/>
  <outline>
    <contour>
      <point x="80" y="0" type="line"/>
      <point x="244" y="0" type="line"/>
      <point x="244" y="384" type="line"/>
      <point x="511" y="384" type="line"/>
      <point x="511" y="0" type="line"/>
      <point x="675" y="0" type="line"/>
      <point x="675" y="384" type="line"/>
      <point x="931" y="384" type="line"/>
      <point x="916" y="513" type="line"/>
      <point x="80" y="513" type="line"/>
    </contour>
    <contour>
      <point x="377" y="104" type="curve" smooth="yes"/>
      <point x="323" y="104"/>
      <point x="284" y="142"/>
      <point x="284" y="196" type="curve" smooth="yes"/>
      <point x="284" y="251"/>
      <point x="323" y="291"/>
      <point x="377" y="291" type="curve" smooth="yes"/>
      <point x="432" y="291"/>
      <point x="472" y="251"/>
      <point x="472" y="196" type="curve" smooth="yes"/>
      <point x="472" y="142"/>
      <point x="432" y="104"/>
    </contour>
    <contour>
      <point x="808" y="104" type="curve" smooth="yes"/>
      <point x="754" y="104"/>
      <point x="715" y="142"/>
      <point x="715" y="196" type="curve" smooth="yes"/>
      <point x="715" y="251"/>
      <point x="754" y="291"/>
      <point x="808" y="291" type="curve" smooth="yes"/>
      <point x="863" y="291"/>
      <point x="903" y="251"/>
      <point x="903" y="196" type="curve" smooth="yes"/>
      <point x="903" y="142"/>
      <point x="863" y="104"/>
    </contour>
  </outline>
</glyph>
<glyph name="tm_Uu" format="2">
  <advance width="1601"/>
  <unicode hex="0B8A"/>
  <outline>
    <contour>
      <point x="67" y="129" type="line"/>
      <point x="67" y="0" type="line"/>
      <point x="1591" y="0" type="line"/>
      <point x="1591" y="129" type="line"/>
      <point x="570" y="129" type="line"/>
      <point x="598" y="167"/>
      <point x="613" y="212"/>
      <point x="613" y="264" type="curve" smooth="yes"/>
      <point x="613" y="419"/>
      <point x="488" y="531"/>
      <point x="311" y="531" type="curve" smooth="yes"/>
      <point x="142" y="531"/>
      <point x="20" y="437"/>
      <point x="20" y="296" type="curve" smooth="yes"/>
      <point x="20" y="212"/>
      <point x="89" y="152"/>
      <point x="186" y="152" type="curve" smooth="yes"/>
      <point x="278" y="152"/>
      <point x="346" y="208"/>
      <point x="346" y="284" type="curve" smooth="yes"/>
      <point x="346" y="364"/>
      <point x="285" y="412"/>
      <point x="201" y="412" type="curve" smooth="yes"/>
      <point x="106" y="412"/>
      <point x="37" y="356"/>
      <point x="37" y="279" type="curve"/>
      <point x="150" y="290" type="line"/>
      <point x="150" y="313"/>
      <point x="166" y="329"/>
      <point x="188" y="329" type="curve" smooth="yes"/>
      <point x="211" y="329"/>
      <point x="227" y="313"/>
      <point x="227" y="290" type="curve" smooth="yes"/>
      <point x="227" y="269"/>
      <point x="211" y="253"/>
      <point x="189" y="253" type="curve" smooth="yes"/>
      <point x="166" y="253"/>
      <point x="150" y="269"/>
      <point x="150" y="290" type="curve" smooth="yes"/>
      <point x="150" y="350"/>
      <point x="218" y="393"/>
      <point x="313" y="393" type="curve" smooth="yes"/>
      <point x="393" y="393"/>
      <point x="441" y="339"/>
      <point x="441" y="264" type="curve" smooth="yes"/>
      <point x="441" y="185"/>
      <point x="385" y="129"/>
      <point x="287" y="129" type="curve" smooth="yes"/>
    </contour>
    <contour>
      <point x="803" y="327" type="curve" smooth="yes"/>
      <point x="803" y="376"/>
      <point x="848" y="411"/>
      <point x="925" y="411" type="curve" smooth="yes"/>
      <point x="999" y="411"/>
      <point x="1057" y="365"/>
      <point x="1057" y="324" type="curve" smooth="yes"/>
      <point x="1057" y="173" type="line"/>
      <point x="1212" y="173" type="line"/>
      <point x="1211" y="394" type="line"/>
      <point x="1303" y="394" type="line"/>
      <point x="1303" y="173" type="line"/>
      <point x="1458" y="173" type="line"/>
      <point x="1457" y="393" type="line"/>
      <point x="1564" y="393" type="line"/>
      <point x="1549" y="513" type="line"/>
      <point x="1057" y="513" type="line"/>
      <point x="1057" y="493" type="line"/>
      <point x="1019" y="518"/>
      <point x="970" y="531"/>
      <point x="915" y="531" type="curve" smooth="yes"/>
      <point x="749" y="531"/>
      <point x="658" y="446"/>
      <point x="658" y="327" type="curve" smooth="yes"/>
      <point x="658" y="231"/>
      <point x="742" y="153"/>
      <point x="880" y="153" type="curve" smooth="yes"/>
      <point x="961" y="153"/>
      <point x="1020" y="203"/>
      <point x="1020" y="270" type="curve" smooth="yes"/>
      <point x="1020" y="329"/>
      <point x="970" y="373"/>
      <point x="899" y="373" type="curve" smooth="yes"/>
      <point x="837" y="373"/>
      <point x="792" y="330"/>
      <point x="792" y="273" type="curve" smooth="yes"/>
      <point x="792" y="222"/>
      <point x="831" y="186"/>
      <point x="890" y="186" type="curve"/>
      <point x="895" y="236" type="line"/>
      <point x="876" y="236"/>
      <point x="862" y="249"/>
      <point x="862" y="266" type="curve" smooth="yes"/>
      <point x="862" y="284"/>
      <point x="876" y="297"/>
      <point x="895" y="297" type="curve" smooth="yes"/>
      <point x="913" y="297"/>
      <point x="926" y="284"/>
      <point x="926" y="266" type="curve" smooth="yes"/>
      <point x="926" y="249"/>
      <point x="913" y="236"/>
      <point x="895" y="236" type="curve" smooth="yes"/>
      <point x="825" y="236"/>
      <point x="803" y="276"/>
    </contour>
  </outline>
</glyph>
<glyph name="tm_Ee" format="2">
  <advance width="954"/>
  <unicode hex="0B8F"/>
  <outline>
    <contour>
      <point x="400" y="384" type="curve" smooth="yes"/>
      <point x="622" y="384" type="line"/>
      <point x="622" y="55" type="line" smooth="yes"/>
      <point x="622" y="-9"/>
      <point x="621" y="-24"/>
      <point x="571" y="-38" type="curve" smooth="yes"/>
      <point x="237" y="-130" type="line"/>
      <point x="281" y="-250" type="line"/>
      <point x="718" y="-142" type="line" smooth="yes"/>
      <point x="784" y="-126"/>
      <point x="786" y="-61"/>
      <point x="786" y="8" type="curve" smooth="yes"/>
      <point x="786" y="384" type="line"/>
      <point x="944" y="384" type="line"/>
      <point x="928" y="513" type="line"/>
      <point x="398" y="513" type="line" smooth="yes"/>
      <point x="172" y="513"/>
      <point x="40" y="397"/>
      <point x="40" y="237" type="curve" smooth="yes"/>
      <point x="40" y="89"/>
      <point x="173" y="-18"/>
      <point x="357" y="-18" type="curve" smooth="yes"/>
      <point x="491" y="-18"/>
      <point x="573" y="58"/>
      <point x="573" y="163" type="curve" smooth="yes"/>
      <point x="573" y="255"/>
      <point x="495" y="321"/>
      <point x="386" y="321" type="curve" smooth="yes"/>
      <point x="287" y="321"/>
      <point x="215" y="257"/>
      <point x="215" y="167" type="curve" smooth="yes"/>
      <point x="215" y="89"/>
      <point x="281" y="32"/>
      <point x="372" y="32" type="curve"/>
      <point x="379" y="111" type="line"/>
      <point x="351" y="111"/>
      <point x="332" y="131"/>
      <point x="332" y="158" type="curve" smooth="yes"/>
      <point x="332" y="185"/>
      <point x="351" y="204"/>
      <point x="379" y="204" type="curve" smooth="yes"/>
      <point x="405" y="204"/>
      <point x="424" y="185"/>
      <point x="424" y="158" type="curve" smooth="yes"/>
      <point x="424" y="131"/>
      <point x="405" y="111"/>
      <point x="379" y="111" type="curve" smooth="yes"/>
      <point x="246" y="111"/>
      <point x="214" y="164"/>
      <point x="214" y="237" type="curve" smooth="yes"/>
      <point x="214" y="322"/>
      <point x="274" y="384"/>
    </contour>
  </outline>
</glyph>
<glyph name="tm_Ai" format="2">
  <advance width="819"/>
  <unicode hex="0B90"/>
  <outline>
    <contour>
      <point x="593" y="-9" type="curve" smooth="yes"/>
      <point x="593" y="-43"/>
      <point x="575" y="-68"/>
      <point x="538" y="-68" type="curve" smooth="yes"/>
      <point x="504" y="-68"/>
      <point x="486" y="-46"/>
      <point x="486" y="-17" type="curve" smooth="yes"/>
      <point x="486" y="52" type="line"/>
      <point x="334" y="52" type="line"/>
      <point x="334" y="-17" type="line" smooth="yes"/>
      <point x="334" y="-46"/>
      <point x="313" y="-68"/>
      <point x="267" y="-68" type="curve" smooth="yes"/>
      <point x="235" y="-68"/>
      <point x="212" y="-40"/>
      <point x="212" y="-7" type="curve" smooth="yes"/>
      <point x="212" y="41"/>
      <point x="247" y="75"/>
      <point x="310" y="83" type="curve" smooth="yes"/>
      <point x="491" y="107" type="line" smooth="yes"/>
      <point x="693" y="134"/>
      <point x="779" y="225"/>
      <point x="779" y="337" type="curve" smooth="yes"/>
      <point x="779" y="449"/>
      <point x="702" y="531"/>
      <point x="576" y="531" type="curve" smooth="yes"/>
      <point x="476" y="531"/>
      <point x="414" y="482"/>
      <point x="379" y="412" type="curve"/>
      <point x="379" y="368" type="line"/>
      <point x="479" y="368" type="line"/>
      <point x="479" y="412" type="line"/>
      <point x="443" y="482"/>
      <point x="386" y="531"/>
      <point x="260" y="531" type="curve" smooth="yes"/>
      <point x="136" y="531"/>
      <point x="40" y="462"/>
      <point x="40" y="347" type="curve" smooth="yes"/>
      <point x="40" y="270"/>
      <point x="94" y="214"/>
      <point x="170" y="213" type="curve" smooth="yes"/>
      <point x="245" y="212"/>
      <point x="301" y="259"/>
      <point x="302" y="325" type="curve" smooth="yes"/>
      <point x="304" y="393"/>
      <point x="266" y="432"/>
      <point x="178" y="432" type="curve" smooth="yes"/>
      <point x="115" y="432"/>
      <point x="70" y="394"/>
      <point x="71" y="334" type="curve"/>
      <point x="135" y="331" type="line"/>
      <point x="135" y="354"/>
      <point x="151" y="371"/>
      <point x="174" y="371" type="curve" smooth="yes"/>
      <point x="196" y="371"/>
      <point x="212" y="354"/>
      <point x="212" y="330" type="curve" smooth="yes"/>
      <point x="212" y="309"/>
      <point x="196" y="293"/>
      <point x="174" y="293" type="curve" smooth="yes"/>
      <point x="151" y="293"/>
      <point x="135" y="309"/>
      <point x="135" y="331" type="curve" smooth="yes"/>
      <point x="135" y="384"/>
      <point x="208" y="395"/>
      <point x="278" y="395" type="curve" smooth="yes"/>
      <point x="323" y="395"/>
      <point x="353" y="367"/>
      <point x="353" y="317" type="curve" smooth="yes"/>
      <point x="353" y="274" type="line"/>
      <point x="505" y="274" type="line"/>
      <point x="505" y="343" type="line" smooth="yes"/>
      <point x="505" y="372"/>
      <point x="526" y="393"/>
      <point x="558" y="393" type="curve" smooth="yes"/>
      <point x="587" y="393"/>
      <point x="607" y="370"/>
      <point x="607" y="337" type="curve" smooth="yes"/>
      <point x="606" y="292"/>
      <point x="560" y="253"/>
      <point x="491" y="244" type="curve" smooth="yes"/>
      <point x="310" y="220" type="line" smooth="yes"/>
      <point x="117" y="194"/>
      <point x="40" y="100"/>
      <point x="40" y="-14" type="curve" smooth="yes"/>
      <point x="40" y="-125"/>
      <point x="122" y="-205"/>
      <point x="247" y="-205" type="curve" smooth="yes"/>
      <point x="345" y="-205"/>
      <point x="434" y="-156"/>
      <point x="460" y="-86" type="curve"/>
      <point x="460" y="-30" type="line"/>
      <point x="359" y="-32" type="line"/>
      <point x="359" y="-86" type="line"/>
      <point x="385" y="-156"/>
      <point x="474" y="-205"/>
      <point x="553" y="-205" type="curve" smooth="yes"/>
      <point x="688" y="-205"/>
      <point x="765" y="-129"/>
      <point x="765" y="-23" type="curve" smooth="yes"/>
      <point x="765" y="19"/>
      <point x="754" y="50"/>
      <point x="727" y="101" type="curve"/>
      <point x="558" y="95" type="line"/>
      <point x="583" y="50"/>
      <point x="593" y="15"/>
    </contour>
  </outline>
</glyph>
<glyph name="tm_O" format="2">
  <advance width="898"/>
  <unicode hex="0B92"/>
  <outline>
    <contour>
      <point x="440" y="534" type="curve" smooth="yes"/>
      <point x="211" y="534"/>
      <point x="35" y="415"/>
      <point x="35" y="251" type="curve" smooth="yes"/>
      <point x="35" y="149"/>
      <point x="111" y="75"/>
      <point x="215" y="75" type="curve" smooth="yes"/>
      <point x="304" y="75"/>
      <point x="368" y="134"/>
      <point x="368" y="215" type="curve" smooth="yes"/>
      <point x="368" y="288"/>
      <point x="309" y="340"/>
      <point x="229" y="340" type="curve" smooth="yes"/>
      <point x="158" y="340"/>
      <point x="106" y="285"/>
      <point x="106" y="209" type="curve" smooth="yes"/>
      <point x="106" y="144"/>
      <point x="146" y="97"/>
      <point x="217" y="97" type="curve"/>
      <point x="214" y="171" type="line"/>
      <point x="190" y="171"/>
      <point x="172" y="189"/>
      <point x="172" y="213" type="curve" smooth="yes"/>
      <point x="172" y="236"/>
      <point x="190" y="253"/>
      <point x="215" y="253" type="curve" smooth="yes"/>
      <point x="239" y="253"/>
      <point x="256" y="236"/>
      <point x="256" y="213" type="curve" smooth="yes"/>
      <point x="255" y="189"/>
      <point x="237" y="171"/>
      <point x="214" y="171" type="curve" smooth="yes"/>
      <point x="183" y="171"/>
      <point x="161" y="178"/>
      <point x="161" y="260" type="curve" smooth="yes"/>
      <point x="161" y="339"/>
      <point x="295" y="396"/>
      <point x="440" y="396" type="curve" smooth="yes"/>
      <point x="579" y="396"/>
      <point x="691" y="348"/>
      <point x="691" y="282" type="curve" smooth="yes"/>
      <point x="691" y="251"/>
      <point x="673" y="230"/>
      <point x="646" y="230" type="curve" smooth="yes"/>
      <point x="615" y="230"/>
      <point x="601" y="246"/>
      <point x="600" y="269" type="curve"/>
      <point x="487" y="269" type="line"/>
      <point x="487" y="167"/>
      <point x="568" y="101"/>
      <point x="664" y="101" type="curve" smooth="yes"/>
      <point x="780" y="101"/>
      <point x="863" y="176"/>
      <point x="863" y="282" type="curve" smooth="yes"/>
      <point x="863" y="428"/>
      <point x="674" y="534"/>
    </contour>
    <contour>
      <point x="802" y="-56" type="line"/>
      <point x="802" y="64" type="line"/>
      <point x="701" y="64" type="line" smooth="yes"/>
      <point x="622" y="64"/>
      <point x="600" y="86"/>
      <point x="600" y="142" type="curve" smooth="yes"/>
      <point x="600" y="269" type="line"/>
      <point x="472" y="269" type="line"/>
      <point x="472" y="151" type="line" smooth="yes"/>
      <point x="472" y="18"/>
      <point x="546" y="-56"/>
      <point x="701" y="-56" type="curve" smooth="yes"/>
    </contour>
    <contour>
      <point x="448" y="-81" type="curve" smooth="yes"/>
      <point x="386" y="-81"/>
      <point x="341" y="-53"/>
      <point x="341" y="-4" type="curve" smooth="yes"/>
      <point x="341" y="18" type="line"/>
      <point x="186" y="18" type="line"/>
      <point x="186" y="-13" type="line" smooth="yes"/>
      <point x="186" y="-137"/>
      <point x="297" y="-219"/>
      <point x="450" y="-219" type="curve" smooth="yes"/>
      <point x="603" y="-219"/>
      <point x="714" y="-137"/>
      <point x="714" y="-23" type="curve" smooth="yes"/>
      <point x="714" y="18" type="line"/>
      <point x="559" y="18" type="line"/>
      <point x="559" y="-14" type="line" smooth="yes"/>
      <point x="559" y="-53"/>
      <point x="512" y="-81"/>
    </contour>
  </outline>
</glyph>
<glyph name="tm_Oo" format="2">
  <advance width="898"/>
  <unicode hex="0B93"/>
  <outline>
    <contour>
      <point x="559" y="18" type="line"/>
      <point x="559" y="-23" type="line" smooth="yes"/>
      <point x="559" y="-62"/>
      <point x="508" y="-90"/>
      <point x="437" y="-90" type="curve" smooth="yes"/>
      <point x="374" y="-90"/>
      <point x="345" y="-78"/>
      <point x="345" y="-61" type="curve" smooth="yes"/>
      <point x="345" y="-50"/>
      <point x="351" y="-41"/>
      <point x="365" y="-41" type="curve" smooth="yes"/>
      <point x="377" y="-41" type="line"/>
      <point x="377" y="78" type="line"/>
      <point x="365" y="78" type="line" smooth="yes"/>
      <point x="247" y="78"/>
      <point x="188" y="19"/>
      <point x="188" y="-62" type="curve" smooth="yes"/>
      <point x="188" y="-153"/>
      <point x="283" y="-219"/>
      <point x="437" y="-219" type="curve" smooth="yes"/>
      <point x="598" y="-219"/>
      <point x="714" y="-137"/>
      <point x="714" y="-23" type="curve" smooth="yes"/>
      <point x="714" y="18" type="line"/>
    </contour>
    <contour>
      <point x="802" y="-56" type="line"/>
      <point x="802" y="64" type="line"/>
      <point x="701" y="64" type="line" smooth="yes"/>
      <point x="622" y="64"/>
      <point x="600" y="86"/>
      <point x="600" y="142" type="curve" smooth="yes"/>
      <point x="600" y="269" type="line"/>
      <point x="472" y="269" type="line"/>
      <point x="472" y="151" type="line" smooth="yes"/>
      <point x="472" y="18"/>
      <point x="546" y="-56"/>
      <point x="701" y="-56" type="curve" smooth="yes"/>
    </contour>
    <contour>
      <point x="440" y="534" type="curve" smooth="yes"/>
      <point x="211" y="534"/>
      <point x="35" y="415"/>
      <point x="35" y="251" type="curve" smooth="yes"/>
      <point x="35" y="149"/>
      <point x="111" y="75"/>
      <point x="215" y="75" type="curve" smooth="yes"/>
      <point x="304" y="75"/>
      <point x="368" y="134"/>
      <point x="368" y="215" type="curve" smooth="yes"/>
      <point x="368" y="288"/>
      <point x="309" y="340"/>
      <point x="229" y="340" type="curve" smooth="yes"/>
      <point x="158" y="340"/>
      <point x="106" y="285"/>
      <point x="106" y="209" type="curve" smooth="yes"/>
      <point x="106" y="144"/>
      <point x="146" y="97"/>
      <point x="217" y="97" type="curve"/>
      <point x="214" y="171" type="line"/>
      <point x="190" y="171"/>
      <point x="172" y="189"/>
      <point x="172" y="213" type="curve" smooth="yes"/>
      <point x="172" y="236"/>
      <point x="190" y="253"/>
      <point x="215" y="253" type="curve" smooth="yes"/>
      <point x="239" y="253"/>
      <point x="256" y="236"/>
      <point x="256" y="213" type="curve" smooth="yes"/>
      <point x="255" y="189"/>
      <point x="237" y="171"/>
      <point x="214" y="171" type="curve" smooth="yes"/>
      <point x="183" y="171"/>
      <point x="161" y="178"/>
      <point x="161" y="260" type="curve" smooth="yes"/>
      <point x="161" y="339"/>
      <point x="295" y="396"/>
      <point x="440" y="396" type="curve" smooth="yes"/>
      <point x="579" y="396"/>
      <point x="691" y="348"/>
      <point x="691" y="282" type="curve" smooth="yes"/>
      <point x="691" y="251"/>
      <point x="673" y="230"/>
      <point x="646" y="230" type="curve" smooth="yes"/>
      <point x="615" y="230"/>
      <point x="601" y="246"/>
      <point x="600" y="269" type="curve"/>
      <point x="487" y="269" type="line"/>
      <point x="487" y="167"/>
      <point x="568" y="101"/>
      <point x="664" y="101" type="curve" smooth="yes"/>
      <point x="780" y="101"/>
      <point x="863" y="176"/>
      <point x="863" y="282" type="curve" smooth="yes"/>
      <point x="863" y="428"/>
      <point x="674" y="534"/>
    </contour>
  </outline>
</glyph>
<glyph name="tm_Ka" format="2">
  <advance width="766"/>
  <unicode hex="0B95"/>
  <outline>
    <contour>
      <point x="528" y="205" type="curve" smooth="yes"/>
      <point x="528" y="384" type="line"/>
      <point x="712" y="384" type="line"/>
      <point x="697" y="513" type="line"/>
      <point x="133" y="513" type="line"/>
      <point x="133" y="263" type="line"/>
      <point x="291" y="263" type="line"/>
      <point x="291" y="384" type="line"/>
      <point x="373" y="384" type="line"/>
      <point x="373" y="205" type="line" smooth="yes"/>
      <point x="373" y="138"/>
      <point x="301" y="120"/>
      <point x="260" y="120" type="curve" smooth="yes"/>
      <point x="223" y="120"/>
      <point x="204" y="135"/>
      <point x="204" y="156" type="curve" smooth="yes"/>
      <point x="204" y="176"/>
      <point x="222" y="191"/>
      <point x="258" y="191" type="curve" smooth="yes"/>
      <point x="540" y="191" type="line" smooth="yes"/>
      <point x="564" y="191"/>
      <point x="575" y="174"/>
      <point x="575" y="150" type="curve" smooth="yes"/>
      <point x="575" y="127"/>
      <point x="562" y="111"/>
      <point x="537" y="111" type="curve"/>
      <point x="537" y="-18" type="line"/>
      <point x="668" y="-18"/>
      <point x="746" y="55"/>
      <point x="746" y="150" type="curve" smooth="yes"/>
      <point x="746" y="246"/>
      <point x="669" y="320"/>
      <point x="539" y="320" type="curve" smooth="yes"/>
      <point x="247" y="320" type="line" smooth="yes"/>
      <point x="98" y="320"/>
      <point x="30" y="248"/>
      <point x="30" y="156" type="curve" smooth="yes"/>
      <point x="30" y="58"/>
      <point x="100" y="-18"/>
      <point x="252" y="-18" type="curve" smooth="yes"/>
      <point x="396" y="-18"/>
      <point x="528" y="58"/>
    </contour>
  </outline>
</glyph>
<glyph name="tm_Nga" format="2">
  <advance width="1082"/>
  <unicode hex="0B99"/>
  <guideline x="161" y="570" angle="0"/>
  <outline>
    <contour>
      <point x="504" y="384" type="line"/>
      <point x="661" y="384" type="line"/>
      <point x="646" y="513" type="line"/>
      <point x="80" y="513" type="line"/>
      <point x="80" y="0" type="line"/>
      <point x="244" y="0" type="line"/>
      <point x="244" y="384" type="line"/>
      <point x="340" y="384" type="line"/>
      <point x="340" y="167" type="line"/>
      <point x="504" y="167" type="line"/>
    </contour>
    <contour>
      <point x="1002" y="513" type="line"/>
      <point x="838" y="513" type="line"/>
      <point x="838" y="129" type="line"/>
      <point x="340" y="129" type="line"/>
      <point x="340" y="0" type="line"/>
      <point x="1002" y="0" type="line"/>
    </contour>
    <contour>
      <point x="594" y="178" type="curve" smooth="yes"/>
      <point x="594" y="149"/>
      <point x="567" y="129"/>
      <point x="508" y="129" type="curve"/>
      <point x="517" y="26" type="line"/>
      <point x="681" y="26"/>
      <point x="766" y="77"/>
      <point x="766" y="181" type="curve" smooth="yes"/>
      <point x="766" y="281"/>
      <point x="688" y="357"/>
      <point x="580" y="357" type="curve" smooth="yes"/>
      <point x="463" y="357"/>
      <point x="391" y="284"/>
      <point x="389" y="185" type="curve"/>
      <point x="504" y="178" type="line"/>
      <point x="504" y="199"/>
      <point x="523" y="220"/>
      <point x="551" y="220" type="curve" smooth="yes"/>
      <point x="576" y="220"/>
      <point x="594" y="203"/>
    </contour>
  </outline>
</glyph>
